<?xml version="1.0" encoding="UTF-8" standalone="no"?>
<!DOCTYPE svg PUBLIC "-//W3C//DTD SVG 1.1//EN"
 "http://www.w3.org/Graphics/SVG/1.1/DTD/svg11.dtd">
<!-- Generated by graphviz version 2.40.1 (20161225.0304)
 -->
<!-- Title: %0 Pages: 1 -->
<svg width="1739pt" height="407pt"
 viewBox="0.00 0.00 1738.99 407.00" xmlns="http://www.w3.org/2000/svg" xmlns:xlink="http://www.w3.org/1999/xlink">
<g id="graph0" class="graph" transform="scale(1 1) rotate(0) translate(4 403)">
<title>%0</title>
<polygon fill="#ffffff" stroke="transparent" points="-4,4 -4,-403 1734.992,-403 1734.992,4 -4,4"/>
<!-- user -->
<g id="node1" class="node">
<title>user</title>
<g id="a_node1"><a xlink:title="user">
<polygon fill="#ffffff" stroke="#000000" points="39,-274.5 39,-398.5 136.992,-398.5 136.992,-274.5 39,-274.5"/>
<text text-anchor="middle" x="87.996" y="-385.5" font-family="Helvetica,sans-Serif" font-size="10.00" fill="#000000">user</text>
<polyline fill="none" stroke="#000000" points="39,-378.5 136.992,-378.5 "/>
<text text-anchor="start" x="47" y="-365.5" font-family="Helvetica,sans-Serif" font-size="10.00" fill="#000000">+ name : text</text>
<text text-anchor="start" x="47" y="-353.5" font-family="Helvetica,sans-Serif" font-size="10.00" fill="#000000">+ sex : enum</text>
<text text-anchor="start" x="47" y="-341.5" font-family="Helvetica,sans-Serif" font-size="10.00" fill="#000000">+ age : number</text>
<text text-anchor="start" x="47" y="-329.5" font-family="Helvetica,sans-Serif" font-size="10.00" fill="#000000">+ password : text</text>
<text text-anchor="start" x="47" y="-317.5" font-family="Helvetica,sans-Serif" font-size="10.00" fill="#000000">+ salt : text</text>
<text text-anchor="start" x="47" y="-305.5" font-family="Helvetica,sans-Serif" font-size="10.00" fill="#000000">+ createdAt : date</text>
<text text-anchor="start" x="47" y="-293.5" font-family="Helvetica,sans-Serif" font-size="10.00" fill="#000000">+ updatedAt : date</text>
<text text-anchor="start" x="47" y="-281.5" font-family="Helvetica,sans-Serif" font-size="10.00" fill="#000000">+ id : number</text>
</a>
</g>
</g>
<!-- chatroom -->
<g id="node12" class="node">
<title>chatroom</title>
<g id="a_node12"><a xlink:title="chatroom">
<polygon fill="#ffffff" stroke="#000000" points="0,-137.5 0,-213.5 97.992,-213.5 97.992,-137.5 0,-137.5"/>
<text text-anchor="middle" x="48.996" y="-200.5" font-family="Helvetica,sans-Serif" font-size="10.00" fill="#000000">chatroom</text>
<polyline fill="none" stroke="#000000" points="0,-193.5 97.992,-193.5 "/>
<text text-anchor="start" x="8" y="-180.5" font-family="Helvetica,sans-Serif" font-size="10.00" fill="#000000">+ name : text</text>
<text text-anchor="start" x="8" y="-168.5" font-family="Helvetica,sans-Serif" font-size="10.00" fill="#000000">+ createdAt : date</text>
<text text-anchor="start" x="8" y="-156.5" font-family="Helvetica,sans-Serif" font-size="10.00" fill="#000000">+ updatedAt : date</text>
<text text-anchor="start" x="8" y="-144.5" font-family="Helvetica,sans-Serif" font-size="10.00" fill="#000000">+ id : text</text>
</a>
</g>
</g>
<!-- user&#45;&gt;chatroom -->
<g id="edge1" class="edge">
<title>user&#45;&gt;chatroom</title>
<path fill="none" stroke="#000000" stroke-dasharray="5,2" d="M45.1099,-274.323C42.3452,-268.3186 39.9719,-262.1642 38.22,-256 35.2989,-245.7216 35.0515,-234.4744 36.1508,-223.7326"/>
<polygon fill="#000000" stroke="#000000" points="39.6438,-224.0274 37.5741,-213.6367 32.7123,-223.0502 39.6438,-224.0274"/>
<text text-anchor="middle" x="52.884" y="-247" font-family="Helvetica,sans-Serif" font-size="10.00" fill="#000000">rooms</text>
</g>
<!-- person -->
<g id="node2" class="node">
<title>person</title>
<g id="a_node2"><a xlink:title="person">
<polygon fill="#ffffff" stroke="#000000" points="208,-125.5 208,-225.5 305.992,-225.5 305.992,-125.5 208,-125.5"/>
<text text-anchor="middle" x="256.996" y="-212.5" font-family="Helvetica,sans-Serif" font-size="10.00" fill="#000000">person</text>
<polyline fill="none" stroke="#000000" points="208,-205.5 305.992,-205.5 "/>
<text text-anchor="start" x="216" y="-192.5" font-family="Helvetica,sans-Serif" font-size="10.00" fill="#000000">+ name : text</text>
<text text-anchor="start" x="216" y="-180.5" font-family="Helvetica,sans-Serif" font-size="10.00" fill="#000000">+ sex : enum</text>
<text text-anchor="start" x="216" y="-168.5" font-family="Helvetica,sans-Serif" font-size="10.00" fill="#000000">+ age : number</text>
<text text-anchor="start" x="216" y="-156.5" font-family="Helvetica,sans-Serif" font-size="10.00" fill="#000000">+ createdAt : date</text>
<text text-anchor="start" x="216" y="-144.5" font-family="Helvetica,sans-Serif" font-size="10.00" fill="#000000">+ updatedAt : date</text>
<text text-anchor="start" x="216" y="-132.5" font-family="Helvetica,sans-Serif" font-size="10.00" fill="#000000">+ id : number</text>
</a>
</g>
</g>
<!-- ext_acl -->
<g id="node3" class="node">
<title>ext_acl</title>
<g id="a_node3"><a xlink:title="ext_acl">
<polygon fill="#ffffff" stroke="#000000" points="324,-131.5 324,-219.5 421.992,-219.5 421.992,-131.5 324,-131.5"/>
<text text-anchor="middle" x="372.996" y="-206.5" font-family="Helvetica,sans-Serif" font-size="10.00" fill="#000000">ext_acl</text>
<polyline fill="none" stroke="#000000" points="324,-199.5 421.992,-199.5 "/>
<text text-anchor="start" x="332" y="-186.5" font-family="Helvetica,sans-Serif" font-size="10.00" fill="#000000">+ name : text</text>
<text text-anchor="start" x="332" y="-174.5" font-family="Helvetica,sans-Serif" font-size="10.00" fill="#000000">+ age : number</text>
<text text-anchor="start" x="332" y="-162.5" font-family="Helvetica,sans-Serif" font-size="10.00" fill="#000000">+ createdAt : date</text>
<text text-anchor="start" x="332" y="-150.5" font-family="Helvetica,sans-Serif" font-size="10.00" fill="#000000">+ updatedAt : date</text>
<text text-anchor="start" x="332" y="-138.5" font-family="Helvetica,sans-Serif" font-size="10.00" fill="#000000">+ id : number</text>
</a>
</g>
</g>
<!-- ext_acl1 -->
<g id="node4" class="node">
<title>ext_acl1</title>
<g id="a_node4"><a xlink:title="ext_acl1">
<polygon fill="#ffffff" stroke="#000000" points="440,-131.5 440,-219.5 537.992,-219.5 537.992,-131.5 440,-131.5"/>
<text text-anchor="middle" x="488.996" y="-206.5" font-family="Helvetica,sans-Serif" font-size="10.00" fill="#000000">ext_acl1</text>
<polyline fill="none" stroke="#000000" points="440,-199.5 537.992,-199.5 "/>
<text text-anchor="start" x="448" y="-186.5" font-family="Helvetica,sans-Serif" font-size="10.00" fill="#000000">+ name : text</text>
<text text-anchor="start" x="448" y="-174.5" font-family="Helvetica,sans-Serif" font-size="10.00" fill="#000000">+ age : number</text>
<text text-anchor="start" x="448" y="-162.5" font-family="Helvetica,sans-Serif" font-size="10.00" fill="#000000">+ createdAt : date</text>
<text text-anchor="start" x="448" y="-150.5" font-family="Helvetica,sans-Serif" font-size="10.00" fill="#000000">+ updatedAt : date</text>
<text text-anchor="start" x="448" y="-138.5" font-family="Helvetica,sans-Serif" font-size="10.00" fill="#000000">+ id : number</text>
</a>
</g>
</g>
<!-- test_acl -->
<g id="node5" class="node">
<title>test_acl</title>
<g id="a_node5"><a xlink:title="test_acl">
<polygon fill="#ffffff" stroke="#000000" points="382,-286.5 382,-386.5 479.992,-386.5 479.992,-286.5 382,-286.5"/>
<text text-anchor="middle" x="430.996" y="-373.5" font-family="Helvetica,sans-Serif" font-size="10.00" fill="#000000">test_acl</text>
<polyline fill="none" stroke="#000000" points="382,-366.5 479.992,-366.5 "/>
<text text-anchor="start" x="390" y="-353.5" font-family="Helvetica,sans-Serif" font-size="10.00" fill="#000000">+ name : text</text>
<text text-anchor="start" x="390" y="-341.5" font-family="Helvetica,sans-Serif" font-size="10.00" fill="#000000">+ age : number</text>
<text text-anchor="start" x="390" y="-329.5" font-family="Helvetica,sans-Serif" font-size="10.00" fill="#000000">+ sex : text</text>
<text text-anchor="start" x="390" y="-317.5" font-family="Helvetica,sans-Serif" font-size="10.00" fill="#000000">+ createdAt : date</text>
<text text-anchor="start" x="390" y="-305.5" font-family="Helvetica,sans-Serif" font-size="10.00" fill="#000000">+ updatedAt : date</text>
<text text-anchor="start" x="390" y="-293.5" font-family="Helvetica,sans-Serif" font-size="10.00" fill="#000000">+ id : number</text>
</a>
</g>
</g>
<!-- test_acl&#45;&gt;ext_acl -->
<g id="edge2" class="edge">
<title>test_acl&#45;&gt;ext_acl</title>
<path fill="none" stroke="#000000" stroke-dasharray="5,2" d="M412.9624,-286.4411C406.3926,-268.2044 398.9423,-247.5234 392.2691,-228.9996"/>
<polygon fill="#000000" stroke="#000000" points="395.5413,-227.7557 388.8591,-219.5339 388.9556,-230.1283 395.5413,-227.7557"/>
<text text-anchor="middle" x="408.665" y="-247" font-family="Helvetica,sans-Serif" font-size="10.00" fill="#000000">ext</text>
</g>
<!-- test_acl&#45;&gt;ext_acl1 -->
<g id="edge3" class="edge">
<title>test_acl&#45;&gt;ext_acl1</title>
<path fill="none" stroke="#000000" stroke-dasharray="5,2" d="M449.0296,-286.4411C455.5994,-268.2044 463.0497,-247.5234 469.7229,-228.9996"/>
<polygon fill="none" stroke="#000000" points="473.0364,-230.1283 473.1329,-219.5339 466.4507,-227.7557 473.0364,-230.1283"/>
<text text-anchor="middle" x="473.4445" y="-247" font-family="Helvetica,sans-Serif" font-size="10.00" fill="#000000">ext1</text>
</g>
<!-- city -->
<g id="node6" class="node">
<title>city</title>
<g id="a_node6"><a xlink:title="city">
<polygon fill="#ffffff" stroke="#000000" points="556,-131.5 556,-219.5 653.992,-219.5 653.992,-131.5 556,-131.5"/>
<text text-anchor="middle" x="604.996" y="-206.5" font-family="Helvetica,sans-Serif" font-size="10.00" fill="#000000">city</text>
<polyline fill="none" stroke="#000000" points="556,-199.5 653.992,-199.5 "/>
<text text-anchor="start" x="564" y="-186.5" font-family="Helvetica,sans-Serif" font-size="10.00" fill="#000000">+ code : text</text>
<text text-anchor="start" x="564" y="-174.5" font-family="Helvetica,sans-Serif" font-size="10.00" fill="#000000">+ name : text</text>
<text text-anchor="start" x="564" y="-162.5" font-family="Helvetica,sans-Serif" font-size="10.00" fill="#000000">+ createdAt : date</text>
<text text-anchor="start" x="564" y="-150.5" font-family="Helvetica,sans-Serif" font-size="10.00" fill="#000000">+ updatedAt : date</text>
<text text-anchor="start" x="564" y="-138.5" font-family="Helvetica,sans-Serif" font-size="10.00" fill="#000000">+ id : number</text>
</a>
</g>
</g>
<!-- people -->
<g id="node7" class="node">
<title>people</title>
<g id="a_node7"><a xlink:title="people">
<polygon fill="#ffffff" stroke="#000000" points="556,-286.5 556,-386.5 653.992,-386.5 653.992,-286.5 556,-286.5"/>
<text text-anchor="middle" x="604.996" y="-373.5" font-family="Helvetica,sans-Serif" font-size="10.00" fill="#000000">people</text>
<polyline fill="none" stroke="#000000" points="556,-366.5 653.992,-366.5 "/>
<text text-anchor="start" x="564" y="-353.5" font-family="Helvetica,sans-Serif" font-size="10.00" fill="#000000">+ name : text</text>
<text text-anchor="start" x="564" y="-341.5" font-family="Helvetica,sans-Serif" font-size="10.00" fill="#000000">+ sex : enum</text>
<text text-anchor="start" x="564" y="-329.5" font-family="Helvetica,sans-Serif" font-size="10.00" fill="#000000">+ age : number</text>
<text text-anchor="start" x="564" y="-317.5" font-family="Helvetica,sans-Serif" font-size="10.00" fill="#000000">+ createdAt : date</text>
<text text-anchor="start" x="564" y="-305.5" font-family="Helvetica,sans-Serif" font-size="10.00" fill="#000000">+ updatedAt : date</text>
<text text-anchor="start" x="564" y="-293.5" font-family="Helvetica,sans-Serif" font-size="10.00" fill="#000000">+ id : number</text>
</a>
</g>
</g>
<!-- people&#45;&gt;city -->
<g id="edge10" class="edge">
<title>people&#45;&gt;city</title>
<path fill="none" stroke="#000000" stroke-dasharray="5,2" d="M604.996,-286.4411C604.996,-268.4554 604.996,-248.0921 604.996,-229.7655"/>
<polygon fill="none" stroke="#000000" points="608.4961,-229.5338 604.996,-219.5339 601.4961,-229.5339 608.4961,-229.5338"/>
<text text-anchor="middle" x="612.495" y="-247" font-family="Helvetica,sans-Serif" font-size="10.00" fill="#000000">city</text>
</g>
<!-- people&#45;&gt;people -->
<g id="edge4" class="edge">
<title>people&#45;&gt;people</title>
<path fill="none" stroke="#000000" stroke-dasharray="5,2" d="M654.0735,-338.4505C664.4783,-338.2525 671.992,-337.6023 671.992,-336.5 671.992,-335.8111 669.0569,-335.2987 664.3154,-334.963"/>
<polygon fill="none" stroke="#000000" points="664.2066,-331.4559 654.0735,-334.5495 663.9241,-338.4502 664.2066,-331.4559"/>
<text text-anchor="middle" x="687.549" y="-333.5" font-family="Helvetica,sans-Serif" font-size="10.00" fill="#000000">mother</text>
</g>
<!-- people&#45;&gt;people -->
<g id="edge5" class="edge">
<title>people&#45;&gt;people</title>
<path fill="none" stroke="#000000" stroke-dasharray="5,2" d="M654.1219,-340.4227C679.468,-340.936 703.106,-339.6284 703.106,-336.5 703.106,-333.7993 685.4897,-332.4556 664.3659,-332.4688"/>
<polygon fill="none" stroke="#000000" points="664.0842,-328.9715 654.1219,-332.5773 664.1584,-335.9711 664.0842,-328.9715"/>
<text text-anchor="middle" x="715.888" y="-333.5" font-family="Helvetica,sans-Serif" font-size="10.00" fill="#000000">father</text>
</g>
<!-- people&#45;&gt;people -->
<g id="edge6" class="edge">
<title>people&#45;&gt;people</title>
<path fill="none" stroke="#000000" stroke-dasharray="5,2" d="M654.0381,-341.9564C690.1936,-343.6098 728.67,-341.791 728.67,-336.5 728.67,-331.705 697.0698,-329.7617 664.2344,-330.6702"/>
<polygon fill="none" stroke="#000000" points="663.9032,-327.1799 654.0381,-331.0436 664.1595,-334.1752 663.9032,-327.1799"/>
<text text-anchor="middle" x="747.847" y="-333.5" font-family="Helvetica,sans-Serif" font-size="10.00" fill="#000000">husband</text>
</g>
<!-- people&#45;&gt;people -->
<g id="edge7" class="edge">
<title>people&#45;&gt;people</title>
<path fill="none" stroke="#000000" stroke-dasharray="5,2" d="M654.2273,-343.0467C704.4969,-346.3878 767.024,-344.2056 767.024,-336.5 767.024,-329.3061 712.5255,-326.9264 664.3822,-329.3607"/>
<polygon fill="#000000" stroke="#000000" points="664.0064,-325.8766 654.2273,-329.9533 664.4142,-332.8647 664.0064,-325.8766"/>
<text text-anchor="middle" x="788.701" y="-333.5" font-family="Helvetica,sans-Serif" font-size="10.00" fill="#000000">husbands</text>
</g>
<!-- people&#45;&gt;people -->
<g id="edge8" class="edge">
<title>people&#45;&gt;people</title>
<path fill="none" stroke="#000000" stroke-dasharray="5,2" d="M654.1354,-343.8579C718.5674,-349.162 810.378,-346.7094 810.378,-336.5 810.378,-326.8091 727.6551,-324.1071 664.1474,-328.3941"/>
<polygon fill="none" stroke="#000000" points="663.8468,-324.9067 654.1354,-329.1421 664.3684,-331.8872 663.8468,-324.9067"/>
<text text-anchor="middle" x="819.266" y="-333.5" font-family="Helvetica,sans-Serif" font-size="10.00" fill="#000000">wife</text>
</g>
<!-- people&#45;&gt;people -->
<g id="edge9" class="edge">
<title>people&#45;&gt;people</title>
<path fill="none" stroke="#000000" stroke-dasharray="5,2" d="M654.1442,-344.8465C724.7589,-351.8326 828.378,-349.0504 828.378,-336.5 828.378,-324.5379 734.2455,-321.4497 664.2779,-327.2355"/>
<polygon fill="#000000" stroke="#000000" points="663.7876,-323.7654 654.1442,-328.1535 664.4193,-330.7369 663.7876,-323.7654"/>
<text text-anchor="middle" x="841.156" y="-333.5" font-family="Helvetica,sans-Serif" font-size="10.00" fill="#000000">childs</text>
</g>
<!-- people&#45;&gt;people -->
<g id="edge11" class="edge">
<title>people&#45;&gt;people</title>
<path fill="none" stroke="#000000" stroke-dasharray="5,2" d="M654.2088,-345.6353C732.8973,-354.5363 853.934,-351.4912 853.934,-336.5 853.934,-322.1529 743.0754,-318.7474 664.5739,-326.2835"/>
<polygon fill="#000000" stroke="#000000" points="663.7917,-322.846 654.2088,-327.3647 664.518,-329.8082 663.7917,-322.846"/>
<text text-anchor="middle" x="878.38" y="-333.5" font-family="Helvetica,sans-Serif" font-size="10.00" fill="#000000">my_friends</text>
</g>
<!-- people&#45;&gt;people -->
<g id="edge12" class="edge">
<title>people&#45;&gt;people</title>
<path fill="none" stroke="#000000" stroke-dasharray="5,2" d="M654.0535,-346.0476C746.0761,-357.2983 902.826,-354.1157 902.826,-336.5 902.826,-319.5036 756.9039,-315.9434 663.9894,-325.8193"/>
<polygon fill="#000000" stroke="#000000" points="663.5925,-322.3418 654.0535,-326.9524 664.3857,-329.2967 663.5925,-322.3418"/>
<text text-anchor="middle" x="917.828" y="-333.5" font-family="Helvetica,sans-Serif" font-size="10.00" fill="#000000">friends</text>
</g>
<!-- level -->
<g id="node8" class="node">
<title>level</title>
<g id="a_node8"><a xlink:title="level">
<polygon fill="#ffffff" stroke="#000000" points="1073,-292.5 1073,-380.5 1170.992,-380.5 1170.992,-292.5 1073,-292.5"/>
<text text-anchor="middle" x="1121.996" y="-367.5" font-family="Helvetica,sans-Serif" font-size="10.00" fill="#000000">level</text>
<polyline fill="none" stroke="#000000" points="1073,-360.5 1170.992,-360.5 "/>
<text text-anchor="start" x="1081" y="-347.5" font-family="Helvetica,sans-Serif" font-size="10.00" fill="#000000">+ name : text</text>
<text text-anchor="start" x="1081" y="-335.5" font-family="Helvetica,sans-Serif" font-size="10.00" fill="#000000">+ level_f : text</text>
<text text-anchor="start" x="1081" y="-323.5" font-family="Helvetica,sans-Serif" font-size="10.00" fill="#000000">+ createdAt : date</text>
<text text-anchor="start" x="1081" y="-311.5" font-family="Helvetica,sans-Serif" font-size="10.00" fill="#000000">+ updatedAt : date</text>
<text text-anchor="start" x="1081" y="-299.5" font-family="Helvetica,sans-Serif" font-size="10.00" fill="#000000">+ id : number</text>
</a>
</g>
</g>
<!-- level&#45;&gt;level -->
<g id="edge13" class="edge">
<title>level&#45;&gt;level</title>
<path fill="none" stroke="#000000" stroke-dasharray="5,2" d="M1171.0735,-344.3022C1181.4783,-343.5099 1188.992,-340.9092 1188.992,-336.5 1188.992,-333.6754 1185.9084,-331.5929 1180.9564,-330.2527"/>
<polygon fill="none" stroke="#000000" points="1181.496,-326.7946 1171.0735,-328.6978 1180.408,-333.7095 1181.496,-326.7946"/>
<text text-anchor="middle" x="1203.999" y="-333.5" font-family="Helvetica,sans-Serif" font-size="10.00" fill="#000000">one_l2</text>
</g>
<!-- level&#45;&gt;level -->
<g id="edge14" class="edge">
<title>level&#45;&gt;level</title>
<path fill="none" stroke="#000000" stroke-dasharray="5,2" d="M1171.2098,-352.2313C1196.0519,-354.1735 1219.006,-348.9297 1219.006,-336.5 1219.006,-325.7697 1201.8993,-320.3947 1181.2392,-320.3751"/>
<polygon fill="none" stroke="#000000" points="1181.0648,-316.8791 1171.2098,-320.7687 1181.3394,-323.8737 1181.0648,-316.8791"/>
<text text-anchor="middle" x="1234.013" y="-333.5" font-family="Helvetica,sans-Serif" font-size="10.00" fill="#000000">one_l3</text>
</g>
<!-- sub_level -->
<g id="node9" class="node">
<title>sub_level</title>
<g id="a_node9"><a xlink:title="sub_level">
<polygon fill="#ffffff" stroke="#000000" points="976,-131.5 976,-219.5 1073.992,-219.5 1073.992,-131.5 976,-131.5"/>
<text text-anchor="middle" x="1024.996" y="-206.5" font-family="Helvetica,sans-Serif" font-size="10.00" fill="#000000">sub_level</text>
<polyline fill="none" stroke="#000000" points="976,-199.5 1073.992,-199.5 "/>
<text text-anchor="start" x="984" y="-186.5" font-family="Helvetica,sans-Serif" font-size="10.00" fill="#000000">+ name : text</text>
<text text-anchor="start" x="984" y="-174.5" font-family="Helvetica,sans-Serif" font-size="10.00" fill="#000000">+ sublevel_f : text</text>
<text text-anchor="start" x="984" y="-162.5" font-family="Helvetica,sans-Serif" font-size="10.00" fill="#000000">+ createdAt : date</text>
<text text-anchor="start" x="984" y="-150.5" font-family="Helvetica,sans-Serif" font-size="10.00" fill="#000000">+ updatedAt : date</text>
<text text-anchor="start" x="984" y="-138.5" font-family="Helvetica,sans-Serif" font-size="10.00" fill="#000000">+ id : number</text>
</a>
</g>
</g>
<!-- level&#45;&gt;sub_level -->
<g id="edge15" class="edge">
<title>level&#45;&gt;sub_level</title>
<path fill="none" stroke="#000000" stroke-dasharray="5,2" d="M1085.4582,-292.3603C1078.75,-285.705 1071.486,-279.3041 1063.996,-274 1047.6038,-262.3916 1033.5585,-272.7951 1022.541,-256 1017.4721,-248.2729 1015.1841,-239.1699 1014.5791,-229.9165"/>
<polygon fill="none" stroke="#000000" points="1018.079,-229.8577 1014.5312,-219.8746 1011.0791,-229.8912 1018.079,-229.8577"/>
<text text-anchor="middle" x="1037.7235" y="-247" font-family="Helvetica,sans-Serif" font-size="10.00" fill="#000000">one_sl</text>
</g>
<!-- level&#45;&gt;sub_level -->
<g id="edge16" class="edge">
<title>level&#45;&gt;sub_level</title>
<path fill="none" stroke="#000000" stroke-dasharray="5,2" d="M1095.2336,-292.0799C1083.3592,-272.371 1069.2931,-249.024 1056.879,-228.4193"/>
<polygon fill="#000000" stroke="#000000" points="1059.8297,-226.5345 1051.6711,-219.7752 1053.8338,-230.1469 1059.8297,-226.5345"/>
<text text-anchor="middle" x="1109.836" y="-247" font-family="Helvetica,sans-Serif" font-size="10.00" fill="#000000">many_sublevels</text>
</g>
<!-- level_lproperty -->
<g id="node10" class="node">
<title>level_lproperty</title>
<g id="a_node10"><a xlink:title="level_lproperty">
<polygon fill="#ffffff" stroke="#000000" points="1179,-125.5 1179,-225.5 1276.992,-225.5 1276.992,-125.5 1179,-125.5"/>
<text text-anchor="middle" x="1227.996" y="-212.5" font-family="Helvetica,sans-Serif" font-size="10.00" fill="#000000">level_lproperty</text>
<polyline fill="none" stroke="#000000" points="1179,-205.5 1276.992,-205.5 "/>
<text text-anchor="start" x="1187" y="-192.5" font-family="Helvetica,sans-Serif" font-size="10.00" fill="#000000">+ name : text</text>
<text text-anchor="start" x="1187" y="-180.5" font-family="Helvetica,sans-Serif" font-size="10.00" fill="#000000">+ weight : integer</text>
<text text-anchor="start" x="1187" y="-168.5" font-family="Helvetica,sans-Serif" font-size="10.00" fill="#000000">+ level_id : serial</text>
<text text-anchor="start" x="1187" y="-156.5" font-family="Helvetica,sans-Serif" font-size="10.00" fill="#000000">+ createdAt : date</text>
<text text-anchor="start" x="1187" y="-144.5" font-family="Helvetica,sans-Serif" font-size="10.00" fill="#000000">+ updatedAt : date</text>
<text text-anchor="start" x="1187" y="-132.5" font-family="Helvetica,sans-Serif" font-size="10.00" fill="#000000">+ id : text</text>
</a>
</g>
</g>
<!-- level&#45;&gt;level_lproperty -->
<g id="edge17" class="edge">
<title>level&#45;&gt;level_lproperty</title>
<path fill="none" stroke="#000000" stroke-dasharray="5,2" d="M1142.5874,-292.0651C1150.4781,-276.4378 1160.0238,-259.0346 1170.104,-244 1172.3327,-240.6759 1174.6975,-237.3287 1177.1485,-233.9966"/>
<polygon fill="#000000" stroke="#000000" points="1180.136,-235.8495 1183.3905,-225.7669 1174.5587,-231.6194 1180.136,-235.8495"/>
<text text-anchor="middle" x="1189.442" y="-247" font-family="Helvetica,sans-Serif" font-size="10.00" fill="#000000">lproperty</text>
</g>
<!-- sub_level&#45;&gt;sub_level -->
<g id="edge18" class="edge">
<title>sub_level&#45;&gt;sub_level</title>
<path fill="none" stroke="#000000" stroke-dasharray="5,2" d="M1074.0735,-188.927C1084.4783,-187.5636 1091.992,-183.0879 1091.992,-175.5 1091.992,-170.639 1088.9084,-167.0553 1083.9564,-164.7488"/>
<polygon fill="none" stroke="#000000" points="1084.6407,-161.3081 1074.0735,-162.073 1082.8112,-168.0648 1084.6407,-161.3081"/>
<text text-anchor="middle" x="1124.2265" y="-172.5" font-family="Helvetica,sans-Serif" font-size="10.00" fill="#000000">subl_one_subl</text>
</g>
<!-- level_lproperty&#45;&gt;level -->
<g id="edge19" class="edge">
<title>level_lproperty&#45;&gt;level</title>
<path fill="none" stroke="#000000" stroke-dasharray="5,2" d="M1220.9583,-225.7913C1218.1954,-236.222 1214.3494,-246.8208 1208.996,-256 1201.0871,-269.561 1190.1658,-282.1885 1178.7298,-293.2345"/>
<polygon fill="none" stroke="#000000" points="1176.1122,-290.8889 1171.167,-300.2588 1180.876,-296.0179 1176.1122,-290.8889"/>
<text text-anchor="middle" x="1224.274" y="-247" font-family="Helvetica,sans-Serif" font-size="10.00" fill="#000000">level</text>
</g>
<!-- pet -->
<g id="node11" class="node">
<title>pet</title>
<g id="a_node11"><a xlink:title="pet">
<polygon fill="#ffffff" stroke="#000000" points="208,-298.5 208,-374.5 305.992,-374.5 305.992,-298.5 208,-298.5"/>
<text text-anchor="middle" x="256.996" y="-361.5" font-family="Helvetica,sans-Serif" font-size="10.00" fill="#000000">pet</text>
<polyline fill="none" stroke="#000000" points="208,-354.5 305.992,-354.5 "/>
<text text-anchor="start" x="216" y="-341.5" font-family="Helvetica,sans-Serif" font-size="10.00" fill="#000000">+ name : text</text>
<text text-anchor="start" x="216" y="-329.5" font-family="Helvetica,sans-Serif" font-size="10.00" fill="#000000">+ createdAt : date</text>
<text text-anchor="start" x="216" y="-317.5" font-family="Helvetica,sans-Serif" font-size="10.00" fill="#000000">+ updatedAt : date</text>
<text text-anchor="start" x="216" y="-305.5" font-family="Helvetica,sans-Serif" font-size="10.00" fill="#000000">+ id : text</text>
</a>
</g>
</g>
<!-- pet&#45;&gt;person -->
<g id="edge20" class="edge">
<title>pet&#45;&gt;person</title>
<path fill="none" stroke="#000000" stroke-dasharray="5,2" d="M256.996,-298.3452C256.996,-279.6459 256.996,-256.6851 256.996,-235.6948"/>
<polygon fill="none" stroke="#000000" points="260.4961,-235.576 256.996,-225.5761 253.4961,-235.5761 260.4961,-235.576"/>
<text text-anchor="middle" x="279.5025" y="-247" font-family="Helvetica,sans-Serif" font-size="10.00" fill="#000000">createdBy</text>
</g>
<!-- chatroom&#45;&gt;user -->
<g id="edge22" class="edge">
<title>chatroom&#45;&gt;user</title>
<path fill="none" stroke="#000000" stroke-dasharray="5,2" d="M58.5037,-213.528C60.9633,-223.4426 63.5945,-234.1175 65.996,-244 67.5935,-250.574 69.2433,-257.4138 70.8878,-264.266"/>
<polygon fill="#000000" stroke="#000000" points="67.5542,-265.3743 73.2867,-274.2844 74.3618,-263.7442 67.5542,-265.3743"/>
<text text-anchor="middle" x="89.828" y="-247" font-family="Helvetica,sans-Serif" font-size="10.00" fill="#000000">mambers</text>
</g>
<!-- chatmessage -->
<g id="node13" class="node">
<title>chatmessage</title>
<g id="a_node13"><a xlink:title="chatmessage">
<polygon fill="#ffffff" stroke="#000000" points="58,-.5 58,-76.5 155.992,-76.5 155.992,-.5 58,-.5"/>
<text text-anchor="middle" x="106.996" y="-63.5" font-family="Helvetica,sans-Serif" font-size="10.00" fill="#000000">chatmessage</text>
<polyline fill="none" stroke="#000000" points="58,-56.5 155.992,-56.5 "/>
<text text-anchor="start" x="66" y="-43.5" font-family="Helvetica,sans-Serif" font-size="10.00" fill="#000000">+ msg : text</text>
<text text-anchor="start" x="66" y="-31.5" font-family="Helvetica,sans-Serif" font-size="10.00" fill="#000000">+ createdAt : date</text>
<text text-anchor="start" x="66" y="-19.5" font-family="Helvetica,sans-Serif" font-size="10.00" fill="#000000">+ updatedAt : date</text>
<text text-anchor="start" x="66" y="-7.5" font-family="Helvetica,sans-Serif" font-size="10.00" fill="#000000">+ id : text</text>
</a>
</g>
</g>
<!-- chatroom&#45;&gt;chatmessage -->
<g id="edge21" class="edge">
<title>chatroom&#45;&gt;chatmessage</title>
<path fill="none" stroke="#000000" stroke-dasharray="5,2" d="M36.1781,-137.274C33.6371,-123.4267 33.3531,-108.0054 39.431,-95 42.3453,-88.7641 46.3238,-82.9742 50.9021,-77.6664"/>
<polygon fill="#000000" stroke="#000000" points="53.6168,-79.8913 57.9851,-70.2389 48.5509,-75.0604 53.6168,-79.8913"/>
<text text-anchor="middle" x="62.7785" y="-98" font-family="Helvetica,sans-Serif" font-size="10.00" fill="#000000">messages</text>
</g>
<!-- chatmessage&#45;&gt;user -->
<g id="edge23" class="edge">
<title>chatmessage&#45;&gt;user</title>
<path fill="none" stroke="#000000" stroke-dasharray="5,2" d="M114.6861,-76.6736C115.6461,-82.7793 116.4732,-89.046 116.996,-95 123.2559,-166.2868 126.9983,-185.4526 114.996,-256 114.5367,-258.6998 114.0018,-261.4317 113.4048,-264.1768"/>
<polygon fill="none" stroke="#000000" points="109.944,-263.598 110.9953,-274.1406 116.7478,-265.2435 109.944,-263.598"/>
<text text-anchor="middle" x="145.5025" y="-172.5" font-family="Helvetica,sans-Serif" font-size="10.00" fill="#000000">createdBy</text>
</g>
<!-- chatmessage&#45;&gt;chatroom -->
<g id="edge24" class="edge">
<title>chatmessage&#45;&gt;chatroom</title>
<path fill="none" stroke="#000000" stroke-dasharray="5,2" d="M96.0457,-76.6124C92.8202,-86.6243 89.0559,-97.3252 84.996,-107 82.1011,-113.8986 78.7621,-121.0373 75.3093,-127.9852"/>
<polygon fill="none" stroke="#000000" points="71.9841,-126.8019 70.5614,-137.3008 78.2207,-129.9806 71.9841,-126.8019"/>
<text text-anchor="middle" x="101.384" y="-98" font-family="Helvetica,sans-Serif" font-size="10.00" fill="#000000">room</text>
</g>
<!-- test_fields_type -->
<g id="node14" class="node">
<title>test_fields_type</title>
<g id="a_node14"><a xlink:title="test_fields_type">
<polygon fill="#ffffff" stroke="#000000" points="1285,-274.5 1285,-398.5 1382.992,-398.5 1382.992,-274.5 1285,-274.5"/>
<text text-anchor="middle" x="1333.996" y="-385.5" font-family="Helvetica,sans-Serif" font-size="10.00" fill="#000000">test_fields_type</text>
<polyline fill="none" stroke="#000000" points="1285,-378.5 1382.992,-378.5 "/>
<text text-anchor="start" x="1293" y="-365.5" font-family="Helvetica,sans-Serif" font-size="10.00" fill="#000000">+ name1 : text</text>
<text text-anchor="start" x="1293" y="-353.5" font-family="Helvetica,sans-Serif" font-size="10.00" fill="#000000">+ name2 : text</text>
<text text-anchor="start" x="1293" y="-341.5" font-family="Helvetica,sans-Serif" font-size="10.00" fill="#000000">+ profile : object</text>
<text text-anchor="start" x="1293" y="-329.5" font-family="Helvetica,sans-Serif" font-size="10.00" fill="#000000">+ binary1 : binary</text>
<text text-anchor="start" x="1293" y="-317.5" font-family="Helvetica,sans-Serif" font-size="10.00" fill="#000000">+ binary2 : binary</text>
<text text-anchor="start" x="1293" y="-305.5" font-family="Helvetica,sans-Serif" font-size="10.00" fill="#000000">+ createdAt : date</text>
<text text-anchor="start" x="1293" y="-293.5" font-family="Helvetica,sans-Serif" font-size="10.00" fill="#000000">+ updatedAt : date</text>
<text text-anchor="start" x="1293" y="-281.5" font-family="Helvetica,sans-Serif" font-size="10.00" fill="#000000">+ id : text</text>
</a>
</g>
</g>
<!-- json -->
<g id="node15" class="node">
<title>json</title>
<g id="a_node15"><a xlink:title="json">
<polygon fill="#ffffff" stroke="#000000" points="1401,-292.5 1401,-380.5 1498.992,-380.5 1498.992,-292.5 1401,-292.5"/>
<text text-anchor="middle" x="1449.996" y="-367.5" font-family="Helvetica,sans-Serif" font-size="10.00" fill="#000000">json</text>
<polyline fill="none" stroke="#000000" points="1401,-360.5 1498.992,-360.5 "/>
<text text-anchor="start" x="1409" y="-347.5" font-family="Helvetica,sans-Serif" font-size="10.00" fill="#000000">+ name : text</text>
<text text-anchor="start" x="1409" y="-335.5" font-family="Helvetica,sans-Serif" font-size="10.00" fill="#000000">+ profile : object</text>
<text text-anchor="start" x="1409" y="-323.5" font-family="Helvetica,sans-Serif" font-size="10.00" fill="#000000">+ createdAt : date</text>
<text text-anchor="start" x="1409" y="-311.5" font-family="Helvetica,sans-Serif" font-size="10.00" fill="#000000">+ updatedAt : date</text>
<text text-anchor="start" x="1409" y="-299.5" font-family="Helvetica,sans-Serif" font-size="10.00" fill="#000000">+ id : text</text>
</a>
</g>
</g>
<!-- nographql -->
<g id="node16" class="node">
<title>nographql</title>
<g id="a_node16"><a xlink:title="nographql">
<polygon fill="#d3d3d3" stroke="#000000" points="1517,-292.5 1517,-380.5 1614.992,-380.5 1614.992,-292.5 1517,-292.5"/>
<text text-anchor="middle" x="1565.996" y="-367.5" font-family="Helvetica,sans-Serif" font-size="10.00" fill="#000000">nographql</text>
<polyline fill="none" stroke="#000000" points="1517,-360.5 1614.992,-360.5 "/>
<text text-anchor="start" x="1525" y="-347.5" font-family="Helvetica,sans-Serif" font-size="10.00" fill="#000000">+ foo : text</text>
<text text-anchor="start" x="1525" y="-335.5" font-family="Helvetica,sans-Serif" font-size="10.00" fill="#000000">+ bin : binary</text>
<text text-anchor="start" x="1525" y="-323.5" font-family="Helvetica,sans-Serif" font-size="10.00" fill="#000000">+ createdAt : date</text>
<text text-anchor="start" x="1525" y="-311.5" font-family="Helvetica,sans-Serif" font-size="10.00" fill="#000000">+ updatedAt : date</text>
<text text-anchor="start" x="1525" y="-299.5" font-family="Helvetica,sans-Serif" font-size="10.00" fill="#000000">+ id : text</text>
</a>
</g>
</g>
<!-- hook_test -->
<g id="node17" class="node">
<title>hook_test</title>
<g id="a_node17"><a xlink:title="hook_test">
<polygon fill="#ffffff" stroke="#000000" points="1633,-298.5 1633,-374.5 1730.992,-374.5 1730.992,-298.5 1633,-298.5"/>
<text text-anchor="middle" x="1681.996" y="-361.5" font-family="Helvetica,sans-Serif" font-size="10.00" fill="#000000">hook_test</text>
<polyline fill="none" stroke="#000000" points="1633,-354.5 1730.992,-354.5 "/>
<text text-anchor="start" x="1641" y="-341.5" font-family="Helvetica,sans-Serif" font-size="10.00" fill="#000000">+ name : text</text>
<text text-anchor="start" x="1641" y="-329.5" font-family="Helvetica,sans-Serif" font-size="10.00" fill="#000000">+ createdAt : date</text>
<text text-anchor="start" x="1641" y="-317.5" font-family="Helvetica,sans-Serif" font-size="10.00" fill="#000000">+ updatedAt : date</text>
<text text-anchor="start" x="1641" y="-305.5" font-family="Helvetica,sans-Serif" font-size="10.00" fill="#000000">+ id : text</text>
</a>
</g>
</g>
</g>
</svg>
