<svg version="1.1" baseProfile="full" width="2171.5" height="584.0" viewbox="0 0 2171.5 584" xmlns="http://www.w3.org/2000/svg" xmlns:xlink="http://www.w3.org/1999/xlink" xmlns:ev="http://www.w3.org/2001/xml-events">
	<desc >#lineWidth: 1.5
	#font: Helvetica,sans-Serif
	#fontSize: 10
	#leading: 1.6
	#fill: white
	#.nographql: fill=lightgray
	
	[user|+ name : text;+ sex : enum;+ age : number;+ password : text;+ salt : text;+ createdAt : date;+ updatedAt : date;+ id : text]
	[person|+ name : text;+ sex : enum;+ age : number;+ createdAt : date;+ updatedAt : date;+ id : text]
	[person_query|+ name : text;+ sex : enum;+ age : number;+ createdAt : date;+ updatedAt : date;+ id : text]
	[pet_query|+ name : text;+ createdAt : date;+ updatedAt : date;+ id : text]
	[ext_acl|+ name : text;+ age : number;+ createdAt : date;+ updatedAt : date;+ id : text]
	[ext_acl1|+ name : text;+ age : number;+ createdAt : date;+ updatedAt : date;+ id : text]
	[test_acl|+ name : text;+ age : number;+ sex : text;+ createdAt : date;+ updatedAt : date;+ id : text]
	[city|+ code : text;+ name : text;+ createdAt : date;+ updatedAt : date;+ id : text]
	[people|+ name : text;+ sex : enum;+ age : number;+ createdAt : date;+ updatedAt : date;+ id : text]
	[level|+ name : text;+ level_f : text;+ createdAt : date;+ updatedAt : date;+ id : text]
	[sub_level|+ name : text;+ sublevel_f : text;+ createdAt : date;+ updatedAt : date;+ id : text]
	[descendant_level|+ name : text;+ descendant_level_f : text;+ createdAt : date;+ updatedAt : date;+ id : text]
	[level_lproperty|+ name : text;+ weight : integer;+ level_id : text;+ createdAt : date;+ updatedAt : date;+ id : text]
	[pet|+ name : text;+ createdAt : date;+ updatedAt : date;+ id : text]
	[chatroom|+ name : text;+ createdAt : date;+ updatedAt : date;+ id : text]
	[chatmessage|+ msg : text;+ createdAt : date;+ updatedAt : date;+ id : text]
	[test_fields_type|+ name1 : text;+ name2 : text;+ profile : object;+ binary1 : binary;+ binary2 : binary;+ createdAt : date;+ updatedAt : date;+ id : text]
	[json|+ name : text;+ profile : object;+ createdAt : date;+ updatedAt : date;+ id : text]
	[&lt;nographql&gt;nographql|+ foo : text;+ bin : binary;+ createdAt : date;+ updatedAt : date;+ id : text]
	[hook_test|+ name : text;+ createdAt : date;+ updatedAt : date;+ id : text]
	[user] rooms--:&gt; [chatroom]
	[pet_query] createdBy-&gt; [person_query]
	[pet_query] createdBy2-&gt; [person_query]
	[test_acl] ext--:&gt; [ext_acl]
	[test_acl] ext1-&gt; [ext_acl1]
	[people] mother-&gt; [people]
	[people] father-&gt; [people]
	[people] husband-&gt; [people]
	[people] husbands--:&gt; [people]
	[people] wife-&gt; [people]
	[people] childs--:&gt; [people]
	[people] patients--:&gt; [people]
	[people] doctor-&gt; [people]
	[people] city-&gt; [city]
	[people] my_friends--:&gt; [people]
	[people] friends--:&gt; [people]
	[level] one_l2-&gt; [level]
	[level] one_l3-&gt; [level]
	[level] one_sl-&gt; [sub_level]
	[level] many_sublevels--:&gt; [sub_level]
	[level] lproperty--:&gt; [level_lproperty]
	[sub_level] subl_one_subl-&gt; [sub_level]
	[sub_level] subl_one_descendant_level-&gt; [descendant_level]
	[level_lproperty] level-&gt; [level]
	[pet] createdBy-&gt; [person]
	[chatroom] messages--:&gt; [chatmessage]
	[chatroom] mambers--:&gt; [user]
	[chatmessage] createdBy-&gt; [user]
	[chatmessage] room-&gt; [chatroom]
	</desc>
	<g stroke-width="1.0" text-align="left" font="12pt Helvetica, Arial, sans-serif" font-size="10pt" font-family="Helvetica,sans-Serif" font-weight="normal" font-style="normal">
		<g font-family="Helvetica,sans-Serif" font-size="10pt" font-weight="bold" font-style="normal" stroke-width="1.5" stroke-linejoin="round" stroke-linecap="round" stroke="#33322E">
			<g stroke="transparent" fill="transparent">
				<rect x="0.0" y="0.0" height="584.0" width="2171.5" stroke="none"></rect>
			</g>
			<g transform="translate(8, 8)" fill="#33322E">
				<g transform="translate(20, 20)" fill="#33322E" font-family="Helvetica,sans-Serif" font-size="10pt" font-weight="normal" font-style="normal">
					<text x="981.7" y="194.0" stroke="none">rooms</text>
					<g stroke-dasharray="4 4">
						<path d="M973.7 176.0 L959 196 L959 218.66666666666666 L959.0 218.7 " fill="none"></path>
					</g>
					<path d="M953.7 218.7 L959.0 218.7 L964.3 218.7 L959.0 232.0 Z"></path>
					<text x="255.0" y="162.0" stroke="none">createdBy</text>
					<path d="M247.0 144.0 L247 196 L247 209.33333333333334 L247.0 209.3 " fill="none"></path>
					<path d="M241.7 202.7 L247.0 209.3 L252.3 202.7 L247.0 216.0 Z"></path>
					<text x="447.5" y="178.0" stroke="none">ext</text>
					<g stroke-dasharray="4 4">
						<path d="M439.5 160.0 L425 196 L425 210.66666666666666 L425.0 210.7 " fill="none"></path>
					</g>
					<path d="M419.7 210.7 L425.0 210.7 L430.3 210.7 L425.0 224.0 Z"></path>
					<text x="501.2" y="161.4" stroke="none">ext1</text>
					<path d="M537.5 143.4 L603 196 L603 217.33333333333334 L603.0 217.3 " fill="none"></path>
					<path d="M597.7 210.7 L603.0 217.3 L608.3 210.7 L603.0 224.0 Z"></path>
					<text x="796.2" y="29.8" stroke="none">mother</text>
					<path d="M850.0 37.8 L880 16 L887.5 16 L887.5 16 L895 88 L895 88 L887.5 160 L887.5 160 L880 160 L880 160 L855.3915738953546 142.10296283298516 L855.4 142.1 " fill="none"></path>
					<path d="M863.9 141.7 L855.4 142.1 L857.6 150.3 L850.0 138.2 Z"></path>
					<text x="789.0" y="178.0" stroke="none">city</text>
					<path d="M781.0 160.0 L781 196 L781 217.33333333333334 L781.0 217.3 " fill="none"></path>
					<path d="M775.7 210.7 L781.0 217.3 L786.3 210.7 L781.0 224.0 Z"></path>
					<text x="1283.8" y="35.4" stroke="none">one_l2</text>
					<path d="M1353.5 43.4 L1383.5 24 L1391 24 L1391 24 L1398.5 88 L1398.5 88 L1391 152 L1391 152 L1383.5 152 L1383.5 152 L1359.0986511394767 136.22539063562135 L1359.1 136.2 " fill="none"></path>
					<path d="M1367.6 135.4 L1359.1 136.2 L1361.8 144.3 L1353.5 132.6 Z"></path>
					<text x="1257.5" y="170.0" stroke="none">one_sl</text>
					<path d="M1249.5 152.0 L1225.5 196 L1225.5 217.33333333333334 L1225.5 217.3 " fill="none"></path>
					<path d="M1220.2 210.7 L1225.5 217.3 L1230.8 210.7 L1225.5 224.0 Z"></path>
					<text x="1262.6" y="170.0" stroke="none">lproperty</text>
					<g stroke-dasharray="4 4">
						<path d="M1328.9 152.0 L1359.5 196 L1374.9710831200864 211.14191113880793 L1375.0 211.1 " fill="none"></path>
					</g>
					<path d="M1371.2 215.0 L1375.0 211.1 L1378.7 207.3 L1384.5 220.5 Z"></path>
					<text x="1156.5" y="235.4" stroke="none">subl_one_subl</text>
					<path d="M1294.5 243.4 L1324.5 224 L1332 224 L1332 224 L1339.5 288 L1339.5 288 L1332 352 L1332 352 L1324.5 352 L1324.5 352 L1300.0986511394767 336.22539063562135 L1300.1 336.2 " fill="none"></path>
					<path d="M1308.6 335.4 L1300.1 336.2 L1302.8 344.3 L1294.5 332.6 Z"></path>
					<text x="1233.5" y="370.0" stroke="none">subl_one_descendant_level</text>
					<path d="M1225.5 352.0 L1225.5 380 L1225.5 393.3333333333333 L1225.5 393.3 " fill="none"></path>
					<path d="M1220.2 386.7 L1225.5 393.3 L1230.8 386.7 L1225.5 400.0 Z"></path>
					<text x="1477.2" y="208.0" stroke="none">level</text>
					<path d="M1469.2 216.0 L1473.5 196 L1359.288287614163 130.73616435095033 L1359.3 130.7 " fill="none"></path>
					<path d="M1367.7 129.4 L1359.3 130.7 L1362.4 138.7 L1353.5 127.4 Z"></path>
					<text x="77.0" y="162.0" stroke="none">createdBy</text>
					<path d="M69.0 144.0 L69 196 L69 209.33333333333334 L69.0 209.3 " fill="none"></path>
					<path d="M63.7 202.7 L69.0 209.3 L74.3 202.7 L69.0 216.0 Z"></path>
					<text x="871.3" y="362.0" stroke="none">messages</text>
					<g stroke-dasharray="4 4">
						<path d="M946.8 344.0 L939 380 L954.986210611509 398.0247206894866 L955.0 398.0 " fill="none"></path>
					</g>
					<path d="M951.0 401.6 L955.0 398.0 L959.0 394.5 L963.8 408.0 Z"></path>
					<text x="959.2" y="241.2" stroke="none">mambers</text>
					<g stroke-dasharray="4 4">
						<path d="M1028.0 249.2 L1122.5 196 L1115.13031929131 186.52469623168432 L1115.1 186.5 " fill="none"></path>
					</g>
					<path d="M1119.3 183.3 L1115.1 186.5 L1110.9 189.8 L1106.9 176.0 Z"></path>
					<text x="975.2" y="400.0" stroke="none">createdBy</text>
					<path d="M1049.8 408.0 L1068 380 L1068 288 L1068 288 L1068 196 L1068 196 L1064.2936722353747 182.43107123459265 L1064.3 182.4 " fill="none"></path>
					<path d="M1071.2 187.5 L1064.3 182.4 L1060.9 190.3 L1062.5 176.0 Z"></path>
					<text x="1008.2" y="400.0" stroke="none">room</text>
					<path d="M1000.2 408.0 L993.5 380 L982.3408229439226 350.24219451712696 L982.3 350.2 " fill="none"></path>
					<path d="M989.7 354.6 L982.3 350.2 L979.7 358.4 L980.0 344.0 Z"></path>
					<g data-name="user">
						<g fill="white" stroke="#33322E" data-name="user">
							<rect x="970.0" y="0.0" height="176.0" width="138.0" data-name="user"></rect>
							<path d="M970.0 32.0 L1108.0 32.0" fill="none" data-name="user"></path>
						</g>
						<g transform="translate(970, 0)" font-family="Helvetica,sans-Serif" font-size="10pt" font-weight="bold" font-style="normal" data-name="user">
							<g transform="translate(8, 8)" fill="#33322E" text-align="center" data-name="user">
								<text x="61.0" y="13.0" stroke="none" text-anchor="middle" data-name="user">user</text>
								
							</g>
						</g>
						<g transform="translate(970, 32)" font-family="Helvetica,sans-Serif" font-size="10pt" font-weight="normal" font-style="normal" data-name="user">
							<g transform="translate(8, 8)" fill="#33322E" text-align="left" data-name="user">
								<text x="0.0" y="13.0" stroke="none" data-name="user">+ name : text</text>
								<text x="0.0" y="29.0" stroke="none" data-name="user">+ sex : enum</text>
								<text x="0.0" y="45.0" stroke="none" data-name="user">+ age : number</text>
								<text x="0.0" y="61.0" stroke="none" data-name="user">+ password : text</text>
								<text x="0.0" y="77.0" stroke="none" data-name="user">+ salt : text</text>
								<text x="0.0" y="93.0" stroke="none" data-name="user">+ createdAt : date</text>
								<text x="0.0" y="109.0" stroke="none" data-name="user">+ updatedAt : date</text>
								<text x="0.0" y="125.0" stroke="none" data-name="user">+ id : text</text>
								
							</g>
						</g>
					</g>
					<g data-name="person">
						<g fill="white" stroke="#33322E" data-name="person">
							<rect x="0.0" y="216.0" height="144.0" width="138.0" data-name="person"></rect>
							<path d="M0.0 248.0 L138.0 248.0" fill="none" data-name="person"></path>
						</g>
						<g transform="translate(0, 216)" font-family="Helvetica,sans-Serif" font-size="10pt" font-weight="bold" font-style="normal" data-name="person">
							<g transform="translate(8, 8)" fill="#33322E" text-align="center" data-name="person">
								<text x="61.0" y="13.0" stroke="none" text-anchor="middle" data-name="person">person</text>
								
							</g>
						</g>
						<g transform="translate(0, 248)" font-family="Helvetica,sans-Serif" font-size="10pt" font-weight="normal" font-style="normal" data-name="person">
							<g transform="translate(8, 8)" fill="#33322E" text-align="left" data-name="person">
								<text x="0.0" y="13.0" stroke="none" data-name="person">+ name : text</text>
								<text x="0.0" y="29.0" stroke="none" data-name="person">+ sex : enum</text>
								<text x="0.0" y="45.0" stroke="none" data-name="person">+ age : number</text>
								<text x="0.0" y="61.0" stroke="none" data-name="person">+ createdAt : date</text>
								<text x="0.0" y="77.0" stroke="none" data-name="person">+ updatedAt : date</text>
								<text x="0.0" y="93.0" stroke="none" data-name="person">+ id : text</text>
								
							</g>
						</g>
					</g>
					<g data-name="person_query">
						<g fill="white" stroke="#33322E" data-name="person_query">
							<rect x="178.0" y="216.0" height="144.0" width="138.0" data-name="person_query"></rect>
							<path d="M178.0 248.0 L316.0 248.0" fill="none" data-name="person_query"></path>
						</g>
						<g transform="translate(178, 216)" font-family="Helvetica,sans-Serif" font-size="10pt" font-weight="bold" font-style="normal" data-name="person_query">
							<g transform="translate(8, 8)" fill="#33322E" text-align="center" data-name="person_query">
								<text x="61.0" y="13.0" stroke="none" text-anchor="middle" data-name="person_query">person_query</text>
								
							</g>
						</g>
						<g transform="translate(178, 248)" font-family="Helvetica,sans-Serif" font-size="10pt" font-weight="normal" font-style="normal" data-name="person_query">
							<g transform="translate(8, 8)" fill="#33322E" text-align="left" data-name="person_query">
								<text x="0.0" y="13.0" stroke="none" data-name="person_query">+ name : text</text>
								<text x="0.0" y="29.0" stroke="none" data-name="person_query">+ sex : enum</text>
								<text x="0.0" y="45.0" stroke="none" data-name="person_query">+ age : number</text>
								<text x="0.0" y="61.0" stroke="none" data-name="person_query">+ createdAt : date</text>
								<text x="0.0" y="77.0" stroke="none" data-name="person_query">+ updatedAt : date</text>
								<text x="0.0" y="93.0" stroke="none" data-name="person_query">+ id : text</text>
								
							</g>
						</g>
					</g>
					<g data-name="pet_query">
						<g fill="white" stroke="#33322E" data-name="pet_query">
							<rect x="178.0" y="32.0" height="112.0" width="138.0" data-name="pet_query"></rect>
							<path d="M178.0 64.0 L316.0 64.0" fill="none" data-name="pet_query"></path>
						</g>
						<g transform="translate(178, 32)" font-family="Helvetica,sans-Serif" font-size="10pt" font-weight="bold" font-style="normal" data-name="pet_query">
							<g transform="translate(8, 8)" fill="#33322E" text-align="center" data-name="pet_query">
								<text x="61.0" y="13.0" stroke="none" text-anchor="middle" data-name="pet_query">pet_query</text>
								
							</g>
						</g>
						<g transform="translate(178, 64)" font-family="Helvetica,sans-Serif" font-size="10pt" font-weight="normal" font-style="normal" data-name="pet_query">
							<g transform="translate(8, 8)" fill="#33322E" text-align="left" data-name="pet_query">
								<text x="0.0" y="13.0" stroke="none" data-name="pet_query">+ name : text</text>
								<text x="0.0" y="29.0" stroke="none" data-name="pet_query">+ createdAt : date</text>
								<text x="0.0" y="45.0" stroke="none" data-name="pet_query">+ updatedAt : date</text>
								<text x="0.0" y="61.0" stroke="none" data-name="pet_query">+ id : text</text>
								
							</g>
						</g>
					</g>
					<g data-name="ext_acl">
						<g fill="white" stroke="#33322E" data-name="ext_acl">
							<rect x="356.0" y="224.0" height="128.0" width="138.0" data-name="ext_acl"></rect>
							<path d="M356.0 256.0 L494.0 256.0" fill="none" data-name="ext_acl"></path>
						</g>
						<g transform="translate(356, 224)" font-family="Helvetica,sans-Serif" font-size="10pt" font-weight="bold" font-style="normal" data-name="ext_acl">
							<g transform="translate(8, 8)" fill="#33322E" text-align="center" data-name="ext_acl">
								<text x="61.0" y="13.0" stroke="none" text-anchor="middle" data-name="ext_acl">ext_acl</text>
								
							</g>
						</g>
						<g transform="translate(356, 256)" font-family="Helvetica,sans-Serif" font-size="10pt" font-weight="normal" font-style="normal" data-name="ext_acl">
							<g transform="translate(8, 8)" fill="#33322E" text-align="left" data-name="ext_acl">
								<text x="0.0" y="13.0" stroke="none" data-name="ext_acl">+ name : text</text>
								<text x="0.0" y="29.0" stroke="none" data-name="ext_acl">+ age : number</text>
								<text x="0.0" y="45.0" stroke="none" data-name="ext_acl">+ createdAt : date</text>
								<text x="0.0" y="61.0" stroke="none" data-name="ext_acl">+ updatedAt : date</text>
								<text x="0.0" y="77.0" stroke="none" data-name="ext_acl">+ id : text</text>
								
							</g>
						</g>
					</g>
					<g data-name="ext_acl1">
						<g fill="white" stroke="#33322E" data-name="ext_acl1">
							<rect x="534.0" y="224.0" height="128.0" width="138.0" data-name="ext_acl1"></rect>
							<path d="M534.0 256.0 L672.0 256.0" fill="none" data-name="ext_acl1"></path>
						</g>
						<g transform="translate(534, 224)" font-family="Helvetica,sans-Serif" font-size="10pt" font-weight="bold" font-style="normal" data-name="ext_acl1">
							<g transform="translate(8, 8)" fill="#33322E" text-align="center" data-name="ext_acl1">
								<text x="61.0" y="13.0" stroke="none" text-anchor="middle" data-name="ext_acl1">ext_acl1</text>
								
							</g>
						</g>
						<g transform="translate(534, 256)" font-family="Helvetica,sans-Serif" font-size="10pt" font-weight="normal" font-style="normal" data-name="ext_acl1">
							<g transform="translate(8, 8)" fill="#33322E" text-align="left" data-name="ext_acl1">
								<text x="0.0" y="13.0" stroke="none" data-name="ext_acl1">+ name : text</text>
								<text x="0.0" y="29.0" stroke="none" data-name="ext_acl1">+ age : number</text>
								<text x="0.0" y="45.0" stroke="none" data-name="ext_acl1">+ createdAt : date</text>
								<text x="0.0" y="61.0" stroke="none" data-name="ext_acl1">+ updatedAt : date</text>
								<text x="0.0" y="77.0" stroke="none" data-name="ext_acl1">+ id : text</text>
								
							</g>
						</g>
					</g>
					<g data-name="test_acl">
						<g fill="white" stroke="#33322E" data-name="test_acl">
							<rect x="400.0" y="16.0" height="144.0" width="138.0" data-name="test_acl"></rect>
							<path d="M400.0 48.0 L538.0 48.0" fill="none" data-name="test_acl"></path>
						</g>
						<g transform="translate(400, 16)" font-family="Helvetica,sans-Serif" font-size="10pt" font-weight="bold" font-style="normal" data-name="test_acl">
							<g transform="translate(8, 8)" fill="#33322E" text-align="center" data-name="test_acl">
								<text x="61.0" y="13.0" stroke="none" text-anchor="middle" data-name="test_acl">test_acl</text>
								
							</g>
						</g>
						<g transform="translate(400, 48)" font-family="Helvetica,sans-Serif" font-size="10pt" font-weight="normal" font-style="normal" data-name="test_acl">
							<g transform="translate(8, 8)" fill="#33322E" text-align="left" data-name="test_acl">
								<text x="0.0" y="13.0" stroke="none" data-name="test_acl">+ name : text</text>
								<text x="0.0" y="29.0" stroke="none" data-name="test_acl">+ age : number</text>
								<text x="0.0" y="45.0" stroke="none" data-name="test_acl">+ sex : text</text>
								<text x="0.0" y="61.0" stroke="none" data-name="test_acl">+ createdAt : date</text>
								<text x="0.0" y="77.0" stroke="none" data-name="test_acl">+ updatedAt : date</text>
								<text x="0.0" y="93.0" stroke="none" data-name="test_acl">+ id : text</text>
								
							</g>
						</g>
					</g>
					<g data-name="city">
						<g fill="white" stroke="#33322E" data-name="city">
							<rect x="712.0" y="224.0" height="128.0" width="138.0" data-name="city"></rect>
							<path d="M712.0 256.0 L850.0 256.0" fill="none" data-name="city"></path>
						</g>
						<g transform="translate(712, 224)" font-family="Helvetica,sans-Serif" font-size="10pt" font-weight="bold" font-style="normal" data-name="city">
							<g transform="translate(8, 8)" fill="#33322E" text-align="center" data-name="city">
								<text x="61.0" y="13.0" stroke="none" text-anchor="middle" data-name="city">city</text>
								
							</g>
						</g>
						<g transform="translate(712, 256)" font-family="Helvetica,sans-Serif" font-size="10pt" font-weight="normal" font-style="normal" data-name="city">
							<g transform="translate(8, 8)" fill="#33322E" text-align="left" data-name="city">
								<text x="0.0" y="13.0" stroke="none" data-name="city">+ code : text</text>
								<text x="0.0" y="29.0" stroke="none" data-name="city">+ name : text</text>
								<text x="0.0" y="45.0" stroke="none" data-name="city">+ createdAt : date</text>
								<text x="0.0" y="61.0" stroke="none" data-name="city">+ updatedAt : date</text>
								<text x="0.0" y="77.0" stroke="none" data-name="city">+ id : text</text>
								
							</g>
						</g>
					</g>
					<g data-name="people">
						<g fill="white" stroke="#33322E" data-name="people">
							<rect x="712.0" y="16.0" height="144.0" width="138.0" data-name="people"></rect>
							<path d="M712.0 48.0 L850.0 48.0" fill="none" data-name="people"></path>
						</g>
						<g transform="translate(712, 16)" font-family="Helvetica,sans-Serif" font-size="10pt" font-weight="bold" font-style="normal" data-name="people">
							<g transform="translate(8, 8)" fill="#33322E" text-align="center" data-name="people">
								<text x="61.0" y="13.0" stroke="none" text-anchor="middle" data-name="people">people</text>
								
							</g>
						</g>
						<g transform="translate(712, 48)" font-family="Helvetica,sans-Serif" font-size="10pt" font-weight="normal" font-style="normal" data-name="people">
							<g transform="translate(8, 8)" fill="#33322E" text-align="left" data-name="people">
								<text x="0.0" y="13.0" stroke="none" data-name="people">+ name : text</text>
								<text x="0.0" y="29.0" stroke="none" data-name="people">+ sex : enum</text>
								<text x="0.0" y="45.0" stroke="none" data-name="people">+ age : number</text>
								<text x="0.0" y="61.0" stroke="none" data-name="people">+ createdAt : date</text>
								<text x="0.0" y="77.0" stroke="none" data-name="people">+ updatedAt : date</text>
								<text x="0.0" y="93.0" stroke="none" data-name="people">+ id : text</text>
								
							</g>
						</g>
					</g>
					<g data-name="level">
						<g fill="white" stroke="#33322E" data-name="level">
							<rect x="1216.0" y="24.0" height="128.0" width="138.0" data-name="level"></rect>
							<path d="M1216.0 56.0 L1354.0 56.0" fill="none" data-name="level"></path>
						</g>
						<g transform="translate(1216, 24)" font-family="Helvetica,sans-Serif" font-size="10pt" font-weight="bold" font-style="normal" data-name="level">
							<g transform="translate(8, 8)" fill="#33322E" text-align="center" data-name="level">
								<text x="61.0" y="13.0" stroke="none" text-anchor="middle" data-name="level">level</text>
								
							</g>
						</g>
						<g transform="translate(1216, 56)" font-family="Helvetica,sans-Serif" font-size="10pt" font-weight="normal" font-style="normal" data-name="level">
							<g transform="translate(8, 8)" fill="#33322E" text-align="left" data-name="level">
								<text x="0.0" y="13.0" stroke="none" data-name="level">+ name : text</text>
								<text x="0.0" y="29.0" stroke="none" data-name="level">+ level_f : text</text>
								<text x="0.0" y="45.0" stroke="none" data-name="level">+ createdAt : date</text>
								<text x="0.0" y="61.0" stroke="none" data-name="level">+ updatedAt : date</text>
								<text x="0.0" y="77.0" stroke="none" data-name="level">+ id : text</text>
								
							</g>
						</g>
					</g>
					<g data-name="sub_level">
						<g fill="white" stroke="#33322E" data-name="sub_level">
							<rect x="1157.0" y="224.0" height="128.0" width="138.0" data-name="sub_level"></rect>
							<path d="M1157.0 256.0 L1295.0 256.0" fill="none" data-name="sub_level"></path>
						</g>
						<g transform="translate(1157, 224)" font-family="Helvetica,sans-Serif" font-size="10pt" font-weight="bold" font-style="normal" data-name="sub_level">
							<g transform="translate(8, 8)" fill="#33322E" text-align="center" data-name="sub_level">
								<text x="61.0" y="13.0" stroke="none" text-anchor="middle" data-name="sub_level">sub_level</text>
								
							</g>
						</g>
						<g transform="translate(1157, 256)" font-family="Helvetica,sans-Serif" font-size="10pt" font-weight="normal" font-style="normal" data-name="sub_level">
							<g transform="translate(8, 8)" fill="#33322E" text-align="left" data-name="sub_level">
								<text x="0.0" y="13.0" stroke="none" data-name="sub_level">+ name : text</text>
								<text x="0.0" y="29.0" stroke="none" data-name="sub_level">+ sublevel_f : text</text>
								<text x="0.0" y="45.0" stroke="none" data-name="sub_level">+ createdAt : date</text>
								<text x="0.0" y="61.0" stroke="none" data-name="sub_level">+ updatedAt : date</text>
								<text x="0.0" y="77.0" stroke="none" data-name="sub_level">+ id : text</text>
								
							</g>
						</g>
					</g>
					<g data-name="descendant_level">
						<g fill="white" stroke="#33322E" data-name="descendant_level">
							<rect x="1129.0" y="400.0" height="128.0" width="194.0" data-name="descendant_level"></rect>
							<path d="M1129.0 432.0 L1323.0 432.0" fill="none" data-name="descendant_level"></path>
						</g>
						<g transform="translate(1129, 400)" font-family="Helvetica,sans-Serif" font-size="10pt" font-weight="bold" font-style="normal" data-name="descendant_level">
							<g transform="translate(8, 8)" fill="#33322E" text-align="center" data-name="descendant_level">
								<text x="89.0" y="13.0" stroke="none" text-anchor="middle" data-name="descendant_level">descendant_level</text>
								
							</g>
						</g>
						<g transform="translate(1129, 432)" font-family="Helvetica,sans-Serif" font-size="10pt" font-weight="normal" font-style="normal" data-name="descendant_level">
							<g transform="translate(8, 8)" fill="#33322E" text-align="left" data-name="descendant_level">
								<text x="0.0" y="13.0" stroke="none" data-name="descendant_level">+ name : text</text>
								<text x="0.0" y="29.0" stroke="none" data-name="descendant_level">+ descendant_level_f : text</text>
								<text x="0.0" y="45.0" stroke="none" data-name="descendant_level">+ createdAt : date</text>
								<text x="0.0" y="61.0" stroke="none" data-name="descendant_level">+ updatedAt : date</text>
								<text x="0.0" y="77.0" stroke="none" data-name="descendant_level">+ id : text</text>
								
							</g>
						</g>
					</g>
					<g data-name="level_lproperty">
						<g fill="white" stroke="#33322E" data-name="level_lproperty">
							<rect x="1385.0" y="216.0" height="144.0" width="138.0" data-name="level_lproperty"></rect>
							<path d="M1385.0 248.0 L1523.0 248.0" fill="none" data-name="level_lproperty"></path>
						</g>
						<g transform="translate(1385, 216)" font-family="Helvetica,sans-Serif" font-size="10pt" font-weight="bold" font-style="normal" data-name="level_lproperty">
							<g transform="translate(8, 8)" fill="#33322E" text-align="center" data-name="level_lproperty">
								<text x="61.0" y="13.0" stroke="none" text-anchor="middle" data-name="level_lproperty">level_lproperty</text>
								
							</g>
						</g>
						<g transform="translate(1385, 248)" font-family="Helvetica,sans-Serif" font-size="10pt" font-weight="normal" font-style="normal" data-name="level_lproperty">
							<g transform="translate(8, 8)" fill="#33322E" text-align="left" data-name="level_lproperty">
								<text x="0.0" y="13.0" stroke="none" data-name="level_lproperty">+ name : text</text>
								<text x="0.0" y="29.0" stroke="none" data-name="level_lproperty">+ weight : integer</text>
								<text x="0.0" y="45.0" stroke="none" data-name="level_lproperty">+ level_id : text</text>
								<text x="0.0" y="61.0" stroke="none" data-name="level_lproperty">+ createdAt : date</text>
								<text x="0.0" y="77.0" stroke="none" data-name="level_lproperty">+ updatedAt : date</text>
								<text x="0.0" y="93.0" stroke="none" data-name="level_lproperty">+ id : text</text>
								
							</g>
						</g>
					</g>
					<g data-name="pet">
						<g fill="white" stroke="#33322E" data-name="pet">
							<rect x="0.0" y="32.0" height="112.0" width="138.0" data-name="pet"></rect>
							<path d="M0.0 64.0 L138.0 64.0" fill="none" data-name="pet"></path>
						</g>
						<g transform="translate(0, 32)" font-family="Helvetica,sans-Serif" font-size="10pt" font-weight="bold" font-style="normal" data-name="pet">
							<g transform="translate(8, 8)" fill="#33322E" text-align="center" data-name="pet">
								<text x="61.0" y="13.0" stroke="none" text-anchor="middle" data-name="pet">pet</text>
								
							</g>
						</g>
						<g transform="translate(0, 64)" font-family="Helvetica,sans-Serif" font-size="10pt" font-weight="normal" font-style="normal" data-name="pet">
							<g transform="translate(8, 8)" fill="#33322E" text-align="left" data-name="pet">
								<text x="0.0" y="13.0" stroke="none" data-name="pet">+ name : text</text>
								<text x="0.0" y="29.0" stroke="none" data-name="pet">+ createdAt : date</text>
								<text x="0.0" y="45.0" stroke="none" data-name="pet">+ updatedAt : date</text>
								<text x="0.0" y="61.0" stroke="none" data-name="pet">+ id : text</text>
								
							</g>
						</g>
					</g>
					<g data-name="chatroom">
						<g fill="white" stroke="#33322E" data-name="chatroom">
							<rect x="890.0" y="232.0" height="112.0" width="138.0" data-name="chatroom"></rect>
							<path d="M890.0 264.0 L1028.0 264.0" fill="none" data-name="chatroom"></path>
						</g>
						<g transform="translate(890, 232)" font-family="Helvetica,sans-Serif" font-size="10pt" font-weight="bold" font-style="normal" data-name="chatroom">
							<g transform="translate(8, 8)" fill="#33322E" text-align="center" data-name="chatroom">
								<text x="61.0" y="13.0" stroke="none" text-anchor="middle" data-name="chatroom">chatroom</text>
								
							</g>
						</g>
						<g transform="translate(890, 264)" font-family="Helvetica,sans-Serif" font-size="10pt" font-weight="normal" font-style="normal" data-name="chatroom">
							<g transform="translate(8, 8)" fill="#33322E" text-align="left" data-name="chatroom">
								<text x="0.0" y="13.0" stroke="none" data-name="chatroom">+ name : text</text>
								<text x="0.0" y="29.0" stroke="none" data-name="chatroom">+ createdAt : date</text>
								<text x="0.0" y="45.0" stroke="none" data-name="chatroom">+ updatedAt : date</text>
								<text x="0.0" y="61.0" stroke="none" data-name="chatroom">+ id : text</text>
								
							</g>
						</g>
					</g>
					<g data-name="chatmessage">
						<g fill="white" stroke="#33322E" data-name="chatmessage">
							<rect x="945.0" y="408.0" height="112.0" width="138.0" data-name="chatmessage"></rect>
							<path d="M945.0 440.0 L1083.0 440.0" fill="none" data-name="chatmessage"></path>
						</g>
						<g transform="translate(945, 408)" font-family="Helvetica,sans-Serif" font-size="10pt" font-weight="bold" font-style="normal" data-name="chatmessage">
							<g transform="translate(8, 8)" fill="#33322E" text-align="center" data-name="chatmessage">
								<text x="61.0" y="13.0" stroke="none" text-anchor="middle" data-name="chatmessage">chatmessage</text>
								
							</g>
						</g>
						<g transform="translate(945, 440)" font-family="Helvetica,sans-Serif" font-size="10pt" font-weight="normal" font-style="normal" data-name="chatmessage">
							<g transform="translate(8, 8)" fill="#33322E" text-align="left" data-name="chatmessage">
								<text x="0.0" y="13.0" stroke="none" data-name="chatmessage">+ msg : text</text>
								<text x="0.0" y="29.0" stroke="none" data-name="chatmessage">+ createdAt : date</text>
								<text x="0.0" y="45.0" stroke="none" data-name="chatmessage">+ updatedAt : date</text>
								<text x="0.0" y="61.0" stroke="none" data-name="chatmessage">+ id : text</text>
								
							</g>
						</g>
					</g>
					<g data-name="test_fields_type">
						<g fill="white" stroke="#33322E" data-name="test_fields_type">
							<rect x="1444.0" y="0.0" height="176.0" width="138.0" data-name="test_fields_type"></rect>
							<path d="M1444.0 32.0 L1582.0 32.0" fill="none" data-name="test_fields_type"></path>
						</g>
						<g transform="translate(1444, 0)" font-family="Helvetica,sans-Serif" font-size="10pt" font-weight="bold" font-style="normal" data-name="test_fields_type">
							<g transform="translate(8, 8)" fill="#33322E" text-align="center" data-name="test_fields_type">
								<text x="61.0" y="13.0" stroke="none" text-anchor="middle" data-name="test_fields_type">test_fields_type</text>
								
							</g>
						</g>
						<g transform="translate(1444, 32)" font-family="Helvetica,sans-Serif" font-size="10pt" font-weight="normal" font-style="normal" data-name="test_fields_type">
							<g transform="translate(8, 8)" fill="#33322E" text-align="left" data-name="test_fields_type">
								<text x="0.0" y="13.0" stroke="none" data-name="test_fields_type">+ name1 : text</text>
								<text x="0.0" y="29.0" stroke="none" data-name="test_fields_type">+ name2 : text</text>
								<text x="0.0" y="45.0" stroke="none" data-name="test_fields_type">+ profile : object</text>
								<text x="0.0" y="61.0" stroke="none" data-name="test_fields_type">+ binary1 : binary</text>
								<text x="0.0" y="77.0" stroke="none" data-name="test_fields_type">+ binary2 : binary</text>
								<text x="0.0" y="93.0" stroke="none" data-name="test_fields_type">+ createdAt : date</text>
								<text x="0.0" y="109.0" stroke="none" data-name="test_fields_type">+ updatedAt : date</text>
								<text x="0.0" y="125.0" stroke="none" data-name="test_fields_type">+ id : text</text>
								
							</g>
						</g>
					</g>
					<g data-name="json">
						<g fill="white" stroke="#33322E" data-name="json">
							<rect x="1622.0" y="24.0" height="128.0" width="138.0" data-name="json"></rect>
							<path d="M1622.0 56.0 L1760.0 56.0" fill="none" data-name="json"></path>
						</g>
						<g transform="translate(1622, 24)" font-family="Helvetica,sans-Serif" font-size="10pt" font-weight="bold" font-style="normal" data-name="json">
							<g transform="translate(8, 8)" fill="#33322E" text-align="center" data-name="json">
								<text x="61.0" y="13.0" stroke="none" text-anchor="middle" data-name="json">json</text>
								
							</g>
						</g>
						<g transform="translate(1622, 56)" font-family="Helvetica,sans-Serif" font-size="10pt" font-weight="normal" font-style="normal" data-name="json">
							<g transform="translate(8, 8)" fill="#33322E" text-align="left" data-name="json">
								<text x="0.0" y="13.0" stroke="none" data-name="json">+ name : text</text>
								<text x="0.0" y="29.0" stroke="none" data-name="json">+ profile : object</text>
								<text x="0.0" y="45.0" stroke="none" data-name="json">+ createdAt : date</text>
								<text x="0.0" y="61.0" stroke="none" data-name="json">+ updatedAt : date</text>
								<text x="0.0" y="77.0" stroke="none" data-name="json">+ id : text</text>
								
							</g>
						</g>
					</g>
					<g data-name="nographql">
						<g fill="lightgray" stroke="#33322E" data-name="nographql">
							<rect x="1800.0" y="24.0" height="128.0" width="138.0" data-name="nographql"></rect>
							<path d="M1800.0 56.0 L1938.0 56.0" fill="none" data-name="nographql"></path>
						</g>
						<g transform="translate(1800, 24)" font-family="Helvetica,sans-Serif" font-size="10pt" font-weight="normal" font-style="normal" data-name="nographql">
							<g transform="translate(8, 8)" fill="#33322E" text-align="center" data-name="nographql">
								<text x="61.0" y="13.0" stroke="none" text-anchor="middle" data-name="nographql">nographql</text>
								
							</g>
						</g>
						<g transform="translate(1800, 56)" font-family="Helvetica,sans-Serif" font-size="10pt" font-weight="normal" font-style="normal" data-name="nographql">
							<g transform="translate(8, 8)" fill="#33322E" text-align="left" data-name="nographql">
								<text x="0.0" y="13.0" stroke="none" data-name="nographql">+ foo : text</text>
								<text x="0.0" y="29.0" stroke="none" data-name="nographql">+ bin : binary</text>
								<text x="0.0" y="45.0" stroke="none" data-name="nographql">+ createdAt : date</text>
								<text x="0.0" y="61.0" stroke="none" data-name="nographql">+ updatedAt : date</text>
								<text x="0.0" y="77.0" stroke="none" data-name="nographql">+ id : text</text>
								
							</g>
						</g>
					</g>
					<g data-name="hook_test">
						<g fill="white" stroke="#33322E" data-name="hook_test">
							<rect x="1978.0" y="32.0" height="112.0" width="138.0" data-name="hook_test"></rect>
							<path d="M1978.0 64.0 L2116.0 64.0" fill="none" data-name="hook_test"></path>
						</g>
						<g transform="translate(1978, 32)" font-family="Helvetica,sans-Serif" font-size="10pt" font-weight="bold" font-style="normal" data-name="hook_test">
							<g transform="translate(8, 8)" fill="#33322E" text-align="center" data-name="hook_test">
								<text x="61.0" y="13.0" stroke="none" text-anchor="middle" data-name="hook_test">hook_test</text>
								
							</g>
						</g>
						<g transform="translate(1978, 64)" font-family="Helvetica,sans-Serif" font-size="10pt" font-weight="normal" font-style="normal" data-name="hook_test">
							<g transform="translate(8, 8)" fill="#33322E" text-align="left" data-name="hook_test">
								<text x="0.0" y="13.0" stroke="none" data-name="hook_test">+ name : text</text>
								<text x="0.0" y="29.0" stroke="none" data-name="hook_test">+ createdAt : date</text>
								<text x="0.0" y="45.0" stroke="none" data-name="hook_test">+ updatedAt : date</text>
								<text x="0.0" y="61.0" stroke="none" data-name="hook_test">+ id : text</text>
								
							</g>
						</g>
					</g>
				</g>
			</g>
		</g>
	</g>
</svg>