<?xml version="1.0" encoding="UTF-8" standalone="no"?>
<!DOCTYPE svg PUBLIC "-//W3C//DTD SVG 1.1//EN"
 "http://www.w3.org/Graphics/SVG/1.1/DTD/svg11.dtd">
<!-- Generated by graphviz version 2.40.1 (20161225.0304)
 -->
<!-- Title: %0 Pages: 1 -->
<svg width="1239pt" height="407pt"
 viewBox="0.00 0.00 1238.99 407.00" xmlns="http://www.w3.org/2000/svg" xmlns:xlink="http://www.w3.org/1999/xlink">
<g id="graph0" class="graph" transform="scale(1 1) rotate(0) translate(4 403)">
<title>%0</title>
<polygon fill="#ffffff" stroke="transparent" points="-4,4 -4,-403 1234.992,-403 1234.992,4 -4,4"/>
<!-- user -->
<g id="node1" class="node">
<title>user</title>
<g id="a_node1"><a xlink:title="user">
<polygon fill="#ffffff" stroke="#000000" points="39,-274.5 39,-398.5 136.992,-398.5 136.992,-274.5 39,-274.5"/>
<text text-anchor="middle" x="87.996" y="-385.5" font-family="Helvetica,sans-Serif" font-size="10.00" fill="#000000">user</text>
<polyline fill="none" stroke="#000000" points="39,-378.5 136.992,-378.5 "/>
<text text-anchor="start" x="47" y="-365.5" font-family="Helvetica,sans-Serif" font-size="10.00" fill="#000000">+ id : text</text>
<text text-anchor="start" x="47" y="-353.5" font-family="Helvetica,sans-Serif" font-size="10.00" fill="#000000">+ name : text</text>
<text text-anchor="start" x="47" y="-341.5" font-family="Helvetica,sans-Serif" font-size="10.00" fill="#000000">+ sex : enum</text>
<text text-anchor="start" x="47" y="-329.5" font-family="Helvetica,sans-Serif" font-size="10.00" fill="#000000">+ age : number</text>
<text text-anchor="start" x="47" y="-317.5" font-family="Helvetica,sans-Serif" font-size="10.00" fill="#000000">+ password : text</text>
<text text-anchor="start" x="47" y="-305.5" font-family="Helvetica,sans-Serif" font-size="10.00" fill="#000000">+ salt : text</text>
<text text-anchor="start" x="47" y="-293.5" font-family="Helvetica,sans-Serif" font-size="10.00" fill="#000000">+ createdAt : date</text>
<text text-anchor="start" x="47" y="-281.5" font-family="Helvetica,sans-Serif" font-size="10.00" fill="#000000">+ updatedAt : date</text>
</a>
</g>
</g>
<!-- chatroom -->
<g id="node8" class="node">
<title>chatroom</title>
<g id="a_node8"><a xlink:title="chatroom">
<polygon fill="#ffffff" stroke="#000000" points="0,-137.5 0,-213.5 97.992,-213.5 97.992,-137.5 0,-137.5"/>
<text text-anchor="middle" x="48.996" y="-200.5" font-family="Helvetica,sans-Serif" font-size="10.00" fill="#000000">chatroom</text>
<polyline fill="none" stroke="#000000" points="0,-193.5 97.992,-193.5 "/>
<text text-anchor="start" x="8" y="-180.5" font-family="Helvetica,sans-Serif" font-size="10.00" fill="#000000">+ id : text</text>
<text text-anchor="start" x="8" y="-168.5" font-family="Helvetica,sans-Serif" font-size="10.00" fill="#000000">+ name : text</text>
<text text-anchor="start" x="8" y="-156.5" font-family="Helvetica,sans-Serif" font-size="10.00" fill="#000000">+ createdAt : date</text>
<text text-anchor="start" x="8" y="-144.5" font-family="Helvetica,sans-Serif" font-size="10.00" fill="#000000">+ updatedAt : date</text>
</a>
</g>
</g>
<!-- user&#45;&gt;chatroom -->
<g id="edge1" class="edge">
<title>user&#45;&gt;chatroom</title>
<path fill="none" stroke="#000000" stroke-dasharray="5,2" d="M45.1099,-274.323C42.3452,-268.3186 39.9719,-262.1642 38.22,-256 35.2989,-245.7216 35.0515,-234.4744 36.1508,-223.7326"/>
<polygon fill="#000000" stroke="#000000" points="39.6438,-224.0274 37.5741,-213.6367 32.7123,-223.0502 39.6438,-224.0274"/>
<text text-anchor="middle" x="52.884" y="-247" font-family="Helvetica,sans-Serif" font-size="10.00" fill="#000000">rooms</text>
</g>
<!-- person -->
<g id="node2" class="node">
<title>person</title>
<g id="a_node2"><a xlink:title="person">
<polygon fill="#ffffff" stroke="#000000" points="208,-125.5 208,-225.5 305.992,-225.5 305.992,-125.5 208,-125.5"/>
<text text-anchor="middle" x="256.996" y="-212.5" font-family="Helvetica,sans-Serif" font-size="10.00" fill="#000000">person</text>
<polyline fill="none" stroke="#000000" points="208,-205.5 305.992,-205.5 "/>
<text text-anchor="start" x="216" y="-192.5" font-family="Helvetica,sans-Serif" font-size="10.00" fill="#000000">+ id : text</text>
<text text-anchor="start" x="216" y="-180.5" font-family="Helvetica,sans-Serif" font-size="10.00" fill="#000000">+ name : text</text>
<text text-anchor="start" x="216" y="-168.5" font-family="Helvetica,sans-Serif" font-size="10.00" fill="#000000">+ sex : enum</text>
<text text-anchor="start" x="216" y="-156.5" font-family="Helvetica,sans-Serif" font-size="10.00" fill="#000000">+ age : number</text>
<text text-anchor="start" x="216" y="-144.5" font-family="Helvetica,sans-Serif" font-size="10.00" fill="#000000">+ createdAt : date</text>
<text text-anchor="start" x="216" y="-132.5" font-family="Helvetica,sans-Serif" font-size="10.00" fill="#000000">+ updatedAt : date</text>
</a>
</g>
</g>
<!-- ext_acl -->
<g id="node3" class="node">
<title>ext_acl</title>
<g id="a_node3"><a xlink:title="ext_acl">
<polygon fill="#ffffff" stroke="#000000" points="353,-131.5 353,-219.5 450.992,-219.5 450.992,-131.5 353,-131.5"/>
<text text-anchor="middle" x="401.996" y="-206.5" font-family="Helvetica,sans-Serif" font-size="10.00" fill="#000000">ext_acl</text>
<polyline fill="none" stroke="#000000" points="353,-199.5 450.992,-199.5 "/>
<text text-anchor="start" x="361" y="-186.5" font-family="Helvetica,sans-Serif" font-size="10.00" fill="#000000">+ id : text</text>
<text text-anchor="start" x="361" y="-174.5" font-family="Helvetica,sans-Serif" font-size="10.00" fill="#000000">+ name : text</text>
<text text-anchor="start" x="361" y="-162.5" font-family="Helvetica,sans-Serif" font-size="10.00" fill="#000000">+ age : number</text>
<text text-anchor="start" x="361" y="-150.5" font-family="Helvetica,sans-Serif" font-size="10.00" fill="#000000">+ createdAt : date</text>
<text text-anchor="start" x="361" y="-138.5" font-family="Helvetica,sans-Serif" font-size="10.00" fill="#000000">+ updatedAt : date</text>
</a>
</g>
</g>
<!-- ext_acl1 -->
<g id="node4" class="node">
<title>ext_acl1</title>
<g id="a_node4"><a xlink:title="ext_acl1">
<polygon fill="#ffffff" stroke="#000000" points="469,-131.5 469,-219.5 566.992,-219.5 566.992,-131.5 469,-131.5"/>
<text text-anchor="middle" x="517.996" y="-206.5" font-family="Helvetica,sans-Serif" font-size="10.00" fill="#000000">ext_acl1</text>
<polyline fill="none" stroke="#000000" points="469,-199.5 566.992,-199.5 "/>
<text text-anchor="start" x="477" y="-186.5" font-family="Helvetica,sans-Serif" font-size="10.00" fill="#000000">+ id : text</text>
<text text-anchor="start" x="477" y="-174.5" font-family="Helvetica,sans-Serif" font-size="10.00" fill="#000000">+ name : text</text>
<text text-anchor="start" x="477" y="-162.5" font-family="Helvetica,sans-Serif" font-size="10.00" fill="#000000">+ age : number</text>
<text text-anchor="start" x="477" y="-150.5" font-family="Helvetica,sans-Serif" font-size="10.00" fill="#000000">+ createdAt : date</text>
<text text-anchor="start" x="477" y="-138.5" font-family="Helvetica,sans-Serif" font-size="10.00" fill="#000000">+ updatedAt : date</text>
</a>
</g>
</g>
<!-- test_acl -->
<g id="node5" class="node">
<title>test_acl</title>
<g id="a_node5"><a xlink:title="test_acl">
<polygon fill="#ffffff" stroke="#000000" points="382,-286.5 382,-386.5 479.992,-386.5 479.992,-286.5 382,-286.5"/>
<text text-anchor="middle" x="430.996" y="-373.5" font-family="Helvetica,sans-Serif" font-size="10.00" fill="#000000">test_acl</text>
<polyline fill="none" stroke="#000000" points="382,-366.5 479.992,-366.5 "/>
<text text-anchor="start" x="390" y="-353.5" font-family="Helvetica,sans-Serif" font-size="10.00" fill="#000000">+ id : text</text>
<text text-anchor="start" x="390" y="-341.5" font-family="Helvetica,sans-Serif" font-size="10.00" fill="#000000">+ name : text</text>
<text text-anchor="start" x="390" y="-329.5" font-family="Helvetica,sans-Serif" font-size="10.00" fill="#000000">+ age : number</text>
<text text-anchor="start" x="390" y="-317.5" font-family="Helvetica,sans-Serif" font-size="10.00" fill="#000000">+ sex : text</text>
<text text-anchor="start" x="390" y="-305.5" font-family="Helvetica,sans-Serif" font-size="10.00" fill="#000000">+ createdAt : date</text>
<text text-anchor="start" x="390" y="-293.5" font-family="Helvetica,sans-Serif" font-size="10.00" fill="#000000">+ updatedAt : date</text>
</a>
</g>
</g>
<!-- test_acl&#45;&gt;ext_acl -->
<g id="edge2" class="edge">
<title>test_acl&#45;&gt;ext_acl</title>
<path fill="none" stroke="#000000" stroke-dasharray="5,2" d="M421.9792,-286.4411C418.7245,-268.3718 415.0375,-247.9026 411.7245,-229.51"/>
<polygon fill="#000000" stroke="#000000" points="415.1449,-228.755 409.9276,-219.5339 408.2558,-229.996 415.1449,-228.755"/>
<text text-anchor="middle" x="423.665" y="-247" font-family="Helvetica,sans-Serif" font-size="10.00" fill="#000000">ext</text>
</g>
<!-- test_acl&#45;&gt;ext_acl1 -->
<g id="edge3" class="edge">
<title>test_acl&#45;&gt;ext_acl1</title>
<path fill="none" stroke="#000000" stroke-dasharray="5,2" d="M458.0464,-286.4411C467.9915,-268.0371 479.2817,-247.1437 489.3615,-228.4903"/>
<polygon fill="none" stroke="#000000" points="492.5264,-229.9955 494.2013,-219.5339 486.368,-226.6676 492.5264,-229.9955"/>
<text text-anchor="middle" x="489.4445" y="-247" font-family="Helvetica,sans-Serif" font-size="10.00" fill="#000000">ext1</text>
</g>
<!-- people -->
<g id="node6" class="node">
<title>people</title>
<g id="a_node6"><a xlink:title="people">
<polygon fill="#ffffff" stroke="#000000" points="498,-286.5 498,-386.5 595.992,-386.5 595.992,-286.5 498,-286.5"/>
<text text-anchor="middle" x="546.996" y="-373.5" font-family="Helvetica,sans-Serif" font-size="10.00" fill="#000000">people</text>
<polyline fill="none" stroke="#000000" points="498,-366.5 595.992,-366.5 "/>
<text text-anchor="start" x="506" y="-353.5" font-family="Helvetica,sans-Serif" font-size="10.00" fill="#000000">+ id : text</text>
<text text-anchor="start" x="506" y="-341.5" font-family="Helvetica,sans-Serif" font-size="10.00" fill="#000000">+ name : text</text>
<text text-anchor="start" x="506" y="-329.5" font-family="Helvetica,sans-Serif" font-size="10.00" fill="#000000">+ sex : enum</text>
<text text-anchor="start" x="506" y="-317.5" font-family="Helvetica,sans-Serif" font-size="10.00" fill="#000000">+ age : number</text>
<text text-anchor="start" x="506" y="-305.5" font-family="Helvetica,sans-Serif" font-size="10.00" fill="#000000">+ createdAt : date</text>
<text text-anchor="start" x="506" y="-293.5" font-family="Helvetica,sans-Serif" font-size="10.00" fill="#000000">+ updatedAt : date</text>
</a>
</g>
</g>
<!-- people&#45;&gt;people -->
<g id="edge4" class="edge">
<title>people&#45;&gt;people</title>
<path fill="none" stroke="#000000" stroke-dasharray="5,2" d="M596.0735,-339.1007C606.4783,-338.8366 613.992,-337.9697 613.992,-336.5 613.992,-335.5814 611.0569,-334.8983 606.3154,-334.4507"/>
<polygon fill="none" stroke="#000000" points="606.2472,-330.942 596.0735,-333.8993 605.8708,-337.9319 606.2472,-330.942"/>
<text text-anchor="middle" x="629.549" y="-333.5" font-family="Helvetica,sans-Serif" font-size="10.00" fill="#000000">mother</text>
</g>
<!-- people&#45;&gt;people -->
<g id="edge5" class="edge">
<title>people&#45;&gt;people</title>
<path fill="none" stroke="#000000" stroke-dasharray="5,2" d="M596.1219,-341.7303C621.468,-342.4147 645.106,-340.6712 645.106,-336.5 645.106,-332.8991 627.4897,-331.1074 606.3659,-331.1251"/>
<polygon fill="none" stroke="#000000" points="606.0715,-327.6288 596.1219,-331.2697 606.1703,-334.6281 606.0715,-327.6288"/>
<text text-anchor="middle" x="657.888" y="-333.5" font-family="Helvetica,sans-Serif" font-size="10.00" fill="#000000">father</text>
</g>
<!-- people&#45;&gt;people -->
<g id="edge6" class="edge">
<title>people&#45;&gt;people</title>
<path fill="none" stroke="#000000" stroke-dasharray="5,2" d="M596.0381,-343.7751C632.1936,-345.9797 670.67,-343.5547 670.67,-336.5 670.67,-330.1067 639.0698,-327.5157 606.2344,-328.7269"/>
<polygon fill="none" stroke="#000000" points="605.8554,-325.2411 596.0381,-329.2249 606.1969,-332.2328 605.8554,-325.2411"/>
<text text-anchor="middle" x="689.847" y="-333.5" font-family="Helvetica,sans-Serif" font-size="10.00" fill="#000000">husband</text>
</g>
<!-- people&#45;&gt;people -->
<g id="edge7" class="edge">
<title>people&#45;&gt;people</title>
<path fill="none" stroke="#000000" stroke-dasharray="5,2" d="M596.2273,-345.229C646.4969,-349.6837 709.024,-346.7741 709.024,-336.5 709.024,-326.9082 654.5255,-323.7352 606.3822,-326.981"/>
<polygon fill="none" stroke="#000000" points="605.9257,-323.5058 596.2273,-327.771 606.4687,-330.4847 605.9257,-323.5058"/>
<text text-anchor="middle" x="717.912" y="-333.5" font-family="Helvetica,sans-Serif" font-size="10.00" fill="#000000">wife</text>
</g>
<!-- people&#45;&gt;people -->
<g id="edge8" class="edge">
<title>people&#45;&gt;people</title>
<path fill="none" stroke="#000000" stroke-dasharray="5,2" d="M596.0144,-346.7338C652.9905,-353.2438 727.024,-349.8325 727.024,-336.5 727.024,-323.9487 661.4121,-320.19 606.1871,-325.2241"/>
<polygon fill="#000000" stroke="#000000" points="605.6056,-321.7653 596.0144,-326.2662 606.319,-328.7288 605.6056,-321.7653"/>
<text text-anchor="middle" x="748.701" y="-333.5" font-family="Helvetica,sans-Serif" font-size="10.00" fill="#000000">husbands</text>
</g>
<!-- people&#45;&gt;people -->
<g id="edge9" class="edge">
<title>people&#45;&gt;people</title>
<path fill="none" stroke="#000000" stroke-dasharray="5,2" d="M596.1442,-347.6287C666.7589,-356.9434 770.378,-353.2339 770.378,-336.5 770.378,-320.5505 676.2455,-316.4329 606.2779,-324.1473"/>
<polygon fill="#000000" stroke="#000000" points="605.6523,-320.6973 596.1442,-325.3713 606.4918,-327.6468 605.6523,-320.6973"/>
<text text-anchor="middle" x="783.156" y="-333.5" font-family="Helvetica,sans-Serif" font-size="10.00" fill="#000000">childs</text>
</g>
<!-- pet -->
<g id="node7" class="node">
<title>pet</title>
<g id="a_node7"><a xlink:title="pet">
<polygon fill="#ffffff" stroke="#000000" points="208,-298.5 208,-374.5 305.992,-374.5 305.992,-298.5 208,-298.5"/>
<text text-anchor="middle" x="256.996" y="-361.5" font-family="Helvetica,sans-Serif" font-size="10.00" fill="#000000">pet</text>
<polyline fill="none" stroke="#000000" points="208,-354.5 305.992,-354.5 "/>
<text text-anchor="start" x="216" y="-341.5" font-family="Helvetica,sans-Serif" font-size="10.00" fill="#000000">+ id : text</text>
<text text-anchor="start" x="216" y="-329.5" font-family="Helvetica,sans-Serif" font-size="10.00" fill="#000000">+ name : text</text>
<text text-anchor="start" x="216" y="-317.5" font-family="Helvetica,sans-Serif" font-size="10.00" fill="#000000">+ createdAt : date</text>
<text text-anchor="start" x="216" y="-305.5" font-family="Helvetica,sans-Serif" font-size="10.00" fill="#000000">+ updatedAt : date</text>
</a>
</g>
</g>
<!-- pet&#45;&gt;person -->
<g id="edge10" class="edge">
<title>pet&#45;&gt;person</title>
<path fill="none" stroke="#000000" stroke-dasharray="5,2" d="M256.996,-298.3452C256.996,-279.6459 256.996,-256.6851 256.996,-235.6948"/>
<polygon fill="none" stroke="#000000" points="260.4961,-235.576 256.996,-225.5761 253.4961,-235.5761 260.4961,-235.576"/>
<text text-anchor="middle" x="279.5025" y="-247" font-family="Helvetica,sans-Serif" font-size="10.00" fill="#000000">createdBy</text>
</g>
<!-- chatroom&#45;&gt;user -->
<g id="edge12" class="edge">
<title>chatroom&#45;&gt;user</title>
<path fill="none" stroke="#000000" stroke-dasharray="5,2" d="M58.5037,-213.528C60.9633,-223.4426 63.5945,-234.1175 65.996,-244 67.5935,-250.574 69.2433,-257.4138 70.8878,-264.266"/>
<polygon fill="#000000" stroke="#000000" points="67.5542,-265.3743 73.2867,-274.2844 74.3618,-263.7442 67.5542,-265.3743"/>
<text text-anchor="middle" x="89.828" y="-247" font-family="Helvetica,sans-Serif" font-size="10.00" fill="#000000">mambers</text>
</g>
<!-- chatmessage -->
<g id="node9" class="node">
<title>chatmessage</title>
<g id="a_node9"><a xlink:title="chatmessage">
<polygon fill="#ffffff" stroke="#000000" points="58,-.5 58,-76.5 155.992,-76.5 155.992,-.5 58,-.5"/>
<text text-anchor="middle" x="106.996" y="-63.5" font-family="Helvetica,sans-Serif" font-size="10.00" fill="#000000">chatmessage</text>
<polyline fill="none" stroke="#000000" points="58,-56.5 155.992,-56.5 "/>
<text text-anchor="start" x="66" y="-43.5" font-family="Helvetica,sans-Serif" font-size="10.00" fill="#000000">+ id : text</text>
<text text-anchor="start" x="66" y="-31.5" font-family="Helvetica,sans-Serif" font-size="10.00" fill="#000000">+ msg : text</text>
<text text-anchor="start" x="66" y="-19.5" font-family="Helvetica,sans-Serif" font-size="10.00" fill="#000000">+ createdAt : date</text>
<text text-anchor="start" x="66" y="-7.5" font-family="Helvetica,sans-Serif" font-size="10.00" fill="#000000">+ updatedAt : date</text>
</a>
</g>
</g>
<!-- chatroom&#45;&gt;chatmessage -->
<g id="edge11" class="edge">
<title>chatroom&#45;&gt;chatmessage</title>
<path fill="none" stroke="#000000" stroke-dasharray="5,2" d="M36.1781,-137.274C33.6371,-123.4267 33.3531,-108.0054 39.431,-95 42.3453,-88.7641 46.3238,-82.9742 50.9021,-77.6664"/>
<polygon fill="#000000" stroke="#000000" points="53.6168,-79.8913 57.9851,-70.2389 48.5509,-75.0604 53.6168,-79.8913"/>
<text text-anchor="middle" x="62.7785" y="-98" font-family="Helvetica,sans-Serif" font-size="10.00" fill="#000000">messages</text>
</g>
<!-- chatmessage&#45;&gt;user -->
<g id="edge13" class="edge">
<title>chatmessage&#45;&gt;user</title>
<path fill="none" stroke="#000000" stroke-dasharray="5,2" d="M114.6861,-76.6736C115.6461,-82.7793 116.4732,-89.046 116.996,-95 123.2559,-166.2868 126.9983,-185.4526 114.996,-256 114.5367,-258.6998 114.0018,-261.4317 113.4048,-264.1768"/>
<polygon fill="none" stroke="#000000" points="109.944,-263.598 110.9953,-274.1406 116.7478,-265.2435 109.944,-263.598"/>
<text text-anchor="middle" x="145.5025" y="-172.5" font-family="Helvetica,sans-Serif" font-size="10.00" fill="#000000">createdBy</text>
</g>
<!-- chatmessage&#45;&gt;chatroom -->
<g id="edge14" class="edge">
<title>chatmessage&#45;&gt;chatroom</title>
<path fill="none" stroke="#000000" stroke-dasharray="5,2" d="M96.0457,-76.6124C92.8202,-86.6243 89.0559,-97.3252 84.996,-107 82.1011,-113.8986 78.7621,-121.0373 75.3093,-127.9852"/>
<polygon fill="none" stroke="#000000" points="71.9841,-126.8019 70.5614,-137.3008 78.2207,-129.9806 71.9841,-126.8019"/>
<text text-anchor="middle" x="101.384" y="-98" font-family="Helvetica,sans-Serif" font-size="10.00" fill="#000000">room</text>
</g>
<!-- test_fields_type -->
<g id="node10" class="node">
<title>test_fields_type</title>
<g id="a_node10"><a xlink:title="test_fields_type">
<polygon fill="#ffffff" stroke="#000000" points="901,-274.5 901,-398.5 998.992,-398.5 998.992,-274.5 901,-274.5"/>
<text text-anchor="middle" x="949.996" y="-385.5" font-family="Helvetica,sans-Serif" font-size="10.00" fill="#000000">test_fields_type</text>
<polyline fill="none" stroke="#000000" points="901,-378.5 998.992,-378.5 "/>
<text text-anchor="start" x="909" y="-365.5" font-family="Helvetica,sans-Serif" font-size="10.00" fill="#000000">+ id : text</text>
<text text-anchor="start" x="909" y="-353.5" font-family="Helvetica,sans-Serif" font-size="10.00" fill="#000000">+ name1 : text</text>
<text text-anchor="start" x="909" y="-341.5" font-family="Helvetica,sans-Serif" font-size="10.00" fill="#000000">+ name2 : text</text>
<text text-anchor="start" x="909" y="-329.5" font-family="Helvetica,sans-Serif" font-size="10.00" fill="#000000">+ profile : object</text>
<text text-anchor="start" x="909" y="-317.5" font-family="Helvetica,sans-Serif" font-size="10.00" fill="#000000">+ binary1 : binary</text>
<text text-anchor="start" x="909" y="-305.5" font-family="Helvetica,sans-Serif" font-size="10.00" fill="#000000">+ binary2 : binary</text>
<text text-anchor="start" x="909" y="-293.5" font-family="Helvetica,sans-Serif" font-size="10.00" fill="#000000">+ createdAt : date</text>
<text text-anchor="start" x="909" y="-281.5" font-family="Helvetica,sans-Serif" font-size="10.00" fill="#000000">+ updatedAt : date</text>
</a>
</g>
</g>
<!-- json -->
<g id="node11" class="node">
<title>json</title>
<g id="a_node11"><a xlink:title="json">
<polygon fill="#ffffff" stroke="#000000" points="1017,-292.5 1017,-380.5 1114.992,-380.5 1114.992,-292.5 1017,-292.5"/>
<text text-anchor="middle" x="1065.996" y="-367.5" font-family="Helvetica,sans-Serif" font-size="10.00" fill="#000000">json</text>
<polyline fill="none" stroke="#000000" points="1017,-360.5 1114.992,-360.5 "/>
<text text-anchor="start" x="1025" y="-347.5" font-family="Helvetica,sans-Serif" font-size="10.00" fill="#000000">+ id : text</text>
<text text-anchor="start" x="1025" y="-335.5" font-family="Helvetica,sans-Serif" font-size="10.00" fill="#000000">+ name : text</text>
<text text-anchor="start" x="1025" y="-323.5" font-family="Helvetica,sans-Serif" font-size="10.00" fill="#000000">+ profile : object</text>
<text text-anchor="start" x="1025" y="-311.5" font-family="Helvetica,sans-Serif" font-size="10.00" fill="#000000">+ createdAt : date</text>
<text text-anchor="start" x="1025" y="-299.5" font-family="Helvetica,sans-Serif" font-size="10.00" fill="#000000">+ updatedAt : date</text>
</a>
</g>
</g>
<!-- nographql -->
<g id="node12" class="node">
<title>nographql</title>
<g id="a_node12"><a xlink:title="nographql">
<polygon fill="#d3d3d3" stroke="#000000" points="1133,-292.5 1133,-380.5 1230.992,-380.5 1230.992,-292.5 1133,-292.5"/>
<text text-anchor="middle" x="1181.996" y="-367.5" font-family="Helvetica,sans-Serif" font-size="10.00" fill="#000000">nographql</text>
<polyline fill="none" stroke="#000000" points="1133,-360.5 1230.992,-360.5 "/>
<text text-anchor="start" x="1141" y="-347.5" font-family="Helvetica,sans-Serif" font-size="10.00" fill="#000000">+ id : text</text>
<text text-anchor="start" x="1141" y="-335.5" font-family="Helvetica,sans-Serif" font-size="10.00" fill="#000000">+ foo : text</text>
<text text-anchor="start" x="1141" y="-323.5" font-family="Helvetica,sans-Serif" font-size="10.00" fill="#000000">+ bin : binary</text>
<text text-anchor="start" x="1141" y="-311.5" font-family="Helvetica,sans-Serif" font-size="10.00" fill="#000000">+ createdAt : date</text>
<text text-anchor="start" x="1141" y="-299.5" font-family="Helvetica,sans-Serif" font-size="10.00" fill="#000000">+ updatedAt : date</text>
</a>
</g>
</g>
</g>
</svg>
