<?xml version="1.0" encoding="UTF-8" standalone="no"?>
<!DOCTYPE svg PUBLIC "-//W3C//DTD SVG 1.1//EN"
 "http://www.w3.org/Graphics/SVG/1.1/DTD/svg11.dtd">
<!-- Generated by graphviz version 2.40.1 (20161225.0304)
 -->
<!-- Title: %0 Pages: 1 -->
<svg width="1837pt" height="407pt"
 viewBox="0.00 0.00 1836.99 407.00" xmlns="http://www.w3.org/2000/svg" xmlns:xlink="http://www.w3.org/1999/xlink">
<g id="graph0" class="graph" transform="scale(1 1) rotate(0) translate(4 403)">
<title>%0</title>
<polygon fill="#ffffff" stroke="transparent" points="-4,4 -4,-403 1832.992,-403 1832.992,4 -4,4"/>
<!-- user -->
<g id="node1" class="node">
<title>user</title>
<g id="a_node1"><a xlink:title="user">
<polygon fill="#ffffff" stroke="#000000" points="39,-274.5 39,-398.5 136.992,-398.5 136.992,-274.5 39,-274.5"/>
<text text-anchor="middle" x="87.996" y="-385.5" font-family="Helvetica,sans-Serif" font-size="10.00" fill="#000000">user</text>
<polyline fill="none" stroke="#000000" points="39,-378.5 136.992,-378.5 "/>
<text text-anchor="start" x="47" y="-365.5" font-family="Helvetica,sans-Serif" font-size="10.00" fill="#000000">+ name : text</text>
<text text-anchor="start" x="47" y="-353.5" font-family="Helvetica,sans-Serif" font-size="10.00" fill="#000000">+ sex : enum</text>
<text text-anchor="start" x="47" y="-341.5" font-family="Helvetica,sans-Serif" font-size="10.00" fill="#000000">+ age : number</text>
<text text-anchor="start" x="47" y="-329.5" font-family="Helvetica,sans-Serif" font-size="10.00" fill="#000000">+ password : text</text>
<text text-anchor="start" x="47" y="-317.5" font-family="Helvetica,sans-Serif" font-size="10.00" fill="#000000">+ salt : text</text>
<text text-anchor="start" x="47" y="-305.5" font-family="Helvetica,sans-Serif" font-size="10.00" fill="#000000">+ createdAt : date</text>
<text text-anchor="start" x="47" y="-293.5" font-family="Helvetica,sans-Serif" font-size="10.00" fill="#000000">+ updatedAt : date</text>
<text text-anchor="start" x="47" y="-281.5" font-family="Helvetica,sans-Serif" font-size="10.00" fill="#000000">+ id : text</text>
</a>
</g>
</g>
<!-- chatroom -->
<g id="node12" class="node">
<title>chatroom</title>
<g id="a_node12"><a xlink:title="chatroom">
<polygon fill="#ffffff" stroke="#000000" points="0,-137.5 0,-213.5 97.992,-213.5 97.992,-137.5 0,-137.5"/>
<text text-anchor="middle" x="48.996" y="-200.5" font-family="Helvetica,sans-Serif" font-size="10.00" fill="#000000">chatroom</text>
<polyline fill="none" stroke="#000000" points="0,-193.5 97.992,-193.5 "/>
<text text-anchor="start" x="8" y="-180.5" font-family="Helvetica,sans-Serif" font-size="10.00" fill="#000000">+ name : text</text>
<text text-anchor="start" x="8" y="-168.5" font-family="Helvetica,sans-Serif" font-size="10.00" fill="#000000">+ createdAt : date</text>
<text text-anchor="start" x="8" y="-156.5" font-family="Helvetica,sans-Serif" font-size="10.00" fill="#000000">+ updatedAt : date</text>
<text text-anchor="start" x="8" y="-144.5" font-family="Helvetica,sans-Serif" font-size="10.00" fill="#000000">+ id : text</text>
</a>
</g>
</g>
<!-- user&#45;&gt;chatroom -->
<g id="edge1" class="edge">
<title>user&#45;&gt;chatroom</title>
<path fill="none" stroke="#000000" stroke-dasharray="5,2" d="M45.1099,-274.323C42.3452,-268.3186 39.9719,-262.1642 38.22,-256 35.2989,-245.7216 35.0515,-234.4744 36.1508,-223.7326"/>
<polygon fill="#000000" stroke="#000000" points="39.6438,-224.0274 37.5741,-213.6367 32.7123,-223.0502 39.6438,-224.0274"/>
<text text-anchor="middle" x="52.884" y="-247" font-family="Helvetica,sans-Serif" font-size="10.00" fill="#000000">rooms</text>
</g>
<!-- person -->
<g id="node2" class="node">
<title>person</title>
<g id="a_node2"><a xlink:title="person">
<polygon fill="#ffffff" stroke="#000000" points="208,-125.5 208,-225.5 305.992,-225.5 305.992,-125.5 208,-125.5"/>
<text text-anchor="middle" x="256.996" y="-212.5" font-family="Helvetica,sans-Serif" font-size="10.00" fill="#000000">person</text>
<polyline fill="none" stroke="#000000" points="208,-205.5 305.992,-205.5 "/>
<text text-anchor="start" x="216" y="-192.5" font-family="Helvetica,sans-Serif" font-size="10.00" fill="#000000">+ name : text</text>
<text text-anchor="start" x="216" y="-180.5" font-family="Helvetica,sans-Serif" font-size="10.00" fill="#000000">+ sex : enum</text>
<text text-anchor="start" x="216" y="-168.5" font-family="Helvetica,sans-Serif" font-size="10.00" fill="#000000">+ age : number</text>
<text text-anchor="start" x="216" y="-156.5" font-family="Helvetica,sans-Serif" font-size="10.00" fill="#000000">+ createdAt : date</text>
<text text-anchor="start" x="216" y="-144.5" font-family="Helvetica,sans-Serif" font-size="10.00" fill="#000000">+ updatedAt : date</text>
<text text-anchor="start" x="216" y="-132.5" font-family="Helvetica,sans-Serif" font-size="10.00" fill="#000000">+ id : text</text>
</a>
</g>
</g>
<!-- ext_acl -->
<g id="node3" class="node">
<title>ext_acl</title>
<g id="a_node3"><a xlink:title="ext_acl">
<polygon fill="#ffffff" stroke="#000000" points="324,-131.5 324,-219.5 421.992,-219.5 421.992,-131.5 324,-131.5"/>
<text text-anchor="middle" x="372.996" y="-206.5" font-family="Helvetica,sans-Serif" font-size="10.00" fill="#000000">ext_acl</text>
<polyline fill="none" stroke="#000000" points="324,-199.5 421.992,-199.5 "/>
<text text-anchor="start" x="332" y="-186.5" font-family="Helvetica,sans-Serif" font-size="10.00" fill="#000000">+ name : text</text>
<text text-anchor="start" x="332" y="-174.5" font-family="Helvetica,sans-Serif" font-size="10.00" fill="#000000">+ age : number</text>
<text text-anchor="start" x="332" y="-162.5" font-family="Helvetica,sans-Serif" font-size="10.00" fill="#000000">+ createdAt : date</text>
<text text-anchor="start" x="332" y="-150.5" font-family="Helvetica,sans-Serif" font-size="10.00" fill="#000000">+ updatedAt : date</text>
<text text-anchor="start" x="332" y="-138.5" font-family="Helvetica,sans-Serif" font-size="10.00" fill="#000000">+ id : text</text>
</a>
</g>
</g>
<!-- ext_acl1 -->
<g id="node4" class="node">
<title>ext_acl1</title>
<g id="a_node4"><a xlink:title="ext_acl1">
<polygon fill="#ffffff" stroke="#000000" points="440,-131.5 440,-219.5 537.992,-219.5 537.992,-131.5 440,-131.5"/>
<text text-anchor="middle" x="488.996" y="-206.5" font-family="Helvetica,sans-Serif" font-size="10.00" fill="#000000">ext_acl1</text>
<polyline fill="none" stroke="#000000" points="440,-199.5 537.992,-199.5 "/>
<text text-anchor="start" x="448" y="-186.5" font-family="Helvetica,sans-Serif" font-size="10.00" fill="#000000">+ name : text</text>
<text text-anchor="start" x="448" y="-174.5" font-family="Helvetica,sans-Serif" font-size="10.00" fill="#000000">+ age : number</text>
<text text-anchor="start" x="448" y="-162.5" font-family="Helvetica,sans-Serif" font-size="10.00" fill="#000000">+ createdAt : date</text>
<text text-anchor="start" x="448" y="-150.5" font-family="Helvetica,sans-Serif" font-size="10.00" fill="#000000">+ updatedAt : date</text>
<text text-anchor="start" x="448" y="-138.5" font-family="Helvetica,sans-Serif" font-size="10.00" fill="#000000">+ id : text</text>
</a>
</g>
</g>
<!-- test_acl -->
<g id="node5" class="node">
<title>test_acl</title>
<g id="a_node5"><a xlink:title="test_acl">
<polygon fill="#ffffff" stroke="#000000" points="382,-286.5 382,-386.5 479.992,-386.5 479.992,-286.5 382,-286.5"/>
<text text-anchor="middle" x="430.996" y="-373.5" font-family="Helvetica,sans-Serif" font-size="10.00" fill="#000000">test_acl</text>
<polyline fill="none" stroke="#000000" points="382,-366.5 479.992,-366.5 "/>
<text text-anchor="start" x="390" y="-353.5" font-family="Helvetica,sans-Serif" font-size="10.00" fill="#000000">+ name : text</text>
<text text-anchor="start" x="390" y="-341.5" font-family="Helvetica,sans-Serif" font-size="10.00" fill="#000000">+ age : number</text>
<text text-anchor="start" x="390" y="-329.5" font-family="Helvetica,sans-Serif" font-size="10.00" fill="#000000">+ sex : text</text>
<text text-anchor="start" x="390" y="-317.5" font-family="Helvetica,sans-Serif" font-size="10.00" fill="#000000">+ createdAt : date</text>
<text text-anchor="start" x="390" y="-305.5" font-family="Helvetica,sans-Serif" font-size="10.00" fill="#000000">+ updatedAt : date</text>
<text text-anchor="start" x="390" y="-293.5" font-family="Helvetica,sans-Serif" font-size="10.00" fill="#000000">+ id : text</text>
</a>
</g>
</g>
<!-- test_acl&#45;&gt;ext_acl -->
<g id="edge2" class="edge">
<title>test_acl&#45;&gt;ext_acl</title>
<path fill="none" stroke="#000000" stroke-dasharray="5,2" d="M412.9624,-286.4411C406.3926,-268.2044 398.9423,-247.5234 392.2691,-228.9996"/>
<polygon fill="#000000" stroke="#000000" points="395.5413,-227.7557 388.8591,-219.5339 388.9556,-230.1283 395.5413,-227.7557"/>
<text text-anchor="middle" x="408.665" y="-247" font-family="Helvetica,sans-Serif" font-size="10.00" fill="#000000">ext</text>
</g>
<!-- test_acl&#45;&gt;ext_acl1 -->
<g id="edge3" class="edge">
<title>test_acl&#45;&gt;ext_acl1</title>
<path fill="none" stroke="#000000" stroke-dasharray="5,2" d="M449.0296,-286.4411C455.5994,-268.2044 463.0497,-247.5234 469.7229,-228.9996"/>
<polygon fill="none" stroke="#000000" points="473.0364,-230.1283 473.1329,-219.5339 466.4507,-227.7557 473.0364,-230.1283"/>
<text text-anchor="middle" x="473.4445" y="-247" font-family="Helvetica,sans-Serif" font-size="10.00" fill="#000000">ext1</text>
</g>
<!-- city -->
<g id="node6" class="node">
<title>city</title>
<g id="a_node6"><a xlink:title="city">
<polygon fill="#ffffff" stroke="#000000" points="556,-131.5 556,-219.5 653.992,-219.5 653.992,-131.5 556,-131.5"/>
<text text-anchor="middle" x="604.996" y="-206.5" font-family="Helvetica,sans-Serif" font-size="10.00" fill="#000000">city</text>
<polyline fill="none" stroke="#000000" points="556,-199.5 653.992,-199.5 "/>
<text text-anchor="start" x="564" y="-186.5" font-family="Helvetica,sans-Serif" font-size="10.00" fill="#000000">+ code : text</text>
<text text-anchor="start" x="564" y="-174.5" font-family="Helvetica,sans-Serif" font-size="10.00" fill="#000000">+ name : text</text>
<text text-anchor="start" x="564" y="-162.5" font-family="Helvetica,sans-Serif" font-size="10.00" fill="#000000">+ createdAt : date</text>
<text text-anchor="start" x="564" y="-150.5" font-family="Helvetica,sans-Serif" font-size="10.00" fill="#000000">+ updatedAt : date</text>
<text text-anchor="start" x="564" y="-138.5" font-family="Helvetica,sans-Serif" font-size="10.00" fill="#000000">+ id : text</text>
</a>
</g>
</g>
<!-- people -->
<g id="node7" class="node">
<title>people</title>
<g id="a_node7"><a xlink:title="people">
<polygon fill="#ffffff" stroke="#000000" points="556,-286.5 556,-386.5 653.992,-386.5 653.992,-286.5 556,-286.5"/>
<text text-anchor="middle" x="604.996" y="-373.5" font-family="Helvetica,sans-Serif" font-size="10.00" fill="#000000">people</text>
<polyline fill="none" stroke="#000000" points="556,-366.5 653.992,-366.5 "/>
<text text-anchor="start" x="564" y="-353.5" font-family="Helvetica,sans-Serif" font-size="10.00" fill="#000000">+ name : text</text>
<text text-anchor="start" x="564" y="-341.5" font-family="Helvetica,sans-Serif" font-size="10.00" fill="#000000">+ sex : enum</text>
<text text-anchor="start" x="564" y="-329.5" font-family="Helvetica,sans-Serif" font-size="10.00" fill="#000000">+ age : number</text>
<text text-anchor="start" x="564" y="-317.5" font-family="Helvetica,sans-Serif" font-size="10.00" fill="#000000">+ createdAt : date</text>
<text text-anchor="start" x="564" y="-305.5" font-family="Helvetica,sans-Serif" font-size="10.00" fill="#000000">+ updatedAt : date</text>
<text text-anchor="start" x="564" y="-293.5" font-family="Helvetica,sans-Serif" font-size="10.00" fill="#000000">+ id : text</text>
</a>
</g>
</g>
<!-- people&#45;&gt;city -->
<g id="edge12" class="edge">
<title>people&#45;&gt;city</title>
<path fill="none" stroke="#000000" stroke-dasharray="5,2" d="M604.996,-286.4411C604.996,-268.4554 604.996,-248.0921 604.996,-229.7655"/>
<polygon fill="none" stroke="#000000" points="608.4961,-229.5338 604.996,-219.5339 601.4961,-229.5339 608.4961,-229.5338"/>
<text text-anchor="middle" x="612.495" y="-247" font-family="Helvetica,sans-Serif" font-size="10.00" fill="#000000">city</text>
</g>
<!-- people&#45;&gt;people -->
<g id="edge4" class="edge">
<title>people&#45;&gt;people</title>
<path fill="none" stroke="#000000" stroke-dasharray="5,2" d="M654.0735,-338.0604C664.4783,-337.902 671.992,-337.3818 671.992,-336.5 671.992,-335.9489 669.0569,-335.539 664.3154,-335.2704"/>
<polygon fill="none" stroke="#000000" points="664.1813,-331.7643 654.0735,-334.9396 663.9552,-338.7607 664.1813,-331.7643"/>
<text text-anchor="middle" x="687.549" y="-333.5" font-family="Helvetica,sans-Serif" font-size="10.00" fill="#000000">mother</text>
</g>
<!-- people&#45;&gt;people -->
<g id="edge5" class="edge">
<title>people&#45;&gt;people</title>
<path fill="none" stroke="#000000" stroke-dasharray="5,2" d="M654.1219,-339.6382C679.468,-340.0488 703.106,-339.0027 703.106,-336.5 703.106,-334.3394 685.4897,-333.2645 664.3659,-333.2751"/>
<polygon fill="none" stroke="#000000" points="664.0919,-329.7772 654.1219,-333.3618 664.1512,-336.7769 664.0919,-329.7772"/>
<text text-anchor="middle" x="715.888" y="-333.5" font-family="Helvetica,sans-Serif" font-size="10.00" fill="#000000">father</text>
</g>
<!-- people&#45;&gt;people -->
<g id="edge6" class="edge">
<title>people&#45;&gt;people</title>
<path fill="none" stroke="#000000" stroke-dasharray="5,2" d="M654.0381,-340.8651C690.1936,-342.1878 728.67,-340.7328 728.67,-336.5 728.67,-332.664 697.0698,-331.1094 664.2344,-331.8361"/>
<polygon fill="none" stroke="#000000" points="663.9312,-328.3434 654.0381,-332.1349 664.1363,-335.3404 663.9312,-328.3434"/>
<text text-anchor="middle" x="747.847" y="-333.5" font-family="Helvetica,sans-Serif" font-size="10.00" fill="#000000">husband</text>
</g>
<!-- people&#45;&gt;people -->
<g id="edge7" class="edge">
<title>people&#45;&gt;people</title>
<path fill="none" stroke="#000000" stroke-dasharray="5,2" d="M654.2273,-341.7374C704.4969,-344.4102 767.024,-342.6645 767.024,-336.5 767.024,-330.7449 712.5255,-328.8411 664.3822,-330.7886"/>
<polygon fill="#000000" stroke="#000000" points="664.0532,-327.3 654.2273,-331.2626 664.3796,-334.2924 664.0532,-327.3"/>
<text text-anchor="middle" x="788.701" y="-333.5" font-family="Helvetica,sans-Serif" font-size="10.00" fill="#000000">husbands</text>
</g>
<!-- people&#45;&gt;people -->
<g id="edge8" class="edge">
<title>people&#45;&gt;people</title>
<path fill="none" stroke="#000000" stroke-dasharray="5,2" d="M654.1354,-342.3863C718.5674,-346.6296 810.378,-344.6675 810.378,-336.5 810.378,-328.7473 727.6551,-326.5857 664.1474,-330.0152"/>
<polygon fill="none" stroke="#000000" points="663.9087,-326.5232 654.1354,-330.6137 664.3265,-333.5107 663.9087,-326.5232"/>
<text text-anchor="middle" x="819.266" y="-333.5" font-family="Helvetica,sans-Serif" font-size="10.00" fill="#000000">wife</text>
</g>
<!-- people&#45;&gt;people -->
<g id="edge9" class="edge">
<title>people&#45;&gt;people</title>
<path fill="none" stroke="#000000" stroke-dasharray="5,2" d="M654.1442,-343.1772C724.7589,-348.7661 828.378,-346.5403 828.378,-336.5 828.378,-326.9303 734.2455,-324.4598 664.2779,-329.0884"/>
<polygon fill="#000000" stroke="#000000" points="663.8651,-325.609 654.1442,-329.8228 664.3711,-332.5907 663.8651,-325.609"/>
<text text-anchor="middle" x="841.156" y="-333.5" font-family="Helvetica,sans-Serif" font-size="10.00" fill="#000000">childs</text>
</g>
<!-- people&#45;&gt;people -->
<g id="edge10" class="edge">
<title>people&#45;&gt;people</title>
<path fill="none" stroke="#000000" stroke-dasharray="5,2" d="M654.2088,-343.8082C732.8973,-350.929 853.934,-348.493 853.934,-336.5 853.934,-325.0224 743.0754,-322.298 664.5739,-328.3268"/>
<polygon fill="#000000" stroke="#000000" points="663.8831,-324.8722 654.2088,-329.1918 664.4653,-331.8479 663.8831,-324.8722"/>
<text text-anchor="middle" x="871.4405" y="-333.5" font-family="Helvetica,sans-Serif" font-size="10.00" fill="#000000">patients</text>
</g>
<!-- people&#45;&gt;people -->
<g id="edge11" class="edge">
<title>people&#45;&gt;people</title>
<path fill="none" stroke="#000000" stroke-dasharray="5,2" d="M654.1302,-344.266C742.9167,-353.1141 888.947,-350.5254 888.947,-336.5 888.947,-322.9951 753.5538,-320.0938 664.2407,-327.7962"/>
<polygon fill="none" stroke="#000000" points="663.7642,-324.3253 654.1302,-328.734 664.4107,-331.2954 663.7642,-324.3253"/>
<text text-anchor="middle" x="902.8395" y="-333.5" font-family="Helvetica,sans-Serif" font-size="10.00" fill="#000000">doctor</text>
</g>
<!-- people&#45;&gt;people -->
<g id="edge13" class="edge">
<title>people&#45;&gt;people</title>
<path fill="none" stroke="#000000" stroke-dasharray="5,2" d="M654.3276,-344.7625C751.1793,-355.2784 916.732,-352.5242 916.732,-336.5 916.732,-321.0235 762.303,-317.9254 664.4901,-327.2057"/>
<polygon fill="#000000" stroke="#000000" points="663.9229,-323.7452 654.3276,-328.2375 664.63,-330.7094 663.9229,-323.7452"/>
<text text-anchor="middle" x="941.178" y="-333.5" font-family="Helvetica,sans-Serif" font-size="10.00" fill="#000000">my_friends</text>
</g>
<!-- people&#45;&gt;people -->
<g id="edge14" class="edge">
<title>people&#45;&gt;people</title>
<path fill="none" stroke="#000000" stroke-dasharray="5,2" d="M654.1305,-345.0034C763.2297,-357.4751 965.624,-354.6406 965.624,-336.5 965.624,-318.9086 775.2985,-315.7105 664.2873,-326.906"/>
<polygon fill="#000000" stroke="#000000" points="663.6997,-323.4489 654.1305,-327.9966 664.4471,-330.4089 663.6997,-323.4489"/>
<text text-anchor="middle" x="980.626" y="-333.5" font-family="Helvetica,sans-Serif" font-size="10.00" fill="#000000">friends</text>
</g>
<!-- level -->
<g id="node8" class="node">
<title>level</title>
<g id="a_node8"><a xlink:title="level">
<polygon fill="#ffffff" stroke="#000000" points="1171,-292.5 1171,-380.5 1268.992,-380.5 1268.992,-292.5 1171,-292.5"/>
<text text-anchor="middle" x="1219.996" y="-367.5" font-family="Helvetica,sans-Serif" font-size="10.00" fill="#000000">level</text>
<polyline fill="none" stroke="#000000" points="1171,-360.5 1268.992,-360.5 "/>
<text text-anchor="start" x="1179" y="-347.5" font-family="Helvetica,sans-Serif" font-size="10.00" fill="#000000">+ name : text</text>
<text text-anchor="start" x="1179" y="-335.5" font-family="Helvetica,sans-Serif" font-size="10.00" fill="#000000">+ level_f : text</text>
<text text-anchor="start" x="1179" y="-323.5" font-family="Helvetica,sans-Serif" font-size="10.00" fill="#000000">+ createdAt : date</text>
<text text-anchor="start" x="1179" y="-311.5" font-family="Helvetica,sans-Serif" font-size="10.00" fill="#000000">+ updatedAt : date</text>
<text text-anchor="start" x="1179" y="-299.5" font-family="Helvetica,sans-Serif" font-size="10.00" fill="#000000">+ id : text</text>
</a>
</g>
</g>
<!-- level&#45;&gt;level -->
<g id="edge15" class="edge">
<title>level&#45;&gt;level</title>
<path fill="none" stroke="#000000" stroke-dasharray="5,2" d="M1269.0735,-344.3022C1279.4783,-343.5099 1286.992,-340.9092 1286.992,-336.5 1286.992,-333.6754 1283.9084,-331.5929 1278.9564,-330.2527"/>
<polygon fill="none" stroke="#000000" points="1279.496,-326.7946 1269.0735,-328.6978 1278.408,-333.7095 1279.496,-326.7946"/>
<text text-anchor="middle" x="1301.999" y="-333.5" font-family="Helvetica,sans-Serif" font-size="10.00" fill="#000000">one_l2</text>
</g>
<!-- level&#45;&gt;level -->
<g id="edge16" class="edge">
<title>level&#45;&gt;level</title>
<path fill="none" stroke="#000000" stroke-dasharray="5,2" d="M1269.2098,-352.2313C1294.0519,-354.1735 1317.006,-348.9297 1317.006,-336.5 1317.006,-325.7697 1299.8993,-320.3947 1279.2392,-320.3751"/>
<polygon fill="none" stroke="#000000" points="1279.0648,-316.8791 1269.2098,-320.7687 1279.3394,-323.8737 1279.0648,-316.8791"/>
<text text-anchor="middle" x="1332.013" y="-333.5" font-family="Helvetica,sans-Serif" font-size="10.00" fill="#000000">one_l3</text>
</g>
<!-- sub_level -->
<g id="node9" class="node">
<title>sub_level</title>
<g id="a_node9"><a xlink:title="sub_level">
<polygon fill="#ffffff" stroke="#000000" points="1074,-131.5 1074,-219.5 1171.992,-219.5 1171.992,-131.5 1074,-131.5"/>
<text text-anchor="middle" x="1122.996" y="-206.5" font-family="Helvetica,sans-Serif" font-size="10.00" fill="#000000">sub_level</text>
<polyline fill="none" stroke="#000000" points="1074,-199.5 1171.992,-199.5 "/>
<text text-anchor="start" x="1082" y="-186.5" font-family="Helvetica,sans-Serif" font-size="10.00" fill="#000000">+ name : text</text>
<text text-anchor="start" x="1082" y="-174.5" font-family="Helvetica,sans-Serif" font-size="10.00" fill="#000000">+ sublevel_f : text</text>
<text text-anchor="start" x="1082" y="-162.5" font-family="Helvetica,sans-Serif" font-size="10.00" fill="#000000">+ createdAt : date</text>
<text text-anchor="start" x="1082" y="-150.5" font-family="Helvetica,sans-Serif" font-size="10.00" fill="#000000">+ updatedAt : date</text>
<text text-anchor="start" x="1082" y="-138.5" font-family="Helvetica,sans-Serif" font-size="10.00" fill="#000000">+ id : text</text>
</a>
</g>
</g>
<!-- level&#45;&gt;sub_level -->
<g id="edge17" class="edge">
<title>level&#45;&gt;sub_level</title>
<path fill="none" stroke="#000000" stroke-dasharray="5,2" d="M1183.4582,-292.3603C1176.75,-285.705 1169.486,-279.3041 1161.996,-274 1145.6038,-262.3916 1131.5585,-272.7951 1120.541,-256 1115.4721,-248.2729 1113.1841,-239.1699 1112.5791,-229.9165"/>
<polygon fill="none" stroke="#000000" points="1116.079,-229.8577 1112.5312,-219.8746 1109.0791,-229.8912 1116.079,-229.8577"/>
<text text-anchor="middle" x="1135.7235" y="-247" font-family="Helvetica,sans-Serif" font-size="10.00" fill="#000000">one_sl</text>
</g>
<!-- level&#45;&gt;sub_level -->
<g id="edge18" class="edge">
<title>level&#45;&gt;sub_level</title>
<path fill="none" stroke="#000000" stroke-dasharray="5,2" d="M1193.2336,-292.0799C1181.3592,-272.371 1167.2931,-249.024 1154.879,-228.4193"/>
<polygon fill="#000000" stroke="#000000" points="1157.8297,-226.5345 1149.6711,-219.7752 1151.8338,-230.1469 1157.8297,-226.5345"/>
<text text-anchor="middle" x="1207.836" y="-247" font-family="Helvetica,sans-Serif" font-size="10.00" fill="#000000">many_sublevels</text>
</g>
<!-- level_lproperty -->
<g id="node10" class="node">
<title>level_lproperty</title>
<g id="a_node10"><a xlink:title="level_lproperty">
<polygon fill="#ffffff" stroke="#000000" points="1277,-125.5 1277,-225.5 1374.992,-225.5 1374.992,-125.5 1277,-125.5"/>
<text text-anchor="middle" x="1325.996" y="-212.5" font-family="Helvetica,sans-Serif" font-size="10.00" fill="#000000">level_lproperty</text>
<polyline fill="none" stroke="#000000" points="1277,-205.5 1374.992,-205.5 "/>
<text text-anchor="start" x="1285" y="-192.5" font-family="Helvetica,sans-Serif" font-size="10.00" fill="#000000">+ name : text</text>
<text text-anchor="start" x="1285" y="-180.5" font-family="Helvetica,sans-Serif" font-size="10.00" fill="#000000">+ weight : integer</text>
<text text-anchor="start" x="1285" y="-168.5" font-family="Helvetica,sans-Serif" font-size="10.00" fill="#000000">+ level_id : text</text>
<text text-anchor="start" x="1285" y="-156.5" font-family="Helvetica,sans-Serif" font-size="10.00" fill="#000000">+ createdAt : date</text>
<text text-anchor="start" x="1285" y="-144.5" font-family="Helvetica,sans-Serif" font-size="10.00" fill="#000000">+ updatedAt : date</text>
<text text-anchor="start" x="1285" y="-132.5" font-family="Helvetica,sans-Serif" font-size="10.00" fill="#000000">+ id : text</text>
</a>
</g>
</g>
<!-- level&#45;&gt;level_lproperty -->
<g id="edge19" class="edge">
<title>level&#45;&gt;level_lproperty</title>
<path fill="none" stroke="#000000" stroke-dasharray="5,2" d="M1240.5874,-292.0651C1248.4781,-276.4378 1258.0238,-259.0346 1268.104,-244 1270.3327,-240.6759 1272.6975,-237.3287 1275.1485,-233.9966"/>
<polygon fill="#000000" stroke="#000000" points="1278.136,-235.8495 1281.3905,-225.7669 1272.5587,-231.6194 1278.136,-235.8495"/>
<text text-anchor="middle" x="1287.442" y="-247" font-family="Helvetica,sans-Serif" font-size="10.00" fill="#000000">lproperty</text>
</g>
<!-- sub_level&#45;&gt;sub_level -->
<g id="edge20" class="edge">
<title>sub_level&#45;&gt;sub_level</title>
<path fill="none" stroke="#000000" stroke-dasharray="5,2" d="M1172.0735,-188.927C1182.4783,-187.5636 1189.992,-183.0879 1189.992,-175.5 1189.992,-170.639 1186.9084,-167.0553 1181.9564,-164.7488"/>
<polygon fill="none" stroke="#000000" points="1182.6407,-161.3081 1172.0735,-162.073 1180.8112,-168.0648 1182.6407,-161.3081"/>
<text text-anchor="middle" x="1222.2265" y="-172.5" font-family="Helvetica,sans-Serif" font-size="10.00" fill="#000000">subl_one_subl</text>
</g>
<!-- level_lproperty&#45;&gt;level -->
<g id="edge21" class="edge">
<title>level_lproperty&#45;&gt;level</title>
<path fill="none" stroke="#000000" stroke-dasharray="5,2" d="M1318.9583,-225.7913C1316.1954,-236.222 1312.3494,-246.8208 1306.996,-256 1299.0871,-269.561 1288.1658,-282.1885 1276.7298,-293.2345"/>
<polygon fill="none" stroke="#000000" points="1274.1122,-290.8889 1269.167,-300.2588 1278.876,-296.0179 1274.1122,-290.8889"/>
<text text-anchor="middle" x="1322.274" y="-247" font-family="Helvetica,sans-Serif" font-size="10.00" fill="#000000">level</text>
</g>
<!-- pet -->
<g id="node11" class="node">
<title>pet</title>
<g id="a_node11"><a xlink:title="pet">
<polygon fill="#ffffff" stroke="#000000" points="208,-298.5 208,-374.5 305.992,-374.5 305.992,-298.5 208,-298.5"/>
<text text-anchor="middle" x="256.996" y="-361.5" font-family="Helvetica,sans-Serif" font-size="10.00" fill="#000000">pet</text>
<polyline fill="none" stroke="#000000" points="208,-354.5 305.992,-354.5 "/>
<text text-anchor="start" x="216" y="-341.5" font-family="Helvetica,sans-Serif" font-size="10.00" fill="#000000">+ name : text</text>
<text text-anchor="start" x="216" y="-329.5" font-family="Helvetica,sans-Serif" font-size="10.00" fill="#000000">+ createdAt : date</text>
<text text-anchor="start" x="216" y="-317.5" font-family="Helvetica,sans-Serif" font-size="10.00" fill="#000000">+ updatedAt : date</text>
<text text-anchor="start" x="216" y="-305.5" font-family="Helvetica,sans-Serif" font-size="10.00" fill="#000000">+ id : text</text>
</a>
</g>
</g>
<!-- pet&#45;&gt;person -->
<g id="edge22" class="edge">
<title>pet&#45;&gt;person</title>
<path fill="none" stroke="#000000" stroke-dasharray="5,2" d="M256.996,-298.3452C256.996,-279.6459 256.996,-256.6851 256.996,-235.6948"/>
<polygon fill="none" stroke="#000000" points="260.4961,-235.576 256.996,-225.5761 253.4961,-235.5761 260.4961,-235.576"/>
<text text-anchor="middle" x="279.5025" y="-247" font-family="Helvetica,sans-Serif" font-size="10.00" fill="#000000">createdBy</text>
</g>
<!-- chatroom&#45;&gt;user -->
<g id="edge24" class="edge">
<title>chatroom&#45;&gt;user</title>
<path fill="none" stroke="#000000" stroke-dasharray="5,2" d="M58.5037,-213.528C60.9633,-223.4426 63.5945,-234.1175 65.996,-244 67.5935,-250.574 69.2433,-257.4138 70.8878,-264.266"/>
<polygon fill="#000000" stroke="#000000" points="67.5542,-265.3743 73.2867,-274.2844 74.3618,-263.7442 67.5542,-265.3743"/>
<text text-anchor="middle" x="89.828" y="-247" font-family="Helvetica,sans-Serif" font-size="10.00" fill="#000000">mambers</text>
</g>
<!-- chatmessage -->
<g id="node13" class="node">
<title>chatmessage</title>
<g id="a_node13"><a xlink:title="chatmessage">
<polygon fill="#ffffff" stroke="#000000" points="58,-.5 58,-76.5 155.992,-76.5 155.992,-.5 58,-.5"/>
<text text-anchor="middle" x="106.996" y="-63.5" font-family="Helvetica,sans-Serif" font-size="10.00" fill="#000000">chatmessage</text>
<polyline fill="none" stroke="#000000" points="58,-56.5 155.992,-56.5 "/>
<text text-anchor="start" x="66" y="-43.5" font-family="Helvetica,sans-Serif" font-size="10.00" fill="#000000">+ msg : text</text>
<text text-anchor="start" x="66" y="-31.5" font-family="Helvetica,sans-Serif" font-size="10.00" fill="#000000">+ createdAt : date</text>
<text text-anchor="start" x="66" y="-19.5" font-family="Helvetica,sans-Serif" font-size="10.00" fill="#000000">+ updatedAt : date</text>
<text text-anchor="start" x="66" y="-7.5" font-family="Helvetica,sans-Serif" font-size="10.00" fill="#000000">+ id : text</text>
</a>
</g>
</g>
<!-- chatroom&#45;&gt;chatmessage -->
<g id="edge23" class="edge">
<title>chatroom&#45;&gt;chatmessage</title>
<path fill="none" stroke="#000000" stroke-dasharray="5,2" d="M36.1781,-137.274C33.6371,-123.4267 33.3531,-108.0054 39.431,-95 42.3453,-88.7641 46.3238,-82.9742 50.9021,-77.6664"/>
<polygon fill="#000000" stroke="#000000" points="53.6168,-79.8913 57.9851,-70.2389 48.5509,-75.0604 53.6168,-79.8913"/>
<text text-anchor="middle" x="62.7785" y="-98" font-family="Helvetica,sans-Serif" font-size="10.00" fill="#000000">messages</text>
</g>
<!-- chatmessage&#45;&gt;user -->
<g id="edge25" class="edge">
<title>chatmessage&#45;&gt;user</title>
<path fill="none" stroke="#000000" stroke-dasharray="5,2" d="M114.6861,-76.6736C115.6461,-82.7793 116.4732,-89.046 116.996,-95 123.2559,-166.2868 126.9983,-185.4526 114.996,-256 114.5367,-258.6998 114.0018,-261.4317 113.4048,-264.1768"/>
<polygon fill="none" stroke="#000000" points="109.944,-263.598 110.9953,-274.1406 116.7478,-265.2435 109.944,-263.598"/>
<text text-anchor="middle" x="145.5025" y="-172.5" font-family="Helvetica,sans-Serif" font-size="10.00" fill="#000000">createdBy</text>
</g>
<!-- chatmessage&#45;&gt;chatroom -->
<g id="edge26" class="edge">
<title>chatmessage&#45;&gt;chatroom</title>
<path fill="none" stroke="#000000" stroke-dasharray="5,2" d="M96.0457,-76.6124C92.8202,-86.6243 89.0559,-97.3252 84.996,-107 82.1011,-113.8986 78.7621,-121.0373 75.3093,-127.9852"/>
<polygon fill="none" stroke="#000000" points="71.9841,-126.8019 70.5614,-137.3008 78.2207,-129.9806 71.9841,-126.8019"/>
<text text-anchor="middle" x="101.384" y="-98" font-family="Helvetica,sans-Serif" font-size="10.00" fill="#000000">room</text>
</g>
<!-- test_fields_type -->
<g id="node14" class="node">
<title>test_fields_type</title>
<g id="a_node14"><a xlink:title="test_fields_type">
<polygon fill="#ffffff" stroke="#000000" points="1383,-274.5 1383,-398.5 1480.992,-398.5 1480.992,-274.5 1383,-274.5"/>
<text text-anchor="middle" x="1431.996" y="-385.5" font-family="Helvetica,sans-Serif" font-size="10.00" fill="#000000">test_fields_type</text>
<polyline fill="none" stroke="#000000" points="1383,-378.5 1480.992,-378.5 "/>
<text text-anchor="start" x="1391" y="-365.5" font-family="Helvetica,sans-Serif" font-size="10.00" fill="#000000">+ name1 : text</text>
<text text-anchor="start" x="1391" y="-353.5" font-family="Helvetica,sans-Serif" font-size="10.00" fill="#000000">+ name2 : text</text>
<text text-anchor="start" x="1391" y="-341.5" font-family="Helvetica,sans-Serif" font-size="10.00" fill="#000000">+ profile : object</text>
<text text-anchor="start" x="1391" y="-329.5" font-family="Helvetica,sans-Serif" font-size="10.00" fill="#000000">+ binary1 : binary</text>
<text text-anchor="start" x="1391" y="-317.5" font-family="Helvetica,sans-Serif" font-size="10.00" fill="#000000">+ binary2 : binary</text>
<text text-anchor="start" x="1391" y="-305.5" font-family="Helvetica,sans-Serif" font-size="10.00" fill="#000000">+ createdAt : date</text>
<text text-anchor="start" x="1391" y="-293.5" font-family="Helvetica,sans-Serif" font-size="10.00" fill="#000000">+ updatedAt : date</text>
<text text-anchor="start" x="1391" y="-281.5" font-family="Helvetica,sans-Serif" font-size="10.00" fill="#000000">+ id : text</text>
</a>
</g>
</g>
<!-- json -->
<g id="node15" class="node">
<title>json</title>
<g id="a_node15"><a xlink:title="json">
<polygon fill="#ffffff" stroke="#000000" points="1499,-292.5 1499,-380.5 1596.992,-380.5 1596.992,-292.5 1499,-292.5"/>
<text text-anchor="middle" x="1547.996" y="-367.5" font-family="Helvetica,sans-Serif" font-size="10.00" fill="#000000">json</text>
<polyline fill="none" stroke="#000000" points="1499,-360.5 1596.992,-360.5 "/>
<text text-anchor="start" x="1507" y="-347.5" font-family="Helvetica,sans-Serif" font-size="10.00" fill="#000000">+ name : text</text>
<text text-anchor="start" x="1507" y="-335.5" font-family="Helvetica,sans-Serif" font-size="10.00" fill="#000000">+ profile : object</text>
<text text-anchor="start" x="1507" y="-323.5" font-family="Helvetica,sans-Serif" font-size="10.00" fill="#000000">+ createdAt : date</text>
<text text-anchor="start" x="1507" y="-311.5" font-family="Helvetica,sans-Serif" font-size="10.00" fill="#000000">+ updatedAt : date</text>
<text text-anchor="start" x="1507" y="-299.5" font-family="Helvetica,sans-Serif" font-size="10.00" fill="#000000">+ id : text</text>
</a>
</g>
</g>
<!-- nographql -->
<g id="node16" class="node">
<title>nographql</title>
<g id="a_node16"><a xlink:title="nographql">
<polygon fill="#d3d3d3" stroke="#000000" points="1615,-292.5 1615,-380.5 1712.992,-380.5 1712.992,-292.5 1615,-292.5"/>
<text text-anchor="middle" x="1663.996" y="-367.5" font-family="Helvetica,sans-Serif" font-size="10.00" fill="#000000">nographql</text>
<polyline fill="none" stroke="#000000" points="1615,-360.5 1712.992,-360.5 "/>
<text text-anchor="start" x="1623" y="-347.5" font-family="Helvetica,sans-Serif" font-size="10.00" fill="#000000">+ foo : text</text>
<text text-anchor="start" x="1623" y="-335.5" font-family="Helvetica,sans-Serif" font-size="10.00" fill="#000000">+ bin : binary</text>
<text text-anchor="start" x="1623" y="-323.5" font-family="Helvetica,sans-Serif" font-size="10.00" fill="#000000">+ createdAt : date</text>
<text text-anchor="start" x="1623" y="-311.5" font-family="Helvetica,sans-Serif" font-size="10.00" fill="#000000">+ updatedAt : date</text>
<text text-anchor="start" x="1623" y="-299.5" font-family="Helvetica,sans-Serif" font-size="10.00" fill="#000000">+ id : text</text>
</a>
</g>
</g>
<!-- hook_test -->
<g id="node17" class="node">
<title>hook_test</title>
<g id="a_node17"><a xlink:title="hook_test">
<polygon fill="#ffffff" stroke="#000000" points="1731,-298.5 1731,-374.5 1828.992,-374.5 1828.992,-298.5 1731,-298.5"/>
<text text-anchor="middle" x="1779.996" y="-361.5" font-family="Helvetica,sans-Serif" font-size="10.00" fill="#000000">hook_test</text>
<polyline fill="none" stroke="#000000" points="1731,-354.5 1828.992,-354.5 "/>
<text text-anchor="start" x="1739" y="-341.5" font-family="Helvetica,sans-Serif" font-size="10.00" fill="#000000">+ name : text</text>
<text text-anchor="start" x="1739" y="-329.5" font-family="Helvetica,sans-Serif" font-size="10.00" fill="#000000">+ createdAt : date</text>
<text text-anchor="start" x="1739" y="-317.5" font-family="Helvetica,sans-Serif" font-size="10.00" fill="#000000">+ updatedAt : date</text>
<text text-anchor="start" x="1739" y="-305.5" font-family="Helvetica,sans-Serif" font-size="10.00" fill="#000000">+ id : text</text>
</a>
</g>
</g>
</g>
</svg>
