<?xml version="1.0" encoding="UTF-8" standalone="no"?>
<!DOCTYPE svg PUBLIC "-//W3C//DTD SVG 1.1//EN"
 "http://www.w3.org/Graphics/SVG/1.1/DTD/svg11.dtd">
<!-- Generated by graphviz version 2.40.1 (20161225.0304)
 -->
<!-- Title: %0 Pages: 1 -->
<svg width="1062pt" height="407pt"
 viewBox="0.00 0.00 1061.99 407.00" xmlns="http://www.w3.org/2000/svg" xmlns:xlink="http://www.w3.org/1999/xlink">
<g id="graph0" class="graph" transform="scale(1 1) rotate(0) translate(4 403)">
<title>%0</title>
<polygon fill="#ffffff" stroke="transparent" points="-4,4 -4,-403 1057.992,-403 1057.992,4 -4,4"/>
<!-- user -->
<g id="node1" class="node">
<title>user</title>
<g id="a_node1"><a xlink:title="user">
<polygon fill="#ffffff" stroke="#000000" points="39,-274.5 39,-398.5 136.992,-398.5 136.992,-274.5 39,-274.5"/>
<text text-anchor="middle" x="87.996" y="-385.5" font-family="Helvetica,sans-Serif" font-size="10.00" fill="#000000">user</text>
<polyline fill="none" stroke="#000000" points="39,-378.5 136.992,-378.5 "/>
<text text-anchor="start" x="47" y="-365.5" font-family="Helvetica,sans-Serif" font-size="10.00" fill="#000000">+ id : text</text>
<text text-anchor="start" x="47" y="-353.5" font-family="Helvetica,sans-Serif" font-size="10.00" fill="#000000">+ name : text</text>
<text text-anchor="start" x="47" y="-341.5" font-family="Helvetica,sans-Serif" font-size="10.00" fill="#000000">+ sex : enum</text>
<text text-anchor="start" x="47" y="-329.5" font-family="Helvetica,sans-Serif" font-size="10.00" fill="#000000">+ age : number</text>
<text text-anchor="start" x="47" y="-317.5" font-family="Helvetica,sans-Serif" font-size="10.00" fill="#000000">+ password : text</text>
<text text-anchor="start" x="47" y="-305.5" font-family="Helvetica,sans-Serif" font-size="10.00" fill="#000000">+ salt : text</text>
<text text-anchor="start" x="47" y="-293.5" font-family="Helvetica,sans-Serif" font-size="10.00" fill="#000000">+ createdAt : date</text>
<text text-anchor="start" x="47" y="-281.5" font-family="Helvetica,sans-Serif" font-size="10.00" fill="#000000">+ updatedAt : date</text>
</a>
</g>
</g>
<!-- chatroom -->
<g id="node8" class="node">
<title>chatroom</title>
<g id="a_node8"><a xlink:title="chatroom">
<polygon fill="#ffffff" stroke="#000000" points="0,-137.5 0,-213.5 97.992,-213.5 97.992,-137.5 0,-137.5"/>
<text text-anchor="middle" x="48.996" y="-200.5" font-family="Helvetica,sans-Serif" font-size="10.00" fill="#000000">chatroom</text>
<polyline fill="none" stroke="#000000" points="0,-193.5 97.992,-193.5 "/>
<text text-anchor="start" x="8" y="-180.5" font-family="Helvetica,sans-Serif" font-size="10.00" fill="#000000">+ id : text</text>
<text text-anchor="start" x="8" y="-168.5" font-family="Helvetica,sans-Serif" font-size="10.00" fill="#000000">+ name : text</text>
<text text-anchor="start" x="8" y="-156.5" font-family="Helvetica,sans-Serif" font-size="10.00" fill="#000000">+ createdAt : date</text>
<text text-anchor="start" x="8" y="-144.5" font-family="Helvetica,sans-Serif" font-size="10.00" fill="#000000">+ updatedAt : date</text>
</a>
</g>
</g>
<!-- user&#45;&gt;chatroom -->
<g id="edge1" class="edge">
<title>user&#45;&gt;chatroom</title>
<path fill="none" stroke="#000000" stroke-dasharray="5,2" d="M45.1099,-274.323C42.3452,-268.3186 39.9719,-262.1642 38.22,-256 35.2989,-245.7216 35.0515,-234.4744 36.1508,-223.7326"/>
<polygon fill="#000000" stroke="#000000" points="39.6438,-224.0274 37.5741,-213.6367 32.7123,-223.0502 39.6438,-224.0274"/>
<text text-anchor="middle" x="52.884" y="-247" font-family="Helvetica,sans-Serif" font-size="10.00" fill="#000000">rooms</text>
</g>
<!-- person -->
<g id="node2" class="node">
<title>person</title>
<g id="a_node2"><a xlink:title="person">
<polygon fill="#ffffff" stroke="#000000" points="208,-125.5 208,-225.5 305.992,-225.5 305.992,-125.5 208,-125.5"/>
<text text-anchor="middle" x="256.996" y="-212.5" font-family="Helvetica,sans-Serif" font-size="10.00" fill="#000000">person</text>
<polyline fill="none" stroke="#000000" points="208,-205.5 305.992,-205.5 "/>
<text text-anchor="start" x="216" y="-192.5" font-family="Helvetica,sans-Serif" font-size="10.00" fill="#000000">+ id : text</text>
<text text-anchor="start" x="216" y="-180.5" font-family="Helvetica,sans-Serif" font-size="10.00" fill="#000000">+ name : text</text>
<text text-anchor="start" x="216" y="-168.5" font-family="Helvetica,sans-Serif" font-size="10.00" fill="#000000">+ sex : enum</text>
<text text-anchor="start" x="216" y="-156.5" font-family="Helvetica,sans-Serif" font-size="10.00" fill="#000000">+ age : number</text>
<text text-anchor="start" x="216" y="-144.5" font-family="Helvetica,sans-Serif" font-size="10.00" fill="#000000">+ createdAt : date</text>
<text text-anchor="start" x="216" y="-132.5" font-family="Helvetica,sans-Serif" font-size="10.00" fill="#000000">+ updatedAt : date</text>
</a>
</g>
</g>
<!-- ext_acl -->
<g id="node3" class="node">
<title>ext_acl</title>
<g id="a_node3"><a xlink:title="ext_acl">
<polygon fill="#ffffff" stroke="#000000" points="353,-131.5 353,-219.5 450.992,-219.5 450.992,-131.5 353,-131.5"/>
<text text-anchor="middle" x="401.996" y="-206.5" font-family="Helvetica,sans-Serif" font-size="10.00" fill="#000000">ext_acl</text>
<polyline fill="none" stroke="#000000" points="353,-199.5 450.992,-199.5 "/>
<text text-anchor="start" x="361" y="-186.5" font-family="Helvetica,sans-Serif" font-size="10.00" fill="#000000">+ id : text</text>
<text text-anchor="start" x="361" y="-174.5" font-family="Helvetica,sans-Serif" font-size="10.00" fill="#000000">+ name : text</text>
<text text-anchor="start" x="361" y="-162.5" font-family="Helvetica,sans-Serif" font-size="10.00" fill="#000000">+ age : number</text>
<text text-anchor="start" x="361" y="-150.5" font-family="Helvetica,sans-Serif" font-size="10.00" fill="#000000">+ createdAt : date</text>
<text text-anchor="start" x="361" y="-138.5" font-family="Helvetica,sans-Serif" font-size="10.00" fill="#000000">+ updatedAt : date</text>
</a>
</g>
</g>
<!-- ext_acl1 -->
<g id="node4" class="node">
<title>ext_acl1</title>
<g id="a_node4"><a xlink:title="ext_acl1">
<polygon fill="#ffffff" stroke="#000000" points="469,-131.5 469,-219.5 566.992,-219.5 566.992,-131.5 469,-131.5"/>
<text text-anchor="middle" x="517.996" y="-206.5" font-family="Helvetica,sans-Serif" font-size="10.00" fill="#000000">ext_acl1</text>
<polyline fill="none" stroke="#000000" points="469,-199.5 566.992,-199.5 "/>
<text text-anchor="start" x="477" y="-186.5" font-family="Helvetica,sans-Serif" font-size="10.00" fill="#000000">+ id : text</text>
<text text-anchor="start" x="477" y="-174.5" font-family="Helvetica,sans-Serif" font-size="10.00" fill="#000000">+ name : text</text>
<text text-anchor="start" x="477" y="-162.5" font-family="Helvetica,sans-Serif" font-size="10.00" fill="#000000">+ age : number</text>
<text text-anchor="start" x="477" y="-150.5" font-family="Helvetica,sans-Serif" font-size="10.00" fill="#000000">+ createdAt : date</text>
<text text-anchor="start" x="477" y="-138.5" font-family="Helvetica,sans-Serif" font-size="10.00" fill="#000000">+ updatedAt : date</text>
</a>
</g>
</g>
<!-- test_acl -->
<g id="node5" class="node">
<title>test_acl</title>
<g id="a_node5"><a xlink:title="test_acl">
<polygon fill="#ffffff" stroke="#000000" points="382,-286.5 382,-386.5 479.992,-386.5 479.992,-286.5 382,-286.5"/>
<text text-anchor="middle" x="430.996" y="-373.5" font-family="Helvetica,sans-Serif" font-size="10.00" fill="#000000">test_acl</text>
<polyline fill="none" stroke="#000000" points="382,-366.5 479.992,-366.5 "/>
<text text-anchor="start" x="390" y="-353.5" font-family="Helvetica,sans-Serif" font-size="10.00" fill="#000000">+ id : text</text>
<text text-anchor="start" x="390" y="-341.5" font-family="Helvetica,sans-Serif" font-size="10.00" fill="#000000">+ name : text</text>
<text text-anchor="start" x="390" y="-329.5" font-family="Helvetica,sans-Serif" font-size="10.00" fill="#000000">+ age : number</text>
<text text-anchor="start" x="390" y="-317.5" font-family="Helvetica,sans-Serif" font-size="10.00" fill="#000000">+ sex : text</text>
<text text-anchor="start" x="390" y="-305.5" font-family="Helvetica,sans-Serif" font-size="10.00" fill="#000000">+ createdAt : date</text>
<text text-anchor="start" x="390" y="-293.5" font-family="Helvetica,sans-Serif" font-size="10.00" fill="#000000">+ updatedAt : date</text>
</a>
</g>
</g>
<!-- test_acl&#45;&gt;ext_acl -->
<g id="edge2" class="edge">
<title>test_acl&#45;&gt;ext_acl</title>
<path fill="none" stroke="#000000" stroke-dasharray="5,2" d="M421.9792,-286.4411C418.7245,-268.3718 415.0375,-247.9026 411.7245,-229.51"/>
<polygon fill="#000000" stroke="#000000" points="415.1449,-228.755 409.9276,-219.5339 408.2558,-229.996 415.1449,-228.755"/>
<text text-anchor="middle" x="423.665" y="-247" font-family="Helvetica,sans-Serif" font-size="10.00" fill="#000000">ext</text>
</g>
<!-- test_acl&#45;&gt;ext_acl1 -->
<g id="edge3" class="edge">
<title>test_acl&#45;&gt;ext_acl1</title>
<path fill="none" stroke="#000000" stroke-dasharray="5,2" d="M458.0464,-286.4411C467.9915,-268.0371 479.2817,-247.1437 489.3615,-228.4903"/>
<polygon fill="none" stroke="#000000" points="492.5264,-229.9955 494.2013,-219.5339 486.368,-226.6676 492.5264,-229.9955"/>
<text text-anchor="middle" x="489.4445" y="-247" font-family="Helvetica,sans-Serif" font-size="10.00" fill="#000000">ext1</text>
</g>
<!-- people -->
<g id="node6" class="node">
<title>people</title>
<g id="a_node6"><a xlink:title="people">
<polygon fill="#ffffff" stroke="#000000" points="498,-286.5 498,-386.5 595.992,-386.5 595.992,-286.5 498,-286.5"/>
<text text-anchor="middle" x="546.996" y="-373.5" font-family="Helvetica,sans-Serif" font-size="10.00" fill="#000000">people</text>
<polyline fill="none" stroke="#000000" points="498,-366.5 595.992,-366.5 "/>
<text text-anchor="start" x="506" y="-353.5" font-family="Helvetica,sans-Serif" font-size="10.00" fill="#000000">+ id : text</text>
<text text-anchor="start" x="506" y="-341.5" font-family="Helvetica,sans-Serif" font-size="10.00" fill="#000000">+ name : text</text>
<text text-anchor="start" x="506" y="-329.5" font-family="Helvetica,sans-Serif" font-size="10.00" fill="#000000">+ sex : enum</text>
<text text-anchor="start" x="506" y="-317.5" font-family="Helvetica,sans-Serif" font-size="10.00" fill="#000000">+ age : number</text>
<text text-anchor="start" x="506" y="-305.5" font-family="Helvetica,sans-Serif" font-size="10.00" fill="#000000">+ createdAt : date</text>
<text text-anchor="start" x="506" y="-293.5" font-family="Helvetica,sans-Serif" font-size="10.00" fill="#000000">+ updatedAt : date</text>
</a>
</g>
</g>
<!-- people&#45;&gt;people -->
<g id="edge4" class="edge">
<title>people&#45;&gt;people</title>
<path fill="none" stroke="#000000" stroke-dasharray="5,2" d="M596.0735,-339.6209C606.4783,-339.304 613.992,-338.2637 613.992,-336.5 613.992,-335.3977 611.0569,-334.578 606.3154,-334.0408"/>
<polygon fill="none" stroke="#000000" points="606.2784,-330.5312 596.0735,-333.3791 605.827,-337.5167 606.2784,-330.5312"/>
<text text-anchor="middle" x="629.549" y="-333.5" font-family="Helvetica,sans-Serif" font-size="10.00" fill="#000000">mother</text>
</g>
<!-- people&#45;&gt;people -->
<g id="edge5" class="edge">
<title>people&#45;&gt;people</title>
<path fill="none" stroke="#000000" stroke-dasharray="5,2" d="M596.1219,-342.7764C621.468,-343.5976 645.106,-341.5055 645.106,-336.5 645.106,-332.1789 627.4897,-330.0289 606.3659,-330.0502"/>
<polygon fill="none" stroke="#000000" points="606.0612,-326.5547 596.1219,-330.2236 606.1797,-333.5537 606.0612,-326.5547"/>
<text text-anchor="middle" x="657.888" y="-333.5" font-family="Helvetica,sans-Serif" font-size="10.00" fill="#000000">father</text>
</g>
<!-- people&#45;&gt;people -->
<g id="edge6" class="edge">
<title>people&#45;&gt;people</title>
<path fill="none" stroke="#000000" stroke-dasharray="5,2" d="M596.0381,-345.2302C632.1936,-347.8757 670.67,-344.9656 670.67,-336.5 670.67,-328.828 639.0698,-325.7188 606.2344,-327.1723"/>
<polygon fill="none" stroke="#000000" points="605.8161,-323.6907 596.0381,-327.7698 606.2257,-330.6787 605.8161,-323.6907"/>
<text text-anchor="middle" x="689.847" y="-333.5" font-family="Helvetica,sans-Serif" font-size="10.00" fill="#000000">husband</text>
</g>
<!-- people&#45;&gt;people -->
<g id="edge7" class="edge">
<title>people&#45;&gt;people</title>
<path fill="none" stroke="#000000" stroke-dasharray="5,2" d="M596.2273,-346.9748C646.4969,-352.3205 709.024,-348.8289 709.024,-336.5 709.024,-324.9898 654.5255,-321.1822 606.3822,-325.0772"/>
<polygon fill="none" stroke="#000000" points="605.8586,-321.6108 596.2273,-326.0252 606.5094,-328.5804 605.8586,-321.6108"/>
<text text-anchor="middle" x="717.912" y="-333.5" font-family="Helvetica,sans-Serif" font-size="10.00" fill="#000000">wife</text>
</g>
<!-- people&#45;&gt;people -->
<g id="edge8" class="edge">
<title>people&#45;&gt;people</title>
<path fill="none" stroke="#000000" stroke-dasharray="5,2" d="M596.0144,-348.7805C652.9905,-356.5925 727.024,-352.499 727.024,-336.5 727.024,-321.4384 661.4121,-316.9281 606.1871,-322.9689"/>
<polygon fill="#000000" stroke="#000000" points="605.5126,-319.5254 596.0144,-324.2195 606.3667,-326.4731 605.5126,-319.5254"/>
<text text-anchor="middle" x="739.802" y="-333.5" font-family="Helvetica,sans-Serif" font-size="10.00" fill="#000000">childs</text>
</g>
<!-- pet -->
<g id="node7" class="node">
<title>pet</title>
<g id="a_node7"><a xlink:title="pet">
<polygon fill="#ffffff" stroke="#000000" points="208,-298.5 208,-374.5 305.992,-374.5 305.992,-298.5 208,-298.5"/>
<text text-anchor="middle" x="256.996" y="-361.5" font-family="Helvetica,sans-Serif" font-size="10.00" fill="#000000">pet</text>
<polyline fill="none" stroke="#000000" points="208,-354.5 305.992,-354.5 "/>
<text text-anchor="start" x="216" y="-341.5" font-family="Helvetica,sans-Serif" font-size="10.00" fill="#000000">+ id : text</text>
<text text-anchor="start" x="216" y="-329.5" font-family="Helvetica,sans-Serif" font-size="10.00" fill="#000000">+ name : text</text>
<text text-anchor="start" x="216" y="-317.5" font-family="Helvetica,sans-Serif" font-size="10.00" fill="#000000">+ createdAt : date</text>
<text text-anchor="start" x="216" y="-305.5" font-family="Helvetica,sans-Serif" font-size="10.00" fill="#000000">+ updatedAt : date</text>
</a>
</g>
</g>
<!-- pet&#45;&gt;person -->
<g id="edge9" class="edge">
<title>pet&#45;&gt;person</title>
<path fill="none" stroke="#000000" stroke-dasharray="5,2" d="M256.996,-298.3452C256.996,-279.6459 256.996,-256.6851 256.996,-235.6948"/>
<polygon fill="none" stroke="#000000" points="260.4961,-235.576 256.996,-225.5761 253.4961,-235.5761 260.4961,-235.576"/>
<text text-anchor="middle" x="279.5025" y="-247" font-family="Helvetica,sans-Serif" font-size="10.00" fill="#000000">createdBy</text>
</g>
<!-- chatroom&#45;&gt;user -->
<g id="edge11" class="edge">
<title>chatroom&#45;&gt;user</title>
<path fill="none" stroke="#000000" stroke-dasharray="5,2" d="M58.5037,-213.528C60.9633,-223.4426 63.5945,-234.1175 65.996,-244 67.5935,-250.574 69.2433,-257.4138 70.8878,-264.266"/>
<polygon fill="#000000" stroke="#000000" points="67.5542,-265.3743 73.2867,-274.2844 74.3618,-263.7442 67.5542,-265.3743"/>
<text text-anchor="middle" x="89.828" y="-247" font-family="Helvetica,sans-Serif" font-size="10.00" fill="#000000">mambers</text>
</g>
<!-- chatmessage -->
<g id="node9" class="node">
<title>chatmessage</title>
<g id="a_node9"><a xlink:title="chatmessage">
<polygon fill="#ffffff" stroke="#000000" points="58,-.5 58,-76.5 155.992,-76.5 155.992,-.5 58,-.5"/>
<text text-anchor="middle" x="106.996" y="-63.5" font-family="Helvetica,sans-Serif" font-size="10.00" fill="#000000">chatmessage</text>
<polyline fill="none" stroke="#000000" points="58,-56.5 155.992,-56.5 "/>
<text text-anchor="start" x="66" y="-43.5" font-family="Helvetica,sans-Serif" font-size="10.00" fill="#000000">+ id : text</text>
<text text-anchor="start" x="66" y="-31.5" font-family="Helvetica,sans-Serif" font-size="10.00" fill="#000000">+ msg : text</text>
<text text-anchor="start" x="66" y="-19.5" font-family="Helvetica,sans-Serif" font-size="10.00" fill="#000000">+ createdAt : date</text>
<text text-anchor="start" x="66" y="-7.5" font-family="Helvetica,sans-Serif" font-size="10.00" fill="#000000">+ updatedAt : date</text>
</a>
</g>
</g>
<!-- chatroom&#45;&gt;chatmessage -->
<g id="edge10" class="edge">
<title>chatroom&#45;&gt;chatmessage</title>
<path fill="none" stroke="#000000" stroke-dasharray="5,2" d="M36.1781,-137.274C33.6371,-123.4267 33.3531,-108.0054 39.431,-95 42.3453,-88.7641 46.3238,-82.9742 50.9021,-77.6664"/>
<polygon fill="#000000" stroke="#000000" points="53.6168,-79.8913 57.9851,-70.2389 48.5509,-75.0604 53.6168,-79.8913"/>
<text text-anchor="middle" x="62.7785" y="-98" font-family="Helvetica,sans-Serif" font-size="10.00" fill="#000000">messages</text>
</g>
<!-- chatmessage&#45;&gt;user -->
<g id="edge12" class="edge">
<title>chatmessage&#45;&gt;user</title>
<path fill="none" stroke="#000000" stroke-dasharray="5,2" d="M114.6861,-76.6736C115.6461,-82.7793 116.4732,-89.046 116.996,-95 123.2559,-166.2868 126.9983,-185.4526 114.996,-256 114.5367,-258.6998 114.0018,-261.4317 113.4048,-264.1768"/>
<polygon fill="none" stroke="#000000" points="109.944,-263.598 110.9953,-274.1406 116.7478,-265.2435 109.944,-263.598"/>
<text text-anchor="middle" x="145.5025" y="-172.5" font-family="Helvetica,sans-Serif" font-size="10.00" fill="#000000">createdBy</text>
</g>
<!-- chatmessage&#45;&gt;chatroom -->
<g id="edge13" class="edge">
<title>chatmessage&#45;&gt;chatroom</title>
<path fill="none" stroke="#000000" stroke-dasharray="5,2" d="M96.0457,-76.6124C92.8202,-86.6243 89.0559,-97.3252 84.996,-107 82.1011,-113.8986 78.7621,-121.0373 75.3093,-127.9852"/>
<polygon fill="none" stroke="#000000" points="71.9841,-126.8019 70.5614,-137.3008 78.2207,-129.9806 71.9841,-126.8019"/>
<text text-anchor="middle" x="101.384" y="-98" font-family="Helvetica,sans-Serif" font-size="10.00" fill="#000000">room</text>
</g>
<!-- json -->
<g id="node10" class="node">
<title>json</title>
<g id="a_node10"><a xlink:title="json">
<polygon fill="#ffffff" stroke="#000000" points="840,-292.5 840,-380.5 937.992,-380.5 937.992,-292.5 840,-292.5"/>
<text text-anchor="middle" x="888.996" y="-367.5" font-family="Helvetica,sans-Serif" font-size="10.00" fill="#000000">json</text>
<polyline fill="none" stroke="#000000" points="840,-360.5 937.992,-360.5 "/>
<text text-anchor="start" x="848" y="-347.5" font-family="Helvetica,sans-Serif" font-size="10.00" fill="#000000">+ id : text</text>
<text text-anchor="start" x="848" y="-335.5" font-family="Helvetica,sans-Serif" font-size="10.00" fill="#000000">+ name : text</text>
<text text-anchor="start" x="848" y="-323.5" font-family="Helvetica,sans-Serif" font-size="10.00" fill="#000000">+ profile : object</text>
<text text-anchor="start" x="848" y="-311.5" font-family="Helvetica,sans-Serif" font-size="10.00" fill="#000000">+ createdAt : date</text>
<text text-anchor="start" x="848" y="-299.5" font-family="Helvetica,sans-Serif" font-size="10.00" fill="#000000">+ updatedAt : date</text>
</a>
</g>
</g>
<!-- nographql -->
<g id="node11" class="node">
<title>nographql</title>
<g id="a_node11"><a xlink:title="nographql">
<polygon fill="#ffffff" stroke="#000000" points="956,-292.5 956,-380.5 1053.992,-380.5 1053.992,-292.5 956,-292.5"/>
<text text-anchor="middle" x="1004.996" y="-367.5" font-family="Helvetica,sans-Serif" font-size="10.00" fill="#000000">nographql</text>
<polyline fill="none" stroke="#000000" points="956,-360.5 1053.992,-360.5 "/>
<text text-anchor="start" x="964" y="-347.5" font-family="Helvetica,sans-Serif" font-size="10.00" fill="#000000">+ id : text</text>
<text text-anchor="start" x="964" y="-335.5" font-family="Helvetica,sans-Serif" font-size="10.00" fill="#000000">+ foo : text</text>
<text text-anchor="start" x="964" y="-323.5" font-family="Helvetica,sans-Serif" font-size="10.00" fill="#000000">+ bin : binary</text>
<text text-anchor="start" x="964" y="-311.5" font-family="Helvetica,sans-Serif" font-size="10.00" fill="#000000">+ createdAt : date</text>
<text text-anchor="start" x="964" y="-299.5" font-family="Helvetica,sans-Serif" font-size="10.00" fill="#000000">+ updatedAt : date</text>
</a>
</g>
</g>
</g>
</svg>
