<?xml version="1.0" encoding="UTF-8" standalone="no"?>
<!DOCTYPE svg PUBLIC "-//W3C//DTD SVG 1.1//EN"
 "http://www.w3.org/Graphics/SVG/1.1/DTD/svg11.dtd">
<!-- Generated by graphviz version 2.40.1 (20161225.0304)
 -->
<!-- Title: %0 Pages: 1 -->
<svg width="1837pt" height="419pt"
 viewBox="0.00 0.00 1836.99 419.00" xmlns="http://www.w3.org/2000/svg" xmlns:xlink="http://www.w3.org/1999/xlink">
<g id="graph0" class="graph" transform="scale(1 1) rotate(0) translate(4 415)">
<title>%0</title>
<polygon fill="#ffffff" stroke="transparent" points="-4,4 -4,-415 1832.992,-415 1832.992,4 -4,4"/>
<!-- user -->
<g id="node1" class="node">
<title>user</title>
<g id="a_node1"><a xlink:title="user">
<polygon fill="#ffffff" stroke="#000000" points="39,-286.5 39,-410.5 136.992,-410.5 136.992,-286.5 39,-286.5"/>
<text text-anchor="middle" x="87.996" y="-397.5" font-family="Helvetica,sans-Serif" font-size="10.00" fill="#000000">user</text>
<polyline fill="none" stroke="#000000" points="39,-390.5 136.992,-390.5 "/>
<text text-anchor="start" x="47" y="-377.5" font-family="Helvetica,sans-Serif" font-size="10.00" fill="#000000">+ name : text</text>
<text text-anchor="start" x="47" y="-365.5" font-family="Helvetica,sans-Serif" font-size="10.00" fill="#000000">+ sex : enum</text>
<text text-anchor="start" x="47" y="-353.5" font-family="Helvetica,sans-Serif" font-size="10.00" fill="#000000">+ age : number</text>
<text text-anchor="start" x="47" y="-341.5" font-family="Helvetica,sans-Serif" font-size="10.00" fill="#000000">+ password : text</text>
<text text-anchor="start" x="47" y="-329.5" font-family="Helvetica,sans-Serif" font-size="10.00" fill="#000000">+ salt : text</text>
<text text-anchor="start" x="47" y="-317.5" font-family="Helvetica,sans-Serif" font-size="10.00" fill="#000000">+ createdAt : date</text>
<text text-anchor="start" x="47" y="-305.5" font-family="Helvetica,sans-Serif" font-size="10.00" fill="#000000">+ updatedAt : date</text>
<text text-anchor="start" x="47" y="-293.5" font-family="Helvetica,sans-Serif" font-size="10.00" fill="#000000">+ id : number</text>
</a>
</g>
</g>
<!-- chatroom -->
<g id="node13" class="node">
<title>chatroom</title>
<g id="a_node13"><a xlink:title="chatroom">
<polygon fill="#ffffff" stroke="#000000" points="0,-149.5 0,-225.5 97.992,-225.5 97.992,-149.5 0,-149.5"/>
<text text-anchor="middle" x="48.996" y="-212.5" font-family="Helvetica,sans-Serif" font-size="10.00" fill="#000000">chatroom</text>
<polyline fill="none" stroke="#000000" points="0,-205.5 97.992,-205.5 "/>
<text text-anchor="start" x="8" y="-192.5" font-family="Helvetica,sans-Serif" font-size="10.00" fill="#000000">+ name : text</text>
<text text-anchor="start" x="8" y="-180.5" font-family="Helvetica,sans-Serif" font-size="10.00" fill="#000000">+ createdAt : date</text>
<text text-anchor="start" x="8" y="-168.5" font-family="Helvetica,sans-Serif" font-size="10.00" fill="#000000">+ updatedAt : date</text>
<text text-anchor="start" x="8" y="-156.5" font-family="Helvetica,sans-Serif" font-size="10.00" fill="#000000">+ id : text</text>
</a>
</g>
</g>
<!-- user&#45;&gt;chatroom -->
<g id="edge1" class="edge">
<title>user&#45;&gt;chatroom</title>
<path fill="none" stroke="#000000" stroke-dasharray="5,2" d="M45.1099,-286.323C42.3452,-280.3186 39.9719,-274.1642 38.22,-268 35.2989,-257.7216 35.0515,-246.4744 36.1508,-235.7326"/>
<polygon fill="#000000" stroke="#000000" points="39.6438,-236.0274 37.5741,-225.6367 32.7123,-235.0502 39.6438,-236.0274"/>
<text text-anchor="middle" x="52.884" y="-259" font-family="Helvetica,sans-Serif" font-size="10.00" fill="#000000">rooms</text>
</g>
<!-- person -->
<g id="node2" class="node">
<title>person</title>
<g id="a_node2"><a xlink:title="person">
<polygon fill="#ffffff" stroke="#000000" points="208,-137.5 208,-237.5 305.992,-237.5 305.992,-137.5 208,-137.5"/>
<text text-anchor="middle" x="256.996" y="-224.5" font-family="Helvetica,sans-Serif" font-size="10.00" fill="#000000">person</text>
<polyline fill="none" stroke="#000000" points="208,-217.5 305.992,-217.5 "/>
<text text-anchor="start" x="216" y="-204.5" font-family="Helvetica,sans-Serif" font-size="10.00" fill="#000000">+ name : text</text>
<text text-anchor="start" x="216" y="-192.5" font-family="Helvetica,sans-Serif" font-size="10.00" fill="#000000">+ sex : enum</text>
<text text-anchor="start" x="216" y="-180.5" font-family="Helvetica,sans-Serif" font-size="10.00" fill="#000000">+ age : number</text>
<text text-anchor="start" x="216" y="-168.5" font-family="Helvetica,sans-Serif" font-size="10.00" fill="#000000">+ createdAt : date</text>
<text text-anchor="start" x="216" y="-156.5" font-family="Helvetica,sans-Serif" font-size="10.00" fill="#000000">+ updatedAt : date</text>
<text text-anchor="start" x="216" y="-144.5" font-family="Helvetica,sans-Serif" font-size="10.00" fill="#000000">+ id : number</text>
</a>
</g>
</g>
<!-- ext_acl -->
<g id="node3" class="node">
<title>ext_acl</title>
<g id="a_node3"><a xlink:title="ext_acl">
<polygon fill="#ffffff" stroke="#000000" points="324,-143.5 324,-231.5 421.992,-231.5 421.992,-143.5 324,-143.5"/>
<text text-anchor="middle" x="372.996" y="-218.5" font-family="Helvetica,sans-Serif" font-size="10.00" fill="#000000">ext_acl</text>
<polyline fill="none" stroke="#000000" points="324,-211.5 421.992,-211.5 "/>
<text text-anchor="start" x="332" y="-198.5" font-family="Helvetica,sans-Serif" font-size="10.00" fill="#000000">+ name : text</text>
<text text-anchor="start" x="332" y="-186.5" font-family="Helvetica,sans-Serif" font-size="10.00" fill="#000000">+ age : number</text>
<text text-anchor="start" x="332" y="-174.5" font-family="Helvetica,sans-Serif" font-size="10.00" fill="#000000">+ createdAt : date</text>
<text text-anchor="start" x="332" y="-162.5" font-family="Helvetica,sans-Serif" font-size="10.00" fill="#000000">+ updatedAt : date</text>
<text text-anchor="start" x="332" y="-150.5" font-family="Helvetica,sans-Serif" font-size="10.00" fill="#000000">+ id : number</text>
</a>
</g>
</g>
<!-- ext_acl1 -->
<g id="node4" class="node">
<title>ext_acl1</title>
<g id="a_node4"><a xlink:title="ext_acl1">
<polygon fill="#ffffff" stroke="#000000" points="440,-143.5 440,-231.5 537.992,-231.5 537.992,-143.5 440,-143.5"/>
<text text-anchor="middle" x="488.996" y="-218.5" font-family="Helvetica,sans-Serif" font-size="10.00" fill="#000000">ext_acl1</text>
<polyline fill="none" stroke="#000000" points="440,-211.5 537.992,-211.5 "/>
<text text-anchor="start" x="448" y="-198.5" font-family="Helvetica,sans-Serif" font-size="10.00" fill="#000000">+ name : text</text>
<text text-anchor="start" x="448" y="-186.5" font-family="Helvetica,sans-Serif" font-size="10.00" fill="#000000">+ age : number</text>
<text text-anchor="start" x="448" y="-174.5" font-family="Helvetica,sans-Serif" font-size="10.00" fill="#000000">+ createdAt : date</text>
<text text-anchor="start" x="448" y="-162.5" font-family="Helvetica,sans-Serif" font-size="10.00" fill="#000000">+ updatedAt : date</text>
<text text-anchor="start" x="448" y="-150.5" font-family="Helvetica,sans-Serif" font-size="10.00" fill="#000000">+ id : number</text>
</a>
</g>
</g>
<!-- test_acl -->
<g id="node5" class="node">
<title>test_acl</title>
<g id="a_node5"><a xlink:title="test_acl">
<polygon fill="#ffffff" stroke="#000000" points="382,-298.5 382,-398.5 479.992,-398.5 479.992,-298.5 382,-298.5"/>
<text text-anchor="middle" x="430.996" y="-385.5" font-family="Helvetica,sans-Serif" font-size="10.00" fill="#000000">test_acl</text>
<polyline fill="none" stroke="#000000" points="382,-378.5 479.992,-378.5 "/>
<text text-anchor="start" x="390" y="-365.5" font-family="Helvetica,sans-Serif" font-size="10.00" fill="#000000">+ name : text</text>
<text text-anchor="start" x="390" y="-353.5" font-family="Helvetica,sans-Serif" font-size="10.00" fill="#000000">+ age : number</text>
<text text-anchor="start" x="390" y="-341.5" font-family="Helvetica,sans-Serif" font-size="10.00" fill="#000000">+ sex : text</text>
<text text-anchor="start" x="390" y="-329.5" font-family="Helvetica,sans-Serif" font-size="10.00" fill="#000000">+ createdAt : date</text>
<text text-anchor="start" x="390" y="-317.5" font-family="Helvetica,sans-Serif" font-size="10.00" fill="#000000">+ updatedAt : date</text>
<text text-anchor="start" x="390" y="-305.5" font-family="Helvetica,sans-Serif" font-size="10.00" fill="#000000">+ id : number</text>
</a>
</g>
</g>
<!-- test_acl&#45;&gt;ext_acl -->
<g id="edge2" class="edge">
<title>test_acl&#45;&gt;ext_acl</title>
<path fill="none" stroke="#000000" stroke-dasharray="5,2" d="M412.9624,-298.4411C406.3926,-280.2044 398.9423,-259.5234 392.2691,-240.9996"/>
<polygon fill="#000000" stroke="#000000" points="395.5413,-239.7557 388.8591,-231.5339 388.9556,-242.1283 395.5413,-239.7557"/>
<text text-anchor="middle" x="408.665" y="-259" font-family="Helvetica,sans-Serif" font-size="10.00" fill="#000000">ext</text>
</g>
<!-- test_acl&#45;&gt;ext_acl1 -->
<g id="edge3" class="edge">
<title>test_acl&#45;&gt;ext_acl1</title>
<path fill="none" stroke="#000000" stroke-dasharray="5,2" d="M449.0296,-298.4411C455.5994,-280.2044 463.0497,-259.5234 469.7229,-240.9996"/>
<polygon fill="none" stroke="#000000" points="473.0364,-242.1283 473.1329,-231.5339 466.4507,-239.7557 473.0364,-242.1283"/>
<text text-anchor="middle" x="473.4445" y="-259" font-family="Helvetica,sans-Serif" font-size="10.00" fill="#000000">ext1</text>
</g>
<!-- city -->
<g id="node6" class="node">
<title>city</title>
<g id="a_node6"><a xlink:title="city">
<polygon fill="#ffffff" stroke="#000000" points="556,-143.5 556,-231.5 653.992,-231.5 653.992,-143.5 556,-143.5"/>
<text text-anchor="middle" x="604.996" y="-218.5" font-family="Helvetica,sans-Serif" font-size="10.00" fill="#000000">city</text>
<polyline fill="none" stroke="#000000" points="556,-211.5 653.992,-211.5 "/>
<text text-anchor="start" x="564" y="-198.5" font-family="Helvetica,sans-Serif" font-size="10.00" fill="#000000">+ code : text</text>
<text text-anchor="start" x="564" y="-186.5" font-family="Helvetica,sans-Serif" font-size="10.00" fill="#000000">+ name : text</text>
<text text-anchor="start" x="564" y="-174.5" font-family="Helvetica,sans-Serif" font-size="10.00" fill="#000000">+ createdAt : date</text>
<text text-anchor="start" x="564" y="-162.5" font-family="Helvetica,sans-Serif" font-size="10.00" fill="#000000">+ updatedAt : date</text>
<text text-anchor="start" x="564" y="-150.5" font-family="Helvetica,sans-Serif" font-size="10.00" fill="#000000">+ id : number</text>
</a>
</g>
</g>
<!-- people -->
<g id="node7" class="node">
<title>people</title>
<g id="a_node7"><a xlink:title="people">
<polygon fill="#ffffff" stroke="#000000" points="556,-298.5 556,-398.5 653.992,-398.5 653.992,-298.5 556,-298.5"/>
<text text-anchor="middle" x="604.996" y="-385.5" font-family="Helvetica,sans-Serif" font-size="10.00" fill="#000000">people</text>
<polyline fill="none" stroke="#000000" points="556,-378.5 653.992,-378.5 "/>
<text text-anchor="start" x="564" y="-365.5" font-family="Helvetica,sans-Serif" font-size="10.00" fill="#000000">+ name : text</text>
<text text-anchor="start" x="564" y="-353.5" font-family="Helvetica,sans-Serif" font-size="10.00" fill="#000000">+ sex : enum</text>
<text text-anchor="start" x="564" y="-341.5" font-family="Helvetica,sans-Serif" font-size="10.00" fill="#000000">+ age : number</text>
<text text-anchor="start" x="564" y="-329.5" font-family="Helvetica,sans-Serif" font-size="10.00" fill="#000000">+ createdAt : date</text>
<text text-anchor="start" x="564" y="-317.5" font-family="Helvetica,sans-Serif" font-size="10.00" fill="#000000">+ updatedAt : date</text>
<text text-anchor="start" x="564" y="-305.5" font-family="Helvetica,sans-Serif" font-size="10.00" fill="#000000">+ id : number</text>
</a>
</g>
</g>
<!-- people&#45;&gt;city -->
<g id="edge12" class="edge">
<title>people&#45;&gt;city</title>
<path fill="none" stroke="#000000" stroke-dasharray="5,2" d="M604.996,-298.4411C604.996,-280.4554 604.996,-260.0921 604.996,-241.7655"/>
<polygon fill="none" stroke="#000000" points="608.4961,-241.5338 604.996,-231.5339 601.4961,-241.5339 608.4961,-241.5338"/>
<text text-anchor="middle" x="612.495" y="-259" font-family="Helvetica,sans-Serif" font-size="10.00" fill="#000000">city</text>
</g>
<!-- people&#45;&gt;people -->
<g id="edge4" class="edge">
<title>people&#45;&gt;people</title>
<path fill="none" stroke="#000000" stroke-dasharray="5,2" d="M654.0735,-350.0604C664.4783,-349.902 671.992,-349.3818 671.992,-348.5 671.992,-347.9489 669.0569,-347.539 664.3154,-347.2704"/>
<polygon fill="none" stroke="#000000" points="664.1813,-343.7643 654.0735,-346.9396 663.9552,-350.7607 664.1813,-343.7643"/>
<text text-anchor="middle" x="687.549" y="-345.5" font-family="Helvetica,sans-Serif" font-size="10.00" fill="#000000">mother</text>
</g>
<!-- people&#45;&gt;people -->
<g id="edge5" class="edge">
<title>people&#45;&gt;people</title>
<path fill="none" stroke="#000000" stroke-dasharray="5,2" d="M654.1219,-351.6382C679.468,-352.0488 703.106,-351.0027 703.106,-348.5 703.106,-346.3394 685.4897,-345.2645 664.3659,-345.2751"/>
<polygon fill="none" stroke="#000000" points="664.0919,-341.7772 654.1219,-345.3618 664.1512,-348.7769 664.0919,-341.7772"/>
<text text-anchor="middle" x="715.888" y="-345.5" font-family="Helvetica,sans-Serif" font-size="10.00" fill="#000000">father</text>
</g>
<!-- people&#45;&gt;people -->
<g id="edge6" class="edge">
<title>people&#45;&gt;people</title>
<path fill="none" stroke="#000000" stroke-dasharray="5,2" d="M654.0381,-352.8651C690.1936,-354.1878 728.67,-352.7328 728.67,-348.5 728.67,-344.664 697.0698,-343.1094 664.2344,-343.8361"/>
<polygon fill="none" stroke="#000000" points="663.9312,-340.3434 654.0381,-344.1349 664.1363,-347.3404 663.9312,-340.3434"/>
<text text-anchor="middle" x="747.847" y="-345.5" font-family="Helvetica,sans-Serif" font-size="10.00" fill="#000000">husband</text>
</g>
<!-- people&#45;&gt;people -->
<g id="edge7" class="edge">
<title>people&#45;&gt;people</title>
<path fill="none" stroke="#000000" stroke-dasharray="5,2" d="M654.2273,-353.7374C704.4969,-356.4102 767.024,-354.6645 767.024,-348.5 767.024,-342.7449 712.5255,-340.8411 664.3822,-342.7886"/>
<polygon fill="#000000" stroke="#000000" points="664.0532,-339.3 654.2273,-343.2626 664.3796,-346.2924 664.0532,-339.3"/>
<text text-anchor="middle" x="788.701" y="-345.5" font-family="Helvetica,sans-Serif" font-size="10.00" fill="#000000">husbands</text>
</g>
<!-- people&#45;&gt;people -->
<g id="edge8" class="edge">
<title>people&#45;&gt;people</title>
<path fill="none" stroke="#000000" stroke-dasharray="5,2" d="M654.1354,-354.3863C718.5674,-358.6296 810.378,-356.6675 810.378,-348.5 810.378,-340.7473 727.6551,-338.5857 664.1474,-342.0152"/>
<polygon fill="none" stroke="#000000" points="663.9087,-338.5232 654.1354,-342.6137 664.3265,-345.5107 663.9087,-338.5232"/>
<text text-anchor="middle" x="819.266" y="-345.5" font-family="Helvetica,sans-Serif" font-size="10.00" fill="#000000">wife</text>
</g>
<!-- people&#45;&gt;people -->
<g id="edge9" class="edge">
<title>people&#45;&gt;people</title>
<path fill="none" stroke="#000000" stroke-dasharray="5,2" d="M654.1442,-355.1772C724.7589,-360.7661 828.378,-358.5403 828.378,-348.5 828.378,-338.9303 734.2455,-336.4598 664.2779,-341.0884"/>
<polygon fill="#000000" stroke="#000000" points="663.8651,-337.609 654.1442,-341.8228 664.3711,-344.5907 663.8651,-337.609"/>
<text text-anchor="middle" x="841.156" y="-345.5" font-family="Helvetica,sans-Serif" font-size="10.00" fill="#000000">childs</text>
</g>
<!-- people&#45;&gt;people -->
<g id="edge10" class="edge">
<title>people&#45;&gt;people</title>
<path fill="none" stroke="#000000" stroke-dasharray="5,2" d="M654.2088,-355.8082C732.8973,-362.929 853.934,-360.493 853.934,-348.5 853.934,-337.0224 743.0754,-334.298 664.5739,-340.3268"/>
<polygon fill="#000000" stroke="#000000" points="663.8831,-336.8722 654.2088,-341.1918 664.4653,-343.8479 663.8831,-336.8722"/>
<text text-anchor="middle" x="871.4405" y="-345.5" font-family="Helvetica,sans-Serif" font-size="10.00" fill="#000000">patients</text>
</g>
<!-- people&#45;&gt;people -->
<g id="edge11" class="edge">
<title>people&#45;&gt;people</title>
<path fill="none" stroke="#000000" stroke-dasharray="5,2" d="M654.1302,-356.266C742.9167,-365.1141 888.947,-362.5254 888.947,-348.5 888.947,-334.9951 753.5538,-332.0938 664.2407,-339.7962"/>
<polygon fill="none" stroke="#000000" points="663.7642,-336.3253 654.1302,-340.734 664.4107,-343.2954 663.7642,-336.3253"/>
<text text-anchor="middle" x="902.8395" y="-345.5" font-family="Helvetica,sans-Serif" font-size="10.00" fill="#000000">doctor</text>
</g>
<!-- people&#45;&gt;people -->
<g id="edge13" class="edge">
<title>people&#45;&gt;people</title>
<path fill="none" stroke="#000000" stroke-dasharray="5,2" d="M654.3276,-356.7625C751.1793,-367.2784 916.732,-364.5242 916.732,-348.5 916.732,-333.0235 762.303,-329.9254 664.4901,-339.2057"/>
<polygon fill="#000000" stroke="#000000" points="663.9229,-335.7452 654.3276,-340.2375 664.63,-342.7094 663.9229,-335.7452"/>
<text text-anchor="middle" x="941.178" y="-345.5" font-family="Helvetica,sans-Serif" font-size="10.00" fill="#000000">my_friends</text>
</g>
<!-- people&#45;&gt;people -->
<g id="edge14" class="edge">
<title>people&#45;&gt;people</title>
<path fill="none" stroke="#000000" stroke-dasharray="5,2" d="M654.1305,-357.0034C763.2297,-369.4751 965.624,-366.6406 965.624,-348.5 965.624,-330.9086 775.2985,-327.7105 664.2873,-338.906"/>
<polygon fill="#000000" stroke="#000000" points="663.6997,-335.4489 654.1305,-339.9966 664.4471,-342.4089 663.6997,-335.4489"/>
<text text-anchor="middle" x="980.626" y="-345.5" font-family="Helvetica,sans-Serif" font-size="10.00" fill="#000000">friends</text>
</g>
<!-- level -->
<g id="node8" class="node">
<title>level</title>
<g id="a_node8"><a xlink:title="level">
<polygon fill="#ffffff" stroke="#000000" points="1171,-304.5 1171,-392.5 1268.992,-392.5 1268.992,-304.5 1171,-304.5"/>
<text text-anchor="middle" x="1219.996" y="-379.5" font-family="Helvetica,sans-Serif" font-size="10.00" fill="#000000">level</text>
<polyline fill="none" stroke="#000000" points="1171,-372.5 1268.992,-372.5 "/>
<text text-anchor="start" x="1179" y="-359.5" font-family="Helvetica,sans-Serif" font-size="10.00" fill="#000000">+ name : text</text>
<text text-anchor="start" x="1179" y="-347.5" font-family="Helvetica,sans-Serif" font-size="10.00" fill="#000000">+ level_f : text</text>
<text text-anchor="start" x="1179" y="-335.5" font-family="Helvetica,sans-Serif" font-size="10.00" fill="#000000">+ createdAt : date</text>
<text text-anchor="start" x="1179" y="-323.5" font-family="Helvetica,sans-Serif" font-size="10.00" fill="#000000">+ updatedAt : date</text>
<text text-anchor="start" x="1179" y="-311.5" font-family="Helvetica,sans-Serif" font-size="10.00" fill="#000000">+ id : number</text>
</a>
</g>
</g>
<!-- level&#45;&gt;level -->
<g id="edge15" class="edge">
<title>level&#45;&gt;level</title>
<path fill="none" stroke="#000000" stroke-dasharray="5,2" d="M1269.0735,-356.3022C1279.4783,-355.5099 1286.992,-352.9092 1286.992,-348.5 1286.992,-345.6754 1283.9084,-343.5929 1278.9564,-342.2527"/>
<polygon fill="none" stroke="#000000" points="1279.496,-338.7946 1269.0735,-340.6978 1278.408,-345.7095 1279.496,-338.7946"/>
<text text-anchor="middle" x="1301.999" y="-345.5" font-family="Helvetica,sans-Serif" font-size="10.00" fill="#000000">one_l2</text>
</g>
<!-- level&#45;&gt;level -->
<g id="edge16" class="edge">
<title>level&#45;&gt;level</title>
<path fill="none" stroke="#000000" stroke-dasharray="5,2" d="M1269.2098,-364.2313C1294.0519,-366.1735 1317.006,-360.9297 1317.006,-348.5 1317.006,-337.7697 1299.8993,-332.3947 1279.2392,-332.3751"/>
<polygon fill="none" stroke="#000000" points="1279.0648,-328.8791 1269.2098,-332.7687 1279.3394,-335.8737 1279.0648,-328.8791"/>
<text text-anchor="middle" x="1332.013" y="-345.5" font-family="Helvetica,sans-Serif" font-size="10.00" fill="#000000">one_l3</text>
</g>
<!-- sub_level -->
<g id="node9" class="node">
<title>sub_level</title>
<g id="a_node9"><a xlink:title="sub_level">
<polygon fill="#ffffff" stroke="#000000" points="1076,-143.5 1076,-231.5 1173.992,-231.5 1173.992,-143.5 1076,-143.5"/>
<text text-anchor="middle" x="1124.996" y="-218.5" font-family="Helvetica,sans-Serif" font-size="10.00" fill="#000000">sub_level</text>
<polyline fill="none" stroke="#000000" points="1076,-211.5 1173.992,-211.5 "/>
<text text-anchor="start" x="1084" y="-198.5" font-family="Helvetica,sans-Serif" font-size="10.00" fill="#000000">+ name : text</text>
<text text-anchor="start" x="1084" y="-186.5" font-family="Helvetica,sans-Serif" font-size="10.00" fill="#000000">+ sublevel_f : text</text>
<text text-anchor="start" x="1084" y="-174.5" font-family="Helvetica,sans-Serif" font-size="10.00" fill="#000000">+ createdAt : date</text>
<text text-anchor="start" x="1084" y="-162.5" font-family="Helvetica,sans-Serif" font-size="10.00" fill="#000000">+ updatedAt : date</text>
<text text-anchor="start" x="1084" y="-150.5" font-family="Helvetica,sans-Serif" font-size="10.00" fill="#000000">+ id : number</text>
</a>
</g>
</g>
<!-- level&#45;&gt;sub_level -->
<g id="edge17" class="edge">
<title>level&#45;&gt;sub_level</title>
<path fill="none" stroke="#000000" stroke-dasharray="5,2" d="M1183.4582,-304.3603C1176.75,-297.705 1169.486,-291.3041 1161.996,-286 1145.6038,-274.3916 1131.5585,-284.7951 1120.541,-268 1115.4667,-260.2646 1113.3094,-251.1577 1112.9013,-241.9029"/>
<polygon fill="none" stroke="#000000" points="1116.4014,-241.9244 1113.0897,-231.8605 1109.4027,-241.7931 1116.4014,-241.9244"/>
<text text-anchor="middle" x="1135.7235" y="-259" font-family="Helvetica,sans-Serif" font-size="10.00" fill="#000000">one_sl</text>
</g>
<!-- level&#45;&gt;sub_level -->
<g id="edge18" class="edge">
<title>level&#45;&gt;sub_level</title>
<path fill="none" stroke="#000000" stroke-dasharray="5,2" d="M1193.7854,-304.0799C1182.1559,-284.371 1168.3797,-261.024 1156.2217,-240.4193"/>
<polygon fill="#000000" stroke="#000000" points="1159.2174,-238.609 1151.1211,-231.7752 1153.1887,-242.1663 1159.2174,-238.609"/>
<text text-anchor="middle" x="1208.836" y="-259" font-family="Helvetica,sans-Serif" font-size="10.00" fill="#000000">many_sublevels</text>
</g>
<!-- level_lproperty -->
<g id="node11" class="node">
<title>level_lproperty</title>
<g id="a_node11"><a xlink:title="level_lproperty">
<polygon fill="#ffffff" stroke="#000000" points="1277,-137.5 1277,-237.5 1374.992,-237.5 1374.992,-137.5 1277,-137.5"/>
<text text-anchor="middle" x="1325.996" y="-224.5" font-family="Helvetica,sans-Serif" font-size="10.00" fill="#000000">level_lproperty</text>
<polyline fill="none" stroke="#000000" points="1277,-217.5 1374.992,-217.5 "/>
<text text-anchor="start" x="1285" y="-204.5" font-family="Helvetica,sans-Serif" font-size="10.00" fill="#000000">+ name : text</text>
<text text-anchor="start" x="1285" y="-192.5" font-family="Helvetica,sans-Serif" font-size="10.00" fill="#000000">+ weight : integer</text>
<text text-anchor="start" x="1285" y="-180.5" font-family="Helvetica,sans-Serif" font-size="10.00" fill="#000000">+ level_id : serial</text>
<text text-anchor="start" x="1285" y="-168.5" font-family="Helvetica,sans-Serif" font-size="10.00" fill="#000000">+ createdAt : date</text>
<text text-anchor="start" x="1285" y="-156.5" font-family="Helvetica,sans-Serif" font-size="10.00" fill="#000000">+ updatedAt : date</text>
<text text-anchor="start" x="1285" y="-144.5" font-family="Helvetica,sans-Serif" font-size="10.00" fill="#000000">+ id : text</text>
</a>
</g>
</g>
<!-- level&#45;&gt;level_lproperty -->
<g id="edge19" class="edge">
<title>level&#45;&gt;level_lproperty</title>
<path fill="none" stroke="#000000" stroke-dasharray="5,2" d="M1240.5874,-304.0651C1248.4781,-288.4378 1258.0238,-271.0346 1268.104,-256 1270.3327,-252.6759 1272.6975,-249.3287 1275.1485,-245.9966"/>
<polygon fill="#000000" stroke="#000000" points="1278.136,-247.8495 1281.3905,-237.7669 1272.5587,-243.6194 1278.136,-247.8495"/>
<text text-anchor="middle" x="1287.442" y="-259" font-family="Helvetica,sans-Serif" font-size="10.00" fill="#000000">lproperty</text>
</g>
<!-- sub_level&#45;&gt;sub_level -->
<g id="edge20" class="edge">
<title>sub_level&#45;&gt;sub_level</title>
<path fill="none" stroke="#000000" stroke-dasharray="5,2" d="M1174.0735,-200.927C1184.4783,-199.5636 1191.992,-195.0879 1191.992,-187.5 1191.992,-182.639 1188.9084,-179.0553 1183.9564,-176.7488"/>
<polygon fill="none" stroke="#000000" points="1184.6407,-173.3081 1174.0735,-174.073 1182.8112,-180.0648 1184.6407,-173.3081"/>
<text text-anchor="middle" x="1224.2265" y="-184.5" font-family="Helvetica,sans-Serif" font-size="10.00" fill="#000000">subl_one_subl</text>
</g>
<!-- descendant_level -->
<g id="node10" class="node">
<title>descendant_level</title>
<g id="a_node10"><a xlink:title="descendant_level">
<polygon fill="#ffffff" stroke="#000000" points="1057.3875,-.5 1057.3875,-88.5 1192.6045,-88.5 1192.6045,-.5 1057.3875,-.5"/>
<text text-anchor="middle" x="1124.996" y="-75.5" font-family="Helvetica,sans-Serif" font-size="10.00" fill="#000000">descendant_level</text>
<polyline fill="none" stroke="#000000" points="1057.3875,-68.5 1192.6045,-68.5 "/>
<text text-anchor="start" x="1065.3875" y="-55.5" font-family="Helvetica,sans-Serif" font-size="10.00" fill="#000000">+ name : text</text>
<text text-anchor="start" x="1065.3875" y="-43.5" font-family="Helvetica,sans-Serif" font-size="10.00" fill="#000000">+ descendant_level_f : text</text>
<text text-anchor="start" x="1065.3875" y="-31.5" font-family="Helvetica,sans-Serif" font-size="10.00" fill="#000000">+ createdAt : date</text>
<text text-anchor="start" x="1065.3875" y="-19.5" font-family="Helvetica,sans-Serif" font-size="10.00" fill="#000000">+ updatedAt : date</text>
<text text-anchor="start" x="1065.3875" y="-7.5" font-family="Helvetica,sans-Serif" font-size="10.00" fill="#000000">+ id : number</text>
</a>
</g>
</g>
<!-- sub_level&#45;&gt;descendant_level -->
<g id="edge21" class="edge">
<title>sub_level&#45;&gt;descendant_level</title>
<path fill="none" stroke="#000000" stroke-dasharray="5,2" d="M1124.996,-143.4285C1124.996,-129.2929 1124.996,-113.4715 1124.996,-98.6986"/>
<polygon fill="none" stroke="#000000" points="1128.4961,-98.6722 1124.996,-88.6722 1121.4961,-98.6722 1128.4961,-98.6722"/>
<text text-anchor="middle" x="1186.9655" y="-110" font-family="Helvetica,sans-Serif" font-size="10.00" fill="#000000">subl_one_descendant_level</text>
</g>
<!-- level_lproperty&#45;&gt;level -->
<g id="edge22" class="edge">
<title>level_lproperty&#45;&gt;level</title>
<path fill="none" stroke="#000000" stroke-dasharray="5,2" d="M1318.9583,-237.7913C1316.1954,-248.222 1312.3494,-258.8208 1306.996,-268 1299.0871,-281.561 1288.1658,-294.1885 1276.7298,-305.2345"/>
<polygon fill="none" stroke="#000000" points="1274.1122,-302.8889 1269.167,-312.2588 1278.876,-308.0179 1274.1122,-302.8889"/>
<text text-anchor="middle" x="1322.274" y="-259" font-family="Helvetica,sans-Serif" font-size="10.00" fill="#000000">level</text>
</g>
<!-- pet -->
<g id="node12" class="node">
<title>pet</title>
<g id="a_node12"><a xlink:title="pet">
<polygon fill="#ffffff" stroke="#000000" points="208,-310.5 208,-386.5 305.992,-386.5 305.992,-310.5 208,-310.5"/>
<text text-anchor="middle" x="256.996" y="-373.5" font-family="Helvetica,sans-Serif" font-size="10.00" fill="#000000">pet</text>
<polyline fill="none" stroke="#000000" points="208,-366.5 305.992,-366.5 "/>
<text text-anchor="start" x="216" y="-353.5" font-family="Helvetica,sans-Serif" font-size="10.00" fill="#000000">+ name : text</text>
<text text-anchor="start" x="216" y="-341.5" font-family="Helvetica,sans-Serif" font-size="10.00" fill="#000000">+ createdAt : date</text>
<text text-anchor="start" x="216" y="-329.5" font-family="Helvetica,sans-Serif" font-size="10.00" fill="#000000">+ updatedAt : date</text>
<text text-anchor="start" x="216" y="-317.5" font-family="Helvetica,sans-Serif" font-size="10.00" fill="#000000">+ id : text</text>
</a>
</g>
</g>
<!-- pet&#45;&gt;person -->
<g id="edge23" class="edge">
<title>pet&#45;&gt;person</title>
<path fill="none" stroke="#000000" stroke-dasharray="5,2" d="M256.996,-310.3452C256.996,-291.6459 256.996,-268.6851 256.996,-247.6948"/>
<polygon fill="none" stroke="#000000" points="260.4961,-247.576 256.996,-237.5761 253.4961,-247.5761 260.4961,-247.576"/>
<text text-anchor="middle" x="279.5025" y="-259" font-family="Helvetica,sans-Serif" font-size="10.00" fill="#000000">createdBy</text>
</g>
<!-- chatroom&#45;&gt;user -->
<g id="edge25" class="edge">
<title>chatroom&#45;&gt;user</title>
<path fill="none" stroke="#000000" stroke-dasharray="5,2" d="M58.5037,-225.528C60.9633,-235.4426 63.5945,-246.1175 65.996,-256 67.5935,-262.574 69.2433,-269.4138 70.8878,-276.266"/>
<polygon fill="#000000" stroke="#000000" points="67.5542,-277.3743 73.2867,-286.2844 74.3618,-275.7442 67.5542,-277.3743"/>
<text text-anchor="middle" x="89.828" y="-259" font-family="Helvetica,sans-Serif" font-size="10.00" fill="#000000">mambers</text>
</g>
<!-- chatmessage -->
<g id="node14" class="node">
<title>chatmessage</title>
<g id="a_node14"><a xlink:title="chatmessage">
<polygon fill="#ffffff" stroke="#000000" points="58,-6.5 58,-82.5 155.992,-82.5 155.992,-6.5 58,-6.5"/>
<text text-anchor="middle" x="106.996" y="-69.5" font-family="Helvetica,sans-Serif" font-size="10.00" fill="#000000">chatmessage</text>
<polyline fill="none" stroke="#000000" points="58,-62.5 155.992,-62.5 "/>
<text text-anchor="start" x="66" y="-49.5" font-family="Helvetica,sans-Serif" font-size="10.00" fill="#000000">+ msg : text</text>
<text text-anchor="start" x="66" y="-37.5" font-family="Helvetica,sans-Serif" font-size="10.00" fill="#000000">+ createdAt : date</text>
<text text-anchor="start" x="66" y="-25.5" font-family="Helvetica,sans-Serif" font-size="10.00" fill="#000000">+ updatedAt : date</text>
<text text-anchor="start" x="66" y="-13.5" font-family="Helvetica,sans-Serif" font-size="10.00" fill="#000000">+ id : text</text>
</a>
</g>
</g>
<!-- chatroom&#45;&gt;chatmessage -->
<g id="edge24" class="edge">
<title>chatroom&#45;&gt;chatmessage</title>
<path fill="none" stroke="#000000" stroke-dasharray="5,2" d="M36.5333,-149.4347C34.0307,-135.6047 33.6803,-120.1533 39.431,-107 42.3795,-100.256 46.4544,-93.9155 51.1548,-88.0515"/>
<polygon fill="#000000" stroke="#000000" points="53.9411,-90.1828 57.9053,-80.3575 48.6792,-85.5662 53.9411,-90.1828"/>
<text text-anchor="middle" x="62.7785" y="-110" font-family="Helvetica,sans-Serif" font-size="10.00" fill="#000000">messages</text>
</g>
<!-- chatmessage&#45;&gt;user -->
<g id="edge26" class="edge">
<title>chatmessage&#45;&gt;user</title>
<path fill="none" stroke="#000000" stroke-dasharray="5,2" d="M114.0962,-82.7261C115.3037,-90.7186 116.369,-99.113 116.996,-107 122.6668,-178.336 126.9983,-197.4526 114.996,-268 114.5367,-270.6998 114.0018,-273.4317 113.4048,-276.1768"/>
<polygon fill="none" stroke="#000000" points="109.944,-275.598 110.9953,-286.1406 116.7478,-277.2435 109.944,-275.598"/>
<text text-anchor="middle" x="145.5025" y="-184.5" font-family="Helvetica,sans-Serif" font-size="10.00" fill="#000000">createdBy</text>
</g>
<!-- chatmessage&#45;&gt;chatroom -->
<g id="edge27" class="edge">
<title>chatmessage&#45;&gt;chatroom</title>
<path fill="none" stroke="#000000" stroke-dasharray="5,2" d="M97.3328,-82.5129C93.9052,-94.3685 89.7122,-107.3783 84.996,-119 82.1828,-125.9324 78.8899,-133.0901 75.4593,-140.0471"/>
<polygon fill="none" stroke="#000000" points="72.1327,-138.8682 70.7279,-149.3695 78.3748,-142.0363 72.1327,-138.8682"/>
<text text-anchor="middle" x="101.384" y="-110" font-family="Helvetica,sans-Serif" font-size="10.00" fill="#000000">room</text>
</g>
<!-- test_fields_type -->
<g id="node15" class="node">
<title>test_fields_type</title>
<g id="a_node15"><a xlink:title="test_fields_type">
<polygon fill="#ffffff" stroke="#000000" points="1383,-286.5 1383,-410.5 1480.992,-410.5 1480.992,-286.5 1383,-286.5"/>
<text text-anchor="middle" x="1431.996" y="-397.5" font-family="Helvetica,sans-Serif" font-size="10.00" fill="#000000">test_fields_type</text>
<polyline fill="none" stroke="#000000" points="1383,-390.5 1480.992,-390.5 "/>
<text text-anchor="start" x="1391" y="-377.5" font-family="Helvetica,sans-Serif" font-size="10.00" fill="#000000">+ name1 : text</text>
<text text-anchor="start" x="1391" y="-365.5" font-family="Helvetica,sans-Serif" font-size="10.00" fill="#000000">+ name2 : text</text>
<text text-anchor="start" x="1391" y="-353.5" font-family="Helvetica,sans-Serif" font-size="10.00" fill="#000000">+ profile : object</text>
<text text-anchor="start" x="1391" y="-341.5" font-family="Helvetica,sans-Serif" font-size="10.00" fill="#000000">+ binary1 : binary</text>
<text text-anchor="start" x="1391" y="-329.5" font-family="Helvetica,sans-Serif" font-size="10.00" fill="#000000">+ binary2 : binary</text>
<text text-anchor="start" x="1391" y="-317.5" font-family="Helvetica,sans-Serif" font-size="10.00" fill="#000000">+ createdAt : date</text>
<text text-anchor="start" x="1391" y="-305.5" font-family="Helvetica,sans-Serif" font-size="10.00" fill="#000000">+ updatedAt : date</text>
<text text-anchor="start" x="1391" y="-293.5" font-family="Helvetica,sans-Serif" font-size="10.00" fill="#000000">+ id : text</text>
</a>
</g>
</g>
<!-- json -->
<g id="node16" class="node">
<title>json</title>
<g id="a_node16"><a xlink:title="json">
<polygon fill="#ffffff" stroke="#000000" points="1499,-304.5 1499,-392.5 1596.992,-392.5 1596.992,-304.5 1499,-304.5"/>
<text text-anchor="middle" x="1547.996" y="-379.5" font-family="Helvetica,sans-Serif" font-size="10.00" fill="#000000">json</text>
<polyline fill="none" stroke="#000000" points="1499,-372.5 1596.992,-372.5 "/>
<text text-anchor="start" x="1507" y="-359.5" font-family="Helvetica,sans-Serif" font-size="10.00" fill="#000000">+ name : text</text>
<text text-anchor="start" x="1507" y="-347.5" font-family="Helvetica,sans-Serif" font-size="10.00" fill="#000000">+ profile : object</text>
<text text-anchor="start" x="1507" y="-335.5" font-family="Helvetica,sans-Serif" font-size="10.00" fill="#000000">+ createdAt : date</text>
<text text-anchor="start" x="1507" y="-323.5" font-family="Helvetica,sans-Serif" font-size="10.00" fill="#000000">+ updatedAt : date</text>
<text text-anchor="start" x="1507" y="-311.5" font-family="Helvetica,sans-Serif" font-size="10.00" fill="#000000">+ id : text</text>
</a>
</g>
</g>
<!-- nographql -->
<g id="node17" class="node">
<title>nographql</title>
<g id="a_node17"><a xlink:title="nographql">
<polygon fill="#d3d3d3" stroke="#000000" points="1615,-304.5 1615,-392.5 1712.992,-392.5 1712.992,-304.5 1615,-304.5"/>
<text text-anchor="middle" x="1663.996" y="-379.5" font-family="Helvetica,sans-Serif" font-size="10.00" fill="#000000">nographql</text>
<polyline fill="none" stroke="#000000" points="1615,-372.5 1712.992,-372.5 "/>
<text text-anchor="start" x="1623" y="-359.5" font-family="Helvetica,sans-Serif" font-size="10.00" fill="#000000">+ foo : text</text>
<text text-anchor="start" x="1623" y="-347.5" font-family="Helvetica,sans-Serif" font-size="10.00" fill="#000000">+ bin : binary</text>
<text text-anchor="start" x="1623" y="-335.5" font-family="Helvetica,sans-Serif" font-size="10.00" fill="#000000">+ createdAt : date</text>
<text text-anchor="start" x="1623" y="-323.5" font-family="Helvetica,sans-Serif" font-size="10.00" fill="#000000">+ updatedAt : date</text>
<text text-anchor="start" x="1623" y="-311.5" font-family="Helvetica,sans-Serif" font-size="10.00" fill="#000000">+ id : text</text>
</a>
</g>
</g>
<!-- hook_test -->
<g id="node18" class="node">
<title>hook_test</title>
<g id="a_node18"><a xlink:title="hook_test">
<polygon fill="#ffffff" stroke="#000000" points="1731,-310.5 1731,-386.5 1828.992,-386.5 1828.992,-310.5 1731,-310.5"/>
<text text-anchor="middle" x="1779.996" y="-373.5" font-family="Helvetica,sans-Serif" font-size="10.00" fill="#000000">hook_test</text>
<polyline fill="none" stroke="#000000" points="1731,-366.5 1828.992,-366.5 "/>
<text text-anchor="start" x="1739" y="-353.5" font-family="Helvetica,sans-Serif" font-size="10.00" fill="#000000">+ name : text</text>
<text text-anchor="start" x="1739" y="-341.5" font-family="Helvetica,sans-Serif" font-size="10.00" fill="#000000">+ createdAt : date</text>
<text text-anchor="start" x="1739" y="-329.5" font-family="Helvetica,sans-Serif" font-size="10.00" fill="#000000">+ updatedAt : date</text>
<text text-anchor="start" x="1739" y="-317.5" font-family="Helvetica,sans-Serif" font-size="10.00" fill="#000000">+ id : text</text>
</a>
</g>
</g>
</g>
</svg>
