<?xml version="1.0" encoding="UTF-8" standalone="no"?>
<!DOCTYPE svg PUBLIC "-//W3C//DTD SVG 1.1//EN"
 "http://www.w3.org/Graphics/SVG/1.1/DTD/svg11.dtd">
<!-- Generated by graphviz version 2.40.1 (20161225.0304)
 -->
<!-- Title: %0 Pages: 1 -->
<svg width="2158pt" height="443pt"
 viewBox="0.00 0.00 2157.99 443.00" xmlns="http://www.w3.org/2000/svg" xmlns:xlink="http://www.w3.org/1999/xlink">
<g id="graph0" class="graph" transform="scale(1 1) rotate(0) translate(4 439)">
<title>%0</title>
<polygon fill="#ffffff" stroke="transparent" points="-4,4 -4,-439 2153.992,-439 2153.992,4 -4,4"/>
<!-- user -->
<g id="node1" class="node">
<title>user</title>
<g id="a_node1"><a xlink:title="user">
<polygon fill="#ffffff" stroke="#000000" points="29.2915,-298.5 29.2915,-422.5 146.7005,-422.5 146.7005,-298.5 29.2915,-298.5"/>
<text text-anchor="middle" x="87.996" y="-409.5" font-family="Helvetica,sans-Serif" font-size="10.00" fill="#000000">user(用户表)</text>
<polyline fill="none" stroke="#000000" points="29.2915,-402.5 146.7005,-402.5 "/>
<text text-anchor="start" x="37.2915" y="-389.5" font-family="Helvetica,sans-Serif" font-size="10.00" fill="#000000">+ name(用户名) : text</text>
<text text-anchor="start" x="37.2915" y="-377.5" font-family="Helvetica,sans-Serif" font-size="10.00" fill="#000000">+ sex : enum</text>
<text text-anchor="start" x="37.2915" y="-365.5" font-family="Helvetica,sans-Serif" font-size="10.00" fill="#000000">+ age : number</text>
<text text-anchor="start" x="37.2915" y="-353.5" font-family="Helvetica,sans-Serif" font-size="10.00" fill="#000000">+ password(密码) : text</text>
<text text-anchor="start" x="37.2915" y="-341.5" font-family="Helvetica,sans-Serif" font-size="10.00" fill="#000000">+ salt : text</text>
<text text-anchor="start" x="37.2915" y="-329.5" font-family="Helvetica,sans-Serif" font-size="10.00" fill="#000000">+ createdAt : date</text>
<text text-anchor="start" x="37.2915" y="-317.5" font-family="Helvetica,sans-Serif" font-size="10.00" fill="#000000">+ updatedAt : date</text>
<text text-anchor="start" x="37.2915" y="-305.5" font-family="Helvetica,sans-Serif" font-size="10.00" fill="#000000">+ id : serial</text>
</a>
</g>
</g>
<!-- chatroom -->
<g id="node16" class="node">
<title>chatroom</title>
<g id="a_node16"><a xlink:title="chatroom">
<polygon fill="#ffffff" stroke="#000000" points="0,-149.5 0,-225.5 97.992,-225.5 97.992,-149.5 0,-149.5"/>
<text text-anchor="middle" x="48.996" y="-212.5" font-family="Helvetica,sans-Serif" font-size="10.00" fill="#000000">chatroom</text>
<polyline fill="none" stroke="#000000" points="0,-205.5 97.992,-205.5 "/>
<text text-anchor="start" x="8" y="-192.5" font-family="Helvetica,sans-Serif" font-size="10.00" fill="#000000">+ name : text</text>
<text text-anchor="start" x="8" y="-180.5" font-family="Helvetica,sans-Serif" font-size="10.00" fill="#000000">+ createdAt : date</text>
<text text-anchor="start" x="8" y="-168.5" font-family="Helvetica,sans-Serif" font-size="10.00" fill="#000000">+ updatedAt : date</text>
<text text-anchor="start" x="8" y="-156.5" font-family="Helvetica,sans-Serif" font-size="10.00" fill="#000000">+ id : text</text>
</a>
</g>
</g>
<!-- user&#45;&gt;chatroom -->
<g id="edge1" class="edge">
<title>user&#45;&gt;chatroom</title>
<path fill="none" stroke="#000000" d="M46.6504,-292.4218C43.2177,-284.4103 40.2795,-276.1732 38.22,-268 35.4476,-256.9975 35.4829,-244.9582 36.8346,-233.6209"/>
<ellipse fill="none" stroke="#000000" cx="48.0602" cy="-295.5777" rx="3.2" ry="3.2"/>
<polygon fill="none" stroke="#000000" points="40.8002,-225.9231 36.8628,-233.4289 35.2602,-225.1059 40.8002,-225.9231"/>
<text text-anchor="middle" x="52.884" y="-259" font-family="Helvetica,sans-Serif" font-size="10.00" fill="#000000">rooms</text>
</g>
<!-- person -->
<g id="node2" class="node">
<title>person</title>
<g id="a_node2"><a xlink:title="person">
<polygon fill="#ffffff" stroke="#000000" points="208,-137.5 208,-237.5 305.992,-237.5 305.992,-137.5 208,-137.5"/>
<text text-anchor="middle" x="256.996" y="-224.5" font-family="Helvetica,sans-Serif" font-size="10.00" fill="#000000">person</text>
<polyline fill="none" stroke="#000000" points="208,-217.5 305.992,-217.5 "/>
<text text-anchor="start" x="216" y="-204.5" font-family="Helvetica,sans-Serif" font-size="10.00" fill="#000000">+ name : text</text>
<text text-anchor="start" x="216" y="-192.5" font-family="Helvetica,sans-Serif" font-size="10.00" fill="#000000">+ sex : enum</text>
<text text-anchor="start" x="216" y="-180.5" font-family="Helvetica,sans-Serif" font-size="10.00" fill="#000000">+ age : number</text>
<text text-anchor="start" x="216" y="-168.5" font-family="Helvetica,sans-Serif" font-size="10.00" fill="#000000">+ createdAt : date</text>
<text text-anchor="start" x="216" y="-156.5" font-family="Helvetica,sans-Serif" font-size="10.00" fill="#000000">+ updatedAt : date</text>
<text text-anchor="start" x="216" y="-144.5" font-family="Helvetica,sans-Serif" font-size="10.00" fill="#000000">+ id : serial</text>
</a>
</g>
</g>
<!-- person_query -->
<g id="node3" class="node">
<title>person_query</title>
<g id="a_node3"><a xlink:title="person_query">
<polygon fill="#ffffff" stroke="#000000" points="334,-137.5 334,-237.5 431.992,-237.5 431.992,-137.5 334,-137.5"/>
<text text-anchor="middle" x="382.996" y="-224.5" font-family="Helvetica,sans-Serif" font-size="10.00" fill="#000000">person_query</text>
<polyline fill="none" stroke="#000000" points="334,-217.5 431.992,-217.5 "/>
<text text-anchor="start" x="342" y="-204.5" font-family="Helvetica,sans-Serif" font-size="10.00" fill="#000000">+ name : text</text>
<text text-anchor="start" x="342" y="-192.5" font-family="Helvetica,sans-Serif" font-size="10.00" fill="#000000">+ sex : enum</text>
<text text-anchor="start" x="342" y="-180.5" font-family="Helvetica,sans-Serif" font-size="10.00" fill="#000000">+ age : number</text>
<text text-anchor="start" x="342" y="-168.5" font-family="Helvetica,sans-Serif" font-size="10.00" fill="#000000">+ createdAt : date</text>
<text text-anchor="start" x="342" y="-156.5" font-family="Helvetica,sans-Serif" font-size="10.00" fill="#000000">+ updatedAt : date</text>
<text text-anchor="start" x="342" y="-144.5" font-family="Helvetica,sans-Serif" font-size="10.00" fill="#000000">+ id : serial</text>
</a>
</g>
</g>
<!-- pet_query -->
<g id="node4" class="node">
<title>pet_query</title>
<g id="a_node4"><a xlink:title="pet_query">
<polygon fill="#ffffff" stroke="#000000" points="349,-322.5 349,-398.5 446.992,-398.5 446.992,-322.5 349,-322.5"/>
<text text-anchor="middle" x="397.996" y="-385.5" font-family="Helvetica,sans-Serif" font-size="10.00" fill="#000000">pet_query</text>
<polyline fill="none" stroke="#000000" points="349,-378.5 446.992,-378.5 "/>
<text text-anchor="start" x="357" y="-365.5" font-family="Helvetica,sans-Serif" font-size="10.00" fill="#000000">+ name : text</text>
<text text-anchor="start" x="357" y="-353.5" font-family="Helvetica,sans-Serif" font-size="10.00" fill="#000000">+ createdAt : date</text>
<text text-anchor="start" x="357" y="-341.5" font-family="Helvetica,sans-Serif" font-size="10.00" fill="#000000">+ updatedAt : date</text>
<text text-anchor="start" x="357" y="-329.5" font-family="Helvetica,sans-Serif" font-size="10.00" fill="#000000">+ id : serial</text>
</a>
</g>
</g>
<!-- pet_query&#45;&gt;person_query -->
<g id="edge2" class="edge">
<title>pet_query&#45;&gt;person_query</title>
<path fill="none" stroke="#000000" d="M361.7091,-316.8367C351.6888,-302.2167 342.1541,-285.2312 336.983,-268 334.7403,-260.5269 334.9963,-252.998 336.8851,-245.7023"/>
<ellipse fill="none" stroke="#000000" cx="363.576" cy="-319.4937" rx="3.2" ry="3.2"/>
<polygon fill="none" stroke="#000000" points="339.6165,-246.3663 339.5346,-237.8908 334.3132,-244.5675 339.6165,-246.3663"/>
<text text-anchor="middle" x="359.5025" y="-259" font-family="Helvetica,sans-Serif" font-size="10.00" fill="#000000">createdBy</text>
</g>
<!-- pet_query&#45;&gt;person_query -->
<g id="edge3" class="edge">
<title>pet_query&#45;&gt;person_query</title>
<path fill="none" stroke="#000000" d="M394.0965,-315.5257C392.2524,-294.2576 390.0276,-268.5982 388.0555,-245.853"/>
<ellipse fill="none" stroke="#000000" cx="394.3906" cy="-318.9177" rx="3.2" ry="3.2"/>
<polygon fill="none" stroke="#000000" points="390.8222,-245.3468 387.3415,-237.6186 385.2431,-245.8306 390.8222,-245.3468"/>
<text text-anchor="middle" x="415.282" y="-259" font-family="Helvetica,sans-Serif" font-size="10.00" fill="#000000">createdBy2</text>
</g>
<!-- ext_acl -->
<g id="node5" class="node">
<title>ext_acl</title>
<g id="a_node5"><a xlink:title="ext_acl">
<polygon fill="#ffffff" stroke="#000000" points="455,-143.5 455,-231.5 552.992,-231.5 552.992,-143.5 455,-143.5"/>
<text text-anchor="middle" x="503.996" y="-218.5" font-family="Helvetica,sans-Serif" font-size="10.00" fill="#000000">ext_acl</text>
<polyline fill="none" stroke="#000000" points="455,-211.5 552.992,-211.5 "/>
<text text-anchor="start" x="463" y="-198.5" font-family="Helvetica,sans-Serif" font-size="10.00" fill="#000000">+ name : text</text>
<text text-anchor="start" x="463" y="-186.5" font-family="Helvetica,sans-Serif" font-size="10.00" fill="#000000">+ age : number</text>
<text text-anchor="start" x="463" y="-174.5" font-family="Helvetica,sans-Serif" font-size="10.00" fill="#000000">+ createdAt : date</text>
<text text-anchor="start" x="463" y="-162.5" font-family="Helvetica,sans-Serif" font-size="10.00" fill="#000000">+ updatedAt : date</text>
<text text-anchor="start" x="463" y="-150.5" font-family="Helvetica,sans-Serif" font-size="10.00" fill="#000000">+ id : serial</text>
</a>
</g>
</g>
<!-- ext_acl1 -->
<g id="node6" class="node">
<title>ext_acl1</title>
<g id="a_node6"><a xlink:title="ext_acl1">
<polygon fill="#ffffff" stroke="#000000" points="571,-143.5 571,-231.5 668.992,-231.5 668.992,-143.5 571,-143.5"/>
<text text-anchor="middle" x="619.996" y="-218.5" font-family="Helvetica,sans-Serif" font-size="10.00" fill="#000000">ext_acl1</text>
<polyline fill="none" stroke="#000000" points="571,-211.5 668.992,-211.5 "/>
<text text-anchor="start" x="579" y="-198.5" font-family="Helvetica,sans-Serif" font-size="10.00" fill="#000000">+ name : text</text>
<text text-anchor="start" x="579" y="-186.5" font-family="Helvetica,sans-Serif" font-size="10.00" fill="#000000">+ age : number</text>
<text text-anchor="start" x="579" y="-174.5" font-family="Helvetica,sans-Serif" font-size="10.00" fill="#000000">+ createdAt : date</text>
<text text-anchor="start" x="579" y="-162.5" font-family="Helvetica,sans-Serif" font-size="10.00" fill="#000000">+ updatedAt : date</text>
<text text-anchor="start" x="579" y="-150.5" font-family="Helvetica,sans-Serif" font-size="10.00" fill="#000000">+ id : serial</text>
</a>
</g>
</g>
<!-- test_acl -->
<g id="node7" class="node">
<title>test_acl</title>
<g id="a_node7"><a xlink:title="test_acl">
<polygon fill="#ffffff" stroke="#000000" points="465,-310.5 465,-410.5 562.992,-410.5 562.992,-310.5 465,-310.5"/>
<text text-anchor="middle" x="513.996" y="-397.5" font-family="Helvetica,sans-Serif" font-size="10.00" fill="#000000">test_acl</text>
<polyline fill="none" stroke="#000000" points="465,-390.5 562.992,-390.5 "/>
<text text-anchor="start" x="473" y="-377.5" font-family="Helvetica,sans-Serif" font-size="10.00" fill="#000000">+ name : text</text>
<text text-anchor="start" x="473" y="-365.5" font-family="Helvetica,sans-Serif" font-size="10.00" fill="#000000">+ age : number</text>
<text text-anchor="start" x="473" y="-353.5" font-family="Helvetica,sans-Serif" font-size="10.00" fill="#000000">+ sex : text</text>
<text text-anchor="start" x="473" y="-341.5" font-family="Helvetica,sans-Serif" font-size="10.00" fill="#000000">+ createdAt : date</text>
<text text-anchor="start" x="473" y="-329.5" font-family="Helvetica,sans-Serif" font-size="10.00" fill="#000000">+ updatedAt : date</text>
<text text-anchor="start" x="473" y="-317.5" font-family="Helvetica,sans-Serif" font-size="10.00" fill="#000000">+ id : serial</text>
</a>
</g>
</g>
<!-- test_acl&#45;&gt;ext_acl -->
<g id="edge4" class="edge">
<title>test_acl&#45;&gt;ext_acl</title>
<path fill="none" stroke="#000000" d="M510.7259,-303.9264C509.5315,-283.2639 508.1869,-260.0029 507.0154,-239.7354"/>
<ellipse fill="none" stroke="#000000" cx="510.9189" cy="-307.2666" rx="3.2" ry="3.2"/>
<polygon fill="none" stroke="#000000" points="509.3372,-231.3817 507.0036,-239.53 503.7465,-231.7049 509.3372,-231.3817"/>
<text text-anchor="middle" x="515.665" y="-259" font-family="Helvetica,sans-Serif" font-size="10.00" fill="#000000">ext</text>
</g>
<!-- test_acl&#45;&gt;ext_acl1 -->
<g id="edge5" class="edge">
<title>test_acl&#45;&gt;ext_acl1</title>
<path fill="none" stroke="#000000" d="M548.1066,-304.829C561.1653,-283.5162 575.9841,-259.3307 588.7608,-238.4782"/>
<ellipse fill="none" stroke="#000000" cx="546.3274" cy="-307.7327" rx="3.2" ry="3.2"/>
<polygon fill="none" stroke="#000000" points="591.2178,-239.8276 593.0099,-231.5433 586.4428,-236.9018 591.2178,-239.8276"/>
<text text-anchor="middle" x="586.4445" y="-259" font-family="Helvetica,sans-Serif" font-size="10.00" fill="#000000">ext1</text>
</g>
<!-- city -->
<g id="node8" class="node">
<title>city</title>
<g id="a_node8"><a xlink:title="city">
<polygon fill="#ffffff" stroke="#000000" points="687,-143.5 687,-231.5 784.992,-231.5 784.992,-143.5 687,-143.5"/>
<text text-anchor="middle" x="735.996" y="-218.5" font-family="Helvetica,sans-Serif" font-size="10.00" fill="#000000">city</text>
<polyline fill="none" stroke="#000000" points="687,-211.5 784.992,-211.5 "/>
<text text-anchor="start" x="695" y="-198.5" font-family="Helvetica,sans-Serif" font-size="10.00" fill="#000000">+ code : text</text>
<text text-anchor="start" x="695" y="-186.5" font-family="Helvetica,sans-Serif" font-size="10.00" fill="#000000">+ name : text</text>
<text text-anchor="start" x="695" y="-174.5" font-family="Helvetica,sans-Serif" font-size="10.00" fill="#000000">+ createdAt : date</text>
<text text-anchor="start" x="695" y="-162.5" font-family="Helvetica,sans-Serif" font-size="10.00" fill="#000000">+ updatedAt : date</text>
<text text-anchor="start" x="695" y="-150.5" font-family="Helvetica,sans-Serif" font-size="10.00" fill="#000000">+ id : serial</text>
</a>
</g>
</g>
<!-- people -->
<g id="node9" class="node">
<title>people</title>
<g id="a_node9"><a xlink:title="people">
<polygon fill="#ffffff" stroke="#000000" points="687,-310.5 687,-410.5 784.992,-410.5 784.992,-310.5 687,-310.5"/>
<text text-anchor="middle" x="735.996" y="-397.5" font-family="Helvetica,sans-Serif" font-size="10.00" fill="#000000">people</text>
<polyline fill="none" stroke="#000000" points="687,-390.5 784.992,-390.5 "/>
<text text-anchor="start" x="695" y="-377.5" font-family="Helvetica,sans-Serif" font-size="10.00" fill="#000000">+ name : text</text>
<text text-anchor="start" x="695" y="-365.5" font-family="Helvetica,sans-Serif" font-size="10.00" fill="#000000">+ sex : enum</text>
<text text-anchor="start" x="695" y="-353.5" font-family="Helvetica,sans-Serif" font-size="10.00" fill="#000000">+ age : number</text>
<text text-anchor="start" x="695" y="-341.5" font-family="Helvetica,sans-Serif" font-size="10.00" fill="#000000">+ createdAt : date</text>
<text text-anchor="start" x="695" y="-329.5" font-family="Helvetica,sans-Serif" font-size="10.00" fill="#000000">+ updatedAt : date</text>
<text text-anchor="start" x="695" y="-317.5" font-family="Helvetica,sans-Serif" font-size="10.00" fill="#000000">+ id : serial</text>
</a>
</g>
</g>
<!-- people&#45;&gt;city -->
<g id="edge14" class="edge">
<title>people&#45;&gt;city</title>
<path fill="none" stroke="#000000" d="M735.996,-303.9264C735.996,-283.2639 735.996,-260.0029 735.996,-239.7354"/>
<ellipse fill="none" stroke="#000000" cx="735.996" cy="-307.2612" rx="3.2" ry="3.2"/>
<polygon fill="none" stroke="#000000" points="738.7961,-239.5433 735.996,-231.5433 733.1961,-239.5433 738.7961,-239.5433"/>
<text text-anchor="middle" x="743.495" y="-259" font-family="Helvetica,sans-Serif" font-size="10.00" fill="#000000">city</text>
</g>
<!-- people&#45;&gt;people -->
<g id="edge6" class="edge">
<title>people&#45;&gt;people</title>
<path fill="none" stroke="#000000" d="M791.8534,-362.0833C798.5876,-361.7971 802.992,-361.2694 802.992,-360.5 802.992,-359.7934 799.2773,-359.2906 793.4549,-358.9916"/>
<ellipse fill="none" stroke="#000000" cx="788.2722" cy="-362.1862" rx="3.2" ry="3.2"/>
<polygon fill="none" stroke="#000000" points="793.1595,-356.1808 785.0735,-358.7218 792.9792,-361.7779 793.1595,-356.1808"/>
<text text-anchor="middle" x="818.549" y="-357.5" font-family="Helvetica,sans-Serif" font-size="10.00" fill="#000000">mother</text>
</g>
<!-- people&#45;&gt;people -->
<g id="edge7" class="edge">
<title>people&#45;&gt;people</title>
<path fill="none" stroke="#000000" d="M791.6047,-364.1599C814.3562,-364.3268 834.106,-363.1069 834.106,-360.5 834.106,-357.96 815.356,-356.7366 793.3486,-356.83"/>
<ellipse fill="none" stroke="#000000" cx="788.3216" cy="-364.1175" rx="3.2" ry="3.2"/>
<polygon fill="none" stroke="#000000" points="793.0893,-354.0326 785.1219,-356.9239 793.1534,-359.6323 793.0893,-354.0326"/>
<text text-anchor="middle" x="846.888" y="-357.5" font-family="Helvetica,sans-Serif" font-size="10.00" fill="#000000">father</text>
</g>
<!-- people&#45;&gt;people -->
<g id="edge8" class="edge">
<title>people&#45;&gt;people</title>
<path fill="none" stroke="#000000" d="M791.8345,-365.7197C825.8529,-366.7619 859.67,-365.022 859.67,-360.5 859.67,-356.0346 826.693,-354.2821 793.11,-355.2425"/>
<ellipse fill="none" stroke="#000000" cx="788.236" cy="-365.5897" rx="3.2" ry="3.2"/>
<polygon fill="none" stroke="#000000" points="792.9349,-352.4468 785.0381,-355.5258 793.1314,-358.0434 792.9349,-352.4468"/>
<text text-anchor="middle" x="878.847" y="-357.5" font-family="Helvetica,sans-Serif" font-size="10.00" fill="#000000">husband</text>
</g>
<!-- people&#45;&gt;people -->
<g id="edge9" class="edge">
<title>people&#45;&gt;people</title>
<path fill="none" stroke="#000000" d="M791.7693,-366.8329C840.7548,-369.3337 898.024,-367.2228 898.024,-360.5 898.024,-353.8458 841.9176,-351.7098 793.2714,-354.092"/>
<ellipse fill="none" stroke="#000000" cx="788.4223" cy="-366.6464" rx="3.2" ry="3.2"/>
<polygon fill="none" stroke="#000000" points="785.0744,-351.736 793.2154,-354.0949 785.3802,-357.3276 785.0744,-351.736"/>
<text text-anchor="middle" x="919.701" y="-357.5" font-family="Helvetica,sans-Serif" font-size="10.00" fill="#000000">husbands</text>
</g>
<!-- people&#45;&gt;people -->
<g id="edge10" class="edge">
<title>people&#45;&gt;people</title>
<path fill="none" stroke="#000000" d="M791.6396,-367.6659C855.563,-371.8867 941.378,-369.4981 941.378,-360.5 941.378,-351.5746 856.9443,-349.1523 793.1935,-353.233"/>
<ellipse fill="none" stroke="#000000" cx="788.3275" cy="-367.4326" rx="3.2" ry="3.2"/>
<polygon fill="none" stroke="#000000" points="792.9223,-350.445 785.1354,-353.7923 793.3101,-356.0316 792.9223,-350.445"/>
<text text-anchor="middle" x="950.266" y="-357.5" font-family="Helvetica,sans-Serif" font-size="10.00" fill="#000000">wife</text>
</g>
<!-- people&#45;&gt;people -->
<g id="edge11" class="edge">
<title>people&#45;&gt;people</title>
<path fill="none" stroke="#000000" d="M791.8569,-368.6799C862.1339,-374.3104 959.378,-371.5838 959.378,-360.5 959.378,-349.4833 863.3067,-346.7229 793.135,-352.2189"/>
<ellipse fill="none" stroke="#000000" cx="788.3327" cy="-368.3802" rx="3.2" ry="3.2"/>
<polygon fill="none" stroke="#000000" points="784.9095,-350.1009 793.1161,-352.2204 785.379,-355.6812 784.9095,-350.1009"/>
<text text-anchor="middle" x="972.156" y="-357.5" font-family="Helvetica,sans-Serif" font-size="10.00" fill="#000000">childs</text>
</g>
<!-- people&#45;&gt;people -->
<g id="edge12" class="edge">
<title>people&#45;&gt;people</title>
<path fill="none" stroke="#000000" d="M791.7554,-369.4692C870.426,-376.7824 984.934,-373.7927 984.934,-360.5 984.934,-347.2874 871.8015,-344.254 793.181,-351.3998"/>
<ellipse fill="none" stroke="#000000" cx="788.3936" cy="-369.1399" rx="3.2" ry="3.2"/>
<polygon fill="none" stroke="#000000" points="784.9388,-349.3851 793.1716,-351.4006 785.4788,-354.959 784.9388,-349.3851"/>
<text text-anchor="middle" x="1002.4405" y="-357.5" font-family="Helvetica,sans-Serif" font-size="10.00" fill="#000000">patients</text>
</g>
<!-- people&#45;&gt;people -->
<g id="edge13" class="edge">
<title>people&#45;&gt;people</title>
<path fill="none" stroke="#000000" d="M791.7325,-370.0648C880.9601,-379.2805 1019.947,-376.0922 1019.947,-360.5 1019.947,-345.0014 882.6246,-341.7582 793.3456,-350.7705"/>
<ellipse fill="none" stroke="#000000" cx="788.3116" cy="-369.6943" rx="3.2" ry="3.2"/>
<polygon fill="none" stroke="#000000" points="792.7865,-348.0143 785.1302,-351.6504 793.3829,-353.5824 792.7865,-348.0143"/>
<text text-anchor="middle" x="1033.8395" y="-357.5" font-family="Helvetica,sans-Serif" font-size="10.00" fill="#000000">doctor</text>
</g>
<!-- people&#45;&gt;people -->
<g id="edge15" class="edge">
<title>people&#45;&gt;people</title>
<path fill="none" stroke="#000000" d="M791.955,-370.7C889.5327,-381.75 1047.732,-378.35 1047.732,-360.5 1047.732,-342.7391 891.1092,-339.2843 793.4217,-350.1355"/>
<ellipse fill="none" stroke="#000000" cx="788.5054" cy="-370.2916" rx="3.2" ry="3.2"/>
<polygon fill="none" stroke="#000000" points="785.0015,-348.3037 793.2731,-350.1529 785.6537,-353.8656 785.0015,-348.3037"/>
<text text-anchor="middle" x="1072.178" y="-357.5" font-family="Helvetica,sans-Serif" font-size="10.00" fill="#000000">my_friends</text>
</g>
<!-- people&#45;&gt;people -->
<g id="edge16" class="edge">
<title>people&#45;&gt;people</title>
<path fill="none" stroke="#000000" d="M791.6276,-371.0027C902.0585,-384.269 1096.624,-380.7681 1096.624,-360.5 1096.624,-340.3328 903.9916,-336.7663 793.2837,-349.8003"/>
<ellipse fill="none" stroke="#000000" cx="788.3058" cy="-370.5872" rx="3.2" ry="3.2"/>
<polygon fill="none" stroke="#000000" points="784.7864,-348.0313 793.0699,-349.8267 785.4747,-353.5888 784.7864,-348.0313"/>
<text text-anchor="middle" x="1111.626" y="-357.5" font-family="Helvetica,sans-Serif" font-size="10.00" fill="#000000">friends</text>
</g>
<!-- people_relations_statics -->
<g id="node10" class="node">
<title>people_relations_statics</title>
<g id="a_node10"><a xlink:title="people_relations_statics">
<polygon fill="#ffffff" stroke="#000000" points="1302.371,-334.5 1302.371,-386.5 1425.621,-386.5 1425.621,-334.5 1302.371,-334.5"/>
<text text-anchor="middle" x="1363.996" y="-373.5" font-family="Helvetica,sans-Serif" font-size="10.00" fill="#000000">people_relations_statics</text>
<polyline fill="none" stroke="#000000" points="1302.371,-366.5 1425.621,-366.5 "/>
<text text-anchor="start" x="1310.371" y="-353.5" font-family="Helvetica,sans-Serif" font-size="10.00" fill="#000000">+ people_id : serial</text>
<text text-anchor="start" x="1310.371" y="-341.5" font-family="Helvetica,sans-Serif" font-size="10.00" fill="#000000">+ childs_count : number</text>
</a>
</g>
</g>
<!-- level -->
<g id="node11" class="node">
<title>level</title>
<g id="a_node11"><a xlink:title="level">
<polygon fill="#ffffff" stroke="#000000" points="1444,-316.5 1444,-404.5 1541.992,-404.5 1541.992,-316.5 1444,-316.5"/>
<text text-anchor="middle" x="1492.996" y="-391.5" font-family="Helvetica,sans-Serif" font-size="10.00" fill="#000000">level</text>
<polyline fill="none" stroke="#000000" points="1444,-384.5 1541.992,-384.5 "/>
<text text-anchor="start" x="1452" y="-371.5" font-family="Helvetica,sans-Serif" font-size="10.00" fill="#000000">+ name : text</text>
<text text-anchor="start" x="1452" y="-359.5" font-family="Helvetica,sans-Serif" font-size="10.00" fill="#000000">+ level_f : text</text>
<text text-anchor="start" x="1452" y="-347.5" font-family="Helvetica,sans-Serif" font-size="10.00" fill="#000000">+ createdAt : date</text>
<text text-anchor="start" x="1452" y="-335.5" font-family="Helvetica,sans-Serif" font-size="10.00" fill="#000000">+ updatedAt : date</text>
<text text-anchor="start" x="1452" y="-323.5" font-family="Helvetica,sans-Serif" font-size="10.00" fill="#000000">+ id : serial</text>
</a>
</g>
</g>
<!-- level&#45;&gt;level -->
<g id="edge17" class="edge">
<title>level&#45;&gt;level</title>
<path fill="none" stroke="#000000" d="M1548.4382,-368.5025C1555.406,-367.0928 1559.992,-364.4253 1559.992,-360.5 1559.992,-356.8887 1556.1104,-354.342 1550.0636,-352.8599"/>
<ellipse fill="none" stroke="#000000" cx="1545.2428" cy="-368.9485" rx="3.2" ry="3.2"/>
<polygon fill="none" stroke="#000000" points="1550.4103,-350.0802 1542.0735,-351.6091 1549.5442,-355.6128 1550.4103,-350.0802"/>
<text text-anchor="middle" x="1574.999" y="-357.5" font-family="Helvetica,sans-Serif" font-size="10.00" fill="#000000">one_l2</text>
</g>
<!-- level&#45;&gt;level -->
<g id="edge18" class="edge">
<title>level&#45;&gt;level</title>
<path fill="none" stroke="#000000" d="M1548.8445,-378.8246C1570.9911,-379.4997 1590.006,-373.3915 1590.006,-360.5 1590.006,-347.8851 1571.7985,-341.7656 1550.2658,-342.1413"/>
<ellipse fill="none" stroke="#000000" cx="1545.4041" cy="-378.6182" rx="3.2" ry="3.2"/>
<polygon fill="none" stroke="#000000" points="1550.0483,-339.3489 1542.2098,-342.5736 1550.3484,-344.9408 1550.0483,-339.3489"/>
<text text-anchor="middle" x="1605.013" y="-357.5" font-family="Helvetica,sans-Serif" font-size="10.00" fill="#000000">one_l3</text>
</g>
<!-- sub_level -->
<g id="node12" class="node">
<title>sub_level</title>
<g id="a_node12"><a xlink:title="sub_level">
<polygon fill="#ffffff" stroke="#000000" points="1349,-143.5 1349,-231.5 1446.992,-231.5 1446.992,-143.5 1349,-143.5"/>
<text text-anchor="middle" x="1397.996" y="-218.5" font-family="Helvetica,sans-Serif" font-size="10.00" fill="#000000">sub_level</text>
<polyline fill="none" stroke="#000000" points="1349,-211.5 1446.992,-211.5 "/>
<text text-anchor="start" x="1357" y="-198.5" font-family="Helvetica,sans-Serif" font-size="10.00" fill="#000000">+ name : text</text>
<text text-anchor="start" x="1357" y="-186.5" font-family="Helvetica,sans-Serif" font-size="10.00" fill="#000000">+ sublevel_f : text</text>
<text text-anchor="start" x="1357" y="-174.5" font-family="Helvetica,sans-Serif" font-size="10.00" fill="#000000">+ createdAt : date</text>
<text text-anchor="start" x="1357" y="-162.5" font-family="Helvetica,sans-Serif" font-size="10.00" fill="#000000">+ updatedAt : date</text>
<text text-anchor="start" x="1357" y="-150.5" font-family="Helvetica,sans-Serif" font-size="10.00" fill="#000000">+ id : serial</text>
</a>
</g>
</g>
<!-- level&#45;&gt;sub_level -->
<g id="edge19" class="edge">
<title>level&#45;&gt;sub_level</title>
<path fill="none" stroke="#000000" d="M1460.2755,-311.136C1452.7208,-302.005 1444.1775,-293.118 1434.996,-286 1419.1214,-273.6932 1404.5585,-284.7951 1393.541,-268 1388.1428,-259.7709 1386.0459,-249.9895 1385.8442,-240.1293"/>
<ellipse fill="none" stroke="#000000" cx="1462.3628" cy="-313.7307" rx="3.2" ry="3.2"/>
<polygon fill="none" stroke="#000000" points="1388.651,-239.9401 1386.0897,-231.8605 1383.0535,-239.7739 1388.651,-239.9401"/>
<text text-anchor="middle" x="1408.7235" y="-259" font-family="Helvetica,sans-Serif" font-size="10.00" fill="#000000">one_sl</text>
</g>
<!-- level&#45;&gt;sub_level -->
<g id="edge20" class="edge">
<title>level&#45;&gt;sub_level</title>
<path fill="none" stroke="#000000" d="M1465.5366,-310.495C1453.1677,-287.9706 1438.5789,-261.4035 1426.1309,-238.7351"/>
<ellipse fill="none" stroke="#000000" cx="1467.2374" cy="-313.5922" rx="3.2" ry="3.2"/>
<polygon fill="none" stroke="#000000" points="1424.6244,-230.1745 1426.0208,-238.5346 1419.7158,-232.8701 1424.6244,-230.1745"/>
<text text-anchor="middle" x="1475.836" y="-259" font-family="Helvetica,sans-Serif" font-size="10.00" fill="#000000">many_sublevels</text>
</g>
<!-- level_lproperty -->
<g id="node14" class="node">
<title>level_lproperty</title>
<g id="a_node14"><a xlink:title="level_lproperty">
<polygon fill="#ffffff" stroke="#000000" points="1550,-137.5 1550,-237.5 1647.992,-237.5 1647.992,-137.5 1550,-137.5"/>
<text text-anchor="middle" x="1598.996" y="-224.5" font-family="Helvetica,sans-Serif" font-size="10.00" fill="#000000">level_lproperty</text>
<polyline fill="none" stroke="#000000" points="1550,-217.5 1647.992,-217.5 "/>
<text text-anchor="start" x="1558" y="-204.5" font-family="Helvetica,sans-Serif" font-size="10.00" fill="#000000">+ name : text</text>
<text text-anchor="start" x="1558" y="-192.5" font-family="Helvetica,sans-Serif" font-size="10.00" fill="#000000">+ weight : integer</text>
<text text-anchor="start" x="1558" y="-180.5" font-family="Helvetica,sans-Serif" font-size="10.00" fill="#000000">+ level_id : integer</text>
<text text-anchor="start" x="1558" y="-168.5" font-family="Helvetica,sans-Serif" font-size="10.00" fill="#000000">+ createdAt : date</text>
<text text-anchor="start" x="1558" y="-156.5" font-family="Helvetica,sans-Serif" font-size="10.00" fill="#000000">+ updatedAt : date</text>
<text text-anchor="start" x="1558" y="-144.5" font-family="Helvetica,sans-Serif" font-size="10.00" fill="#000000">+ id : text</text>
</a>
</g>
</g>
<!-- level&#45;&gt;level_lproperty -->
<g id="edge21" class="edge">
<title>level&#45;&gt;level_lproperty</title>
<path fill="none" stroke="#000000" d="M1512.7284,-310.4833C1520.5775,-292.7293 1530.3172,-272.9573 1541.104,-256 1543.3748,-252.4302 1545.8157,-248.8465 1548.3651,-245.2921"/>
<ellipse fill="none" stroke="#000000" cx="1511.4191" cy="-313.4865" rx="3.2" ry="3.2"/>
<polygon fill="#000000" stroke="#000000" points="1548.3726,-245.282 1548.6648,-239.5205 1554.0955,-237.5743 1553.8033,-243.3358 1548.3726,-245.282"/>
<text text-anchor="middle" x="1560.442" y="-259" font-family="Helvetica,sans-Serif" font-size="10.00" fill="#000000">lproperty</text>
</g>
<!-- sub_level&#45;&gt;sub_level -->
<g id="edge22" class="edge">
<title>sub_level&#45;&gt;sub_level</title>
<path fill="none" stroke="#000000" d="M1453.4382,-199.5855C1460.406,-197.4565 1464.992,-193.428 1464.992,-187.5 1464.992,-182.0462 1461.1104,-178.2002 1455.0636,-175.9619"/>
<ellipse fill="none" stroke="#000000" cx="1450.2047" cy="-200.267" rx="3.2" ry="3.2"/>
<polygon fill="none" stroke="#000000" points="1455.5031,-173.1887 1447.0735,-174.073 1454.2147,-178.6385 1455.5031,-173.1887"/>
<text text-anchor="middle" x="1497.2265" y="-184.5" font-family="Helvetica,sans-Serif" font-size="10.00" fill="#000000">subl_one_subl</text>
</g>
<!-- descendant_level -->
<g id="node13" class="node">
<title>descendant_level</title>
<g id="a_node13"><a xlink:title="descendant_level">
<polygon fill="#ffffff" stroke="#000000" points="1330.3875,-.5 1330.3875,-88.5 1465.6045,-88.5 1465.6045,-.5 1330.3875,-.5"/>
<text text-anchor="middle" x="1397.996" y="-75.5" font-family="Helvetica,sans-Serif" font-size="10.00" fill="#000000">descendant_level</text>
<polyline fill="none" stroke="#000000" points="1330.3875,-68.5 1465.6045,-68.5 "/>
<text text-anchor="start" x="1338.3875" y="-55.5" font-family="Helvetica,sans-Serif" font-size="10.00" fill="#000000">+ name : text</text>
<text text-anchor="start" x="1338.3875" y="-43.5" font-family="Helvetica,sans-Serif" font-size="10.00" fill="#000000">+ descendant_level_f : text</text>
<text text-anchor="start" x="1338.3875" y="-31.5" font-family="Helvetica,sans-Serif" font-size="10.00" fill="#000000">+ createdAt : date</text>
<text text-anchor="start" x="1338.3875" y="-19.5" font-family="Helvetica,sans-Serif" font-size="10.00" fill="#000000">+ updatedAt : date</text>
<text text-anchor="start" x="1338.3875" y="-7.5" font-family="Helvetica,sans-Serif" font-size="10.00" fill="#000000">+ id : serial</text>
</a>
</g>
</g>
<!-- sub_level&#45;&gt;descendant_level -->
<g id="edge23" class="edge">
<title>sub_level&#45;&gt;descendant_level</title>
<path fill="none" stroke="#000000" d="M1397.996,-136.7946C1397.996,-123.7833 1397.996,-109.7657 1397.996,-96.6812"/>
<ellipse fill="none" stroke="#000000" cx="1397.996" cy="-140.2285" rx="3.2" ry="3.2"/>
<polygon fill="none" stroke="#000000" points="1400.7961,-96.6722 1397.996,-88.6722 1395.1961,-96.6722 1400.7961,-96.6722"/>
<text text-anchor="middle" x="1459.9655" y="-110" font-family="Helvetica,sans-Serif" font-size="10.00" fill="#000000">subl_one_descendant_level</text>
</g>
<!-- level_lproperty&#45;&gt;level -->
<g id="edge24" class="edge">
<title>level_lproperty&#45;&gt;level</title>
<path fill="none" stroke="#000000" d="M1589.6814,-243.8998C1587.1761,-252.2481 1584.0056,-260.5417 1579.996,-268 1571.577,-283.6602 1559.8282,-298.6337 1547.6831,-311.7989"/>
<ellipse fill="none" stroke="#000000" cx="1590.6066" cy="-240.5992" rx="3.2" ry="3.2"/>
<polygon fill="none" stroke="#000000" points="1545.5489,-309.9805 1542.0855,-317.7165 1549.6172,-313.8288 1545.5489,-309.9805"/>
<text text-anchor="middle" x="1594.274" y="-259" font-family="Helvetica,sans-Serif" font-size="10.00" fill="#000000">level</text>
</g>
<!-- pet -->
<g id="node15" class="node">
<title>pet</title>
<g id="a_node15"><a xlink:title="pet">
<polygon fill="#ffffff" stroke="#000000" points="208,-322.5 208,-398.5 305.992,-398.5 305.992,-322.5 208,-322.5"/>
<text text-anchor="middle" x="256.996" y="-385.5" font-family="Helvetica,sans-Serif" font-size="10.00" fill="#000000">pet</text>
<polyline fill="none" stroke="#000000" points="208,-378.5 305.992,-378.5 "/>
<text text-anchor="start" x="216" y="-365.5" font-family="Helvetica,sans-Serif" font-size="10.00" fill="#000000">+ name : text</text>
<text text-anchor="start" x="216" y="-353.5" font-family="Helvetica,sans-Serif" font-size="10.00" fill="#000000">+ createdAt : date</text>
<text text-anchor="start" x="216" y="-341.5" font-family="Helvetica,sans-Serif" font-size="10.00" fill="#000000">+ updatedAt : date</text>
<text text-anchor="start" x="216" y="-329.5" font-family="Helvetica,sans-Serif" font-size="10.00" fill="#000000">+ id : text</text>
</a>
</g>
</g>
<!-- pet&#45;&gt;person -->
<g id="edge25" class="edge">
<title>pet&#45;&gt;person</title>
<path fill="none" stroke="#000000" d="M256.996,-315.5257C256.996,-294.2576 256.996,-268.5982 256.996,-245.853"/>
<ellipse fill="none" stroke="#000000" cx="256.996" cy="-318.9057" rx="3.2" ry="3.2"/>
<polygon fill="none" stroke="#000000" points="259.7961,-245.6186 256.996,-237.6186 254.1961,-245.6187 259.7961,-245.6186"/>
<text text-anchor="middle" x="279.5025" y="-259" font-family="Helvetica,sans-Serif" font-size="10.00" fill="#000000">createdBy</text>
</g>
<!-- chatroom&#45;&gt;user -->
<g id="edge27" class="edge">
<title>chatroom&#45;&gt;user</title>
<path fill="none" stroke="#000000" d="M60.3768,-232.3752C62.301,-240.2374 64.2418,-248.3489 65.996,-256 68.5376,-267.0855 71.1244,-278.8587 73.5888,-290.3534"/>
<ellipse fill="none" stroke="#000000" cx="59.534" cy="-228.9523" rx="3.2" ry="3.2"/>
<polygon fill="none" stroke="#000000" points="72.5348,-298.8388 73.6052,-290.4308 78.0117,-297.6711 72.5348,-298.8388"/>
<text text-anchor="middle" x="89.828" y="-259" font-family="Helvetica,sans-Serif" font-size="10.00" fill="#000000">mambers</text>
</g>
<!-- chatmessage -->
<g id="node17" class="node">
<title>chatmessage</title>
<g id="a_node17"><a xlink:title="chatmessage">
<polygon fill="#ffffff" stroke="#000000" points="58,-6.5 58,-82.5 155.992,-82.5 155.992,-6.5 58,-6.5"/>
<text text-anchor="middle" x="106.996" y="-69.5" font-family="Helvetica,sans-Serif" font-size="10.00" fill="#000000">chatmessage</text>
<polyline fill="none" stroke="#000000" points="58,-62.5 155.992,-62.5 "/>
<text text-anchor="start" x="66" y="-49.5" font-family="Helvetica,sans-Serif" font-size="10.00" fill="#000000">+ msg : text</text>
<text text-anchor="start" x="66" y="-37.5" font-family="Helvetica,sans-Serif" font-size="10.00" fill="#000000">+ createdAt : date</text>
<text text-anchor="start" x="66" y="-25.5" font-family="Helvetica,sans-Serif" font-size="10.00" fill="#000000">+ updatedAt : date</text>
<text text-anchor="start" x="66" y="-13.5" font-family="Helvetica,sans-Serif" font-size="10.00" fill="#000000">+ id : text</text>
</a>
</g>
</g>
<!-- chatroom&#45;&gt;chatmessage -->
<g id="edge26" class="edge">
<title>chatroom&#45;&gt;chatmessage</title>
<path fill="none" stroke="#000000" d="M35.5329,-142.8481C34.0702,-130.8322 34.5789,-118.0981 39.431,-107 42.6475,-99.6429 47.2046,-92.766 52.4519,-86.4641"/>
<ellipse fill="none" stroke="#000000" cx="36.0527" cy="-146.2709" rx="3.2" ry="3.2"/>
<polygon fill="none" stroke="#000000" points="59.9937,-82.2226 52.5766,-86.3246 55.8168,-78.4925 59.9937,-82.2226"/>
<text text-anchor="middle" x="62.7785" y="-110" font-family="Helvetica,sans-Serif" font-size="10.00" fill="#000000">messages</text>
</g>
<!-- chatmessage&#45;&gt;user -->
<g id="edge28" class="edge">
<title>chatmessage&#45;&gt;user</title>
<path fill="none" stroke="#000000" d="M115.0228,-89.1632C115.8387,-95.1423 116.5356,-101.208 116.996,-107 122.6668,-178.336 125.5988,-197.2288 114.996,-268 113.9038,-275.2899 112.3878,-282.8107 110.6261,-290.2669"/>
<ellipse fill="none" stroke="#000000" cx="114.5522" cy="-85.8934" rx="3.2" ry="3.2"/>
<polygon fill="none" stroke="#000000" points="107.8373,-289.8792 108.6265,-298.3183 113.2722,-291.2291 107.8373,-289.8792"/>
<text text-anchor="middle" x="145.5025" y="-184.5" font-family="Helvetica,sans-Serif" font-size="10.00" fill="#000000">createdBy</text>
</g>
<!-- chatmessage&#45;&gt;chatroom -->
<g id="edge29" class="edge">
<title>chatmessage&#45;&gt;chatroom</title>
<path fill="none" stroke="#000000" d="M95.4988,-88.7154C92.4484,-98.7997 88.9016,-109.3758 84.996,-119 81.927,-126.5626 78.2873,-134.3934 74.5206,-141.9392"/>
<ellipse fill="none" stroke="#000000" cx="96.4254" cy="-85.5816" rx="3.2" ry="3.2"/>
<polygon fill="none" stroke="#000000" points="71.8711,-140.9711 70.7279,-149.3695 76.8589,-143.517 71.8711,-140.9711"/>
<text text-anchor="middle" x="101.384" y="-110" font-family="Helvetica,sans-Serif" font-size="10.00" fill="#000000">room</text>
</g>
<!-- test_fields_type -->
<g id="node18" class="node">
<title>test_fields_type</title>
<g id="a_node18"><a xlink:title="test_fields_type">
<polygon fill="#ffffff" stroke="#000000" points="1655.56,-286.5 1655.56,-434.5 1802.432,-434.5 1802.432,-286.5 1655.56,-286.5"/>
<text text-anchor="middle" x="1728.996" y="-421.5" font-family="Helvetica,sans-Serif" font-size="10.00" fill="#000000">test_fields_type</text>
<polyline fill="none" stroke="#000000" points="1655.56,-414.5 1802.432,-414.5 "/>
<text text-anchor="start" x="1663.56" y="-401.5" font-family="Helvetica,sans-Serif" font-size="10.00" fill="#000000">+ name1 : text</text>
<text text-anchor="start" x="1663.56" y="-389.5" font-family="Helvetica,sans-Serif" font-size="10.00" fill="#000000">+ name2 : text</text>
<text text-anchor="start" x="1663.56" y="-377.5" font-family="Helvetica,sans-Serif" font-size="10.00" fill="#000000">+ profile : object</text>
<text text-anchor="start" x="1663.56" y="-365.5" font-family="Helvetica,sans-Serif" font-size="10.00" fill="#000000">+ binary1 : binary</text>
<text text-anchor="start" x="1663.56" y="-353.5" font-family="Helvetica,sans-Serif" font-size="10.00" fill="#000000">+ binary2 : binary</text>
<text text-anchor="start" x="1663.56" y="-341.5" font-family="Helvetica,sans-Serif" font-size="10.00" fill="#000000">+ point : point</text>
<text text-anchor="start" x="1663.56" y="-329.5" font-family="Helvetica,sans-Serif" font-size="10.00" fill="#000000">+ longInSafeNumber : integer</text>
<text text-anchor="start" x="1663.56" y="-317.5" font-family="Helvetica,sans-Serif" font-size="10.00" fill="#000000">+ createdAt : date</text>
<text text-anchor="start" x="1663.56" y="-305.5" font-family="Helvetica,sans-Serif" font-size="10.00" fill="#000000">+ updatedAt : date</text>
<text text-anchor="start" x="1663.56" y="-293.5" font-family="Helvetica,sans-Serif" font-size="10.00" fill="#000000">+ id : text</text>
</a>
</g>
</g>
<!-- json -->
<g id="node19" class="node">
<title>json</title>
<g id="a_node19"><a xlink:title="json">
<polygon fill="#ffffff" stroke="#000000" points="1820,-316.5 1820,-404.5 1917.992,-404.5 1917.992,-316.5 1820,-316.5"/>
<text text-anchor="middle" x="1868.996" y="-391.5" font-family="Helvetica,sans-Serif" font-size="10.00" fill="#000000">json</text>
<polyline fill="none" stroke="#000000" points="1820,-384.5 1917.992,-384.5 "/>
<text text-anchor="start" x="1828" y="-371.5" font-family="Helvetica,sans-Serif" font-size="10.00" fill="#000000">+ name : text</text>
<text text-anchor="start" x="1828" y="-359.5" font-family="Helvetica,sans-Serif" font-size="10.00" fill="#000000">+ profile : object</text>
<text text-anchor="start" x="1828" y="-347.5" font-family="Helvetica,sans-Serif" font-size="10.00" fill="#000000">+ createdAt : date</text>
<text text-anchor="start" x="1828" y="-335.5" font-family="Helvetica,sans-Serif" font-size="10.00" fill="#000000">+ updatedAt : date</text>
<text text-anchor="start" x="1828" y="-323.5" font-family="Helvetica,sans-Serif" font-size="10.00" fill="#000000">+ id : text</text>
</a>
</g>
</g>
<!-- nographql -->
<g id="node20" class="node">
<title>nographql</title>
<g id="a_node20"><a xlink:title="nographql">
<polygon fill="#d3d3d3" stroke="#000000" points="1936,-316.5 1936,-404.5 2033.992,-404.5 2033.992,-316.5 1936,-316.5"/>
<text text-anchor="middle" x="1984.996" y="-391.5" font-family="Helvetica,sans-Serif" font-size="10.00" fill="#000000">nographql</text>
<polyline fill="none" stroke="#000000" points="1936,-384.5 2033.992,-384.5 "/>
<text text-anchor="start" x="1944" y="-371.5" font-family="Helvetica,sans-Serif" font-size="10.00" fill="#000000">+ foo : text</text>
<text text-anchor="start" x="1944" y="-359.5" font-family="Helvetica,sans-Serif" font-size="10.00" fill="#000000">+ bin : binary</text>
<text text-anchor="start" x="1944" y="-347.5" font-family="Helvetica,sans-Serif" font-size="10.00" fill="#000000">+ createdAt : date</text>
<text text-anchor="start" x="1944" y="-335.5" font-family="Helvetica,sans-Serif" font-size="10.00" fill="#000000">+ updatedAt : date</text>
<text text-anchor="start" x="1944" y="-323.5" font-family="Helvetica,sans-Serif" font-size="10.00" fill="#000000">+ id : text</text>
</a>
</g>
</g>
<!-- hook_test -->
<g id="node21" class="node">
<title>hook_test</title>
<g id="a_node21"><a xlink:title="hook_test">
<polygon fill="#ffffff" stroke="#000000" points="2052,-322.5 2052,-398.5 2149.992,-398.5 2149.992,-322.5 2052,-322.5"/>
<text text-anchor="middle" x="2100.996" y="-385.5" font-family="Helvetica,sans-Serif" font-size="10.00" fill="#000000">hook_test</text>
<polyline fill="none" stroke="#000000" points="2052,-378.5 2149.992,-378.5 "/>
<text text-anchor="start" x="2060" y="-365.5" font-family="Helvetica,sans-Serif" font-size="10.00" fill="#000000">+ name : text</text>
<text text-anchor="start" x="2060" y="-353.5" font-family="Helvetica,sans-Serif" font-size="10.00" fill="#000000">+ createdAt : date</text>
<text text-anchor="start" x="2060" y="-341.5" font-family="Helvetica,sans-Serif" font-size="10.00" fill="#000000">+ updatedAt : date</text>
<text text-anchor="start" x="2060" y="-329.5" font-family="Helvetica,sans-Serif" font-size="10.00" fill="#000000">+ id : text</text>
</a>
</g>
</g>
</g>
</svg>
