<svg version="1.1" baseProfile="full" width="1993.5" height="584.0" viewbox="0 0 1993.5 584" xmlns="http://www.w3.org/2000/svg" xmlns:xlink="http://www.w3.org/1999/xlink" xmlns:ev="http://www.w3.org/2001/xml-events">
	<desc >#lineWidth: 1.5
	#font: Helvetica,sans-Serif
	#fontSize: 10
	#leading: 1.6
	#fill: white
	#.nographql: fill=lightgray
	
	[user|+ name : text;+ sex : enum;+ age : number;+ password : text;+ salt : text;+ createdAt : date;+ updatedAt : date;+ id : serial]
	[person|+ name : text;+ sex : enum;+ age : number;+ createdAt : date;+ updatedAt : date;+ id : serial]
	[ext_acl|+ name : text;+ age : number;+ createdAt : date;+ updatedAt : date;+ id : serial]
	[ext_acl1|+ name : text;+ age : number;+ createdAt : date;+ updatedAt : date;+ id : serial]
	[test_acl|+ name : text;+ age : number;+ sex : text;+ createdAt : date;+ updatedAt : date;+ id : serial]
	[city|+ code : text;+ name : text;+ createdAt : date;+ updatedAt : date;+ id : serial]
	[people|+ name : text;+ sex : enum;+ age : number;+ createdAt : date;+ updatedAt : date;+ id : serial]
	[level|+ name : text;+ level_f : text;+ createdAt : date;+ updatedAt : date;+ id : serial]
	[sub_level|+ name : text;+ sublevel_f : text;+ createdAt : date;+ updatedAt : date;+ id : serial]
	[descendant_level|+ name : text;+ descendant_level_f : text;+ createdAt : date;+ updatedAt : date;+ id : serial]
	[level_lproperty|+ name : text;+ weight : integer;+ level_id : serial;+ createdAt : date;+ updatedAt : date;+ id : text]
	[pet|+ name : text;+ createdAt : date;+ updatedAt : date;+ id : text]
	[chatroom|+ name : text;+ createdAt : date;+ updatedAt : date;+ id : text]
	[chatmessage|+ msg : text;+ createdAt : date;+ updatedAt : date;+ id : text]
	[test_fields_type|+ name1 : text;+ name2 : text;+ profile : object;+ binary1 : binary;+ binary2 : binary;+ createdAt : date;+ updatedAt : date;+ id : text]
	[json|+ name : text;+ profile : object;+ createdAt : date;+ updatedAt : date;+ id : text]
	[&lt;nographql&gt;nographql|+ foo : text;+ bin : binary;+ createdAt : date;+ updatedAt : date;+ id : text]
	[hook_test|+ name : text;+ createdAt : date;+ updatedAt : date;+ id : text]
	[user] rooms--:&gt; [chatroom]
	[test_acl] ext--:&gt; [ext_acl]
	[test_acl] ext1-&gt; [ext_acl1]
	[people] mother-&gt; [people]
	[people] father-&gt; [people]
	[people] husband-&gt; [people]
	[people] husbands--:&gt; [people]
	[people] wife-&gt; [people]
	[people] childs--:&gt; [people]
	[people] patients--:&gt; [people]
	[people] doctor-&gt; [people]
	[people] city-&gt; [city]
	[people] my_friends--:&gt; [people]
	[people] friends--:&gt; [people]
	[level] one_l2-&gt; [level]
	[level] one_l3-&gt; [level]
	[level] one_sl-&gt; [sub_level]
	[level] many_sublevels--:&gt; [sub_level]
	[level] lproperty--:&gt; [level_lproperty]
	[sub_level] subl_one_subl-&gt; [sub_level]
	[sub_level] subl_one_descendant_level-&gt; [descendant_level]
	[level_lproperty] level-&gt; [level]
	[pet] createdBy-&gt; [person]
	[chatroom] messages--:&gt; [chatmessage]
	[chatroom] mambers--:&gt; [user]
	[chatmessage] createdBy-&gt; [user]
	[chatmessage] room-&gt; [chatroom]
	</desc>
	<g stroke-width="1.0" text-align="left" font="12pt Helvetica, Arial, sans-serif" font-size="10pt" font-family="Helvetica,sans-Serif" font-weight="normal" font-style="normal">
		<g font-family="Helvetica,sans-Serif" font-size="10pt" font-weight="bold" font-style="normal" stroke-width="1.5" stroke-linejoin="round" stroke-linecap="round" stroke="#33322E">
			<g stroke="transparent" fill="transparent">
				<rect x="0.0" y="0.0" height="584.0" width="1993.5" stroke="none"></rect>
			</g>
			<g transform="translate(8, 8)" fill="#33322E">
				<g transform="translate(20, 20)" fill="#33322E" font-family="Helvetica,sans-Serif" font-size="10pt" font-weight="normal" font-style="normal">
					<text x="803.7" y="194.0" stroke="none">rooms</text>
					<g stroke-dasharray="4 4">
						<path d="M795.7 176.0 L781 196 L781 218.66666666666666 L781.0 218.7 " fill="none"></path>
					</g>
					<path d="M775.7 218.7 L781.0 218.7 L786.3 218.7 L781.0 232.0 Z"></path>
					<text x="269.5" y="178.0" stroke="none">ext</text>
					<g stroke-dasharray="4 4">
						<path d="M261.5 160.0 L247 196 L247 210.66666666666666 L247.0 210.7 " fill="none"></path>
					</g>
					<path d="M241.7 210.7 L247.0 210.7 L252.3 210.7 L247.0 224.0 Z"></path>
					<text x="323.2" y="161.4" stroke="none">ext1</text>
					<path d="M359.5 143.4 L425 196 L425 217.33333333333334 L425.0 217.3 " fill="none"></path>
					<path d="M419.7 210.7 L425.0 217.3 L430.3 210.7 L425.0 224.0 Z"></path>
					<text x="618.2" y="29.8" stroke="none">mother</text>
					<path d="M672.0 37.8 L702 16 L709.5 16 L709.5 16 L717 88 L717 88 L709.5 160 L709.5 160 L702 160 L702 160 L677.3915738953546 142.10296283298516 L677.4 142.1 " fill="none"></path>
					<path d="M685.9 141.7 L677.4 142.1 L679.6 150.3 L672.0 138.2 Z"></path>
					<text x="611.0" y="178.0" stroke="none">city</text>
					<path d="M603.0 160.0 L603 196 L603 217.33333333333334 L603.0 217.3 " fill="none"></path>
					<path d="M597.7 210.7 L603.0 217.3 L608.3 210.7 L603.0 224.0 Z"></path>
					<text x="1105.8" y="35.4" stroke="none">one_l2</text>
					<path d="M1175.5 43.4 L1205.5 24 L1213 24 L1213 24 L1220.5 88 L1220.5 88 L1213 152 L1213 152 L1205.5 152 L1205.5 152 L1181.0986511394767 136.22539063562135 L1181.1 136.2 " fill="none"></path>
					<path d="M1189.6 135.4 L1181.1 136.2 L1183.8 144.3 L1175.5 132.6 Z"></path>
					<text x="1079.5" y="170.0" stroke="none">one_sl</text>
					<path d="M1071.5 152.0 L1047.5 196 L1047.5 217.33333333333334 L1047.5 217.3 " fill="none"></path>
					<path d="M1042.2 210.7 L1047.5 217.3 L1052.8 210.7 L1047.5 224.0 Z"></path>
					<text x="1084.6" y="170.0" stroke="none">lproperty</text>
					<g stroke-dasharray="4 4">
						<path d="M1150.9 152.0 L1181.5 196 L1196.9710831200864 211.14191113880793 L1197.0 211.1 " fill="none"></path>
					</g>
					<path d="M1193.2 215.0 L1197.0 211.1 L1200.7 207.3 L1206.5 220.5 Z"></path>
					<text x="978.5" y="235.4" stroke="none">subl_one_subl</text>
					<path d="M1116.5 243.4 L1146.5 224 L1154 224 L1154 224 L1161.5 288 L1161.5 288 L1154 352 L1154 352 L1146.5 352 L1146.5 352 L1122.0986511394767 336.22539063562135 L1122.1 336.2 " fill="none"></path>
					<path d="M1130.6 335.4 L1122.1 336.2 L1124.8 344.3 L1116.5 332.6 Z"></path>
					<text x="1055.5" y="370.0" stroke="none">subl_one_descendant_level</text>
					<path d="M1047.5 352.0 L1047.5 380 L1047.5 393.3333333333333 L1047.5 393.3 " fill="none"></path>
					<path d="M1042.2 386.7 L1047.5 393.3 L1052.8 386.7 L1047.5 400.0 Z"></path>
					<text x="1299.2" y="208.0" stroke="none">level</text>
					<path d="M1291.2 216.0 L1295.5 196 L1181.288287614163 130.73616435095033 L1181.3 130.7 " fill="none"></path>
					<path d="M1189.7 129.4 L1181.3 130.7 L1184.4 138.7 L1175.5 127.4 Z"></path>
					<text x="77.0" y="162.0" stroke="none">createdBy</text>
					<path d="M69.0 144.0 L69 196 L69 209.33333333333334 L69.0 209.3 " fill="none"></path>
					<path d="M63.7 202.7 L69.0 209.3 L74.3 202.7 L69.0 216.0 Z"></path>
					<text x="693.3" y="362.0" stroke="none">messages</text>
					<g stroke-dasharray="4 4">
						<path d="M768.8 344.0 L761 380 L776.986210611509 398.0247206894866 L777.0 398.0 " fill="none"></path>
					</g>
					<path d="M773.0 401.6 L777.0 398.0 L781.0 394.5 L785.8 408.0 Z"></path>
					<text x="781.2" y="241.2" stroke="none">mambers</text>
					<g stroke-dasharray="4 4">
						<path d="M850.0 249.2 L944.5 196 L937.1303192913101 186.52469623168435 L937.1 186.5 " fill="none"></path>
					</g>
					<path d="M941.3 183.3 L937.1 186.5 L932.9 189.8 L928.9 176.0 Z"></path>
					<text x="797.2" y="400.0" stroke="none">createdBy</text>
					<path d="M871.8 408.0 L890 380 L890 288 L890 288 L890 196 L890 196 L886.2936722353749 182.43107123459265 L886.3 182.4 " fill="none"></path>
					<path d="M893.2 187.5 L886.3 182.4 L882.9 190.3 L884.5 176.0 Z"></path>
					<text x="830.2" y="400.0" stroke="none">room</text>
					<path d="M822.2 408.0 L815.5 380 L804.3408229439226 350.24219451712696 L804.3 350.2 " fill="none"></path>
					<path d="M811.7 354.6 L804.3 350.2 L801.7 358.4 L802.0 344.0 Z"></path>
					<g data-name="user">
						<g fill="white" stroke="#33322E" data-name="user">
							<rect x="792.0" y="0.0" height="176.0" width="138.0" data-name="user"></rect>
							<path d="M792.0 32.0 L930.0 32.0" fill="none" data-name="user"></path>
						</g>
						<g transform="translate(792, 0)" font-family="Helvetica,sans-Serif" font-size="10pt" font-weight="bold" font-style="normal" data-name="user">
							<g transform="translate(8, 8)" fill="#33322E" text-align="center" data-name="user">
								<text x="61.0" y="13.0" stroke="none" text-anchor="middle" data-name="user">user</text>
								
							</g>
						</g>
						<g transform="translate(792, 32)" font-family="Helvetica,sans-Serif" font-size="10pt" font-weight="normal" font-style="normal" data-name="user">
							<g transform="translate(8, 8)" fill="#33322E" text-align="left" data-name="user">
								<text x="0.0" y="13.0" stroke="none" data-name="user">+ name : text</text>
								<text x="0.0" y="29.0" stroke="none" data-name="user">+ sex : enum</text>
								<text x="0.0" y="45.0" stroke="none" data-name="user">+ age : number</text>
								<text x="0.0" y="61.0" stroke="none" data-name="user">+ password : text</text>
								<text x="0.0" y="77.0" stroke="none" data-name="user">+ salt : text</text>
								<text x="0.0" y="93.0" stroke="none" data-name="user">+ createdAt : date</text>
								<text x="0.0" y="109.0" stroke="none" data-name="user">+ updatedAt : date</text>
								<text x="0.0" y="125.0" stroke="none" data-name="user">+ id : serial</text>
								
							</g>
						</g>
					</g>
					<g data-name="person">
						<g fill="white" stroke="#33322E" data-name="person">
							<rect x="0.0" y="216.0" height="144.0" width="138.0" data-name="person"></rect>
							<path d="M0.0 248.0 L138.0 248.0" fill="none" data-name="person"></path>
						</g>
						<g transform="translate(0, 216)" font-family="Helvetica,sans-Serif" font-size="10pt" font-weight="bold" font-style="normal" data-name="person">
							<g transform="translate(8, 8)" fill="#33322E" text-align="center" data-name="person">
								<text x="61.0" y="13.0" stroke="none" text-anchor="middle" data-name="person">person</text>
								
							</g>
						</g>
						<g transform="translate(0, 248)" font-family="Helvetica,sans-Serif" font-size="10pt" font-weight="normal" font-style="normal" data-name="person">
							<g transform="translate(8, 8)" fill="#33322E" text-align="left" data-name="person">
								<text x="0.0" y="13.0" stroke="none" data-name="person">+ name : text</text>
								<text x="0.0" y="29.0" stroke="none" data-name="person">+ sex : enum</text>
								<text x="0.0" y="45.0" stroke="none" data-name="person">+ age : number</text>
								<text x="0.0" y="61.0" stroke="none" data-name="person">+ createdAt : date</text>
								<text x="0.0" y="77.0" stroke="none" data-name="person">+ updatedAt : date</text>
								<text x="0.0" y="93.0" stroke="none" data-name="person">+ id : serial</text>
								
							</g>
						</g>
					</g>
					<g data-name="ext_acl">
						<g fill="white" stroke="#33322E" data-name="ext_acl">
							<rect x="178.0" y="224.0" height="128.0" width="138.0" data-name="ext_acl"></rect>
							<path d="M178.0 256.0 L316.0 256.0" fill="none" data-name="ext_acl"></path>
						</g>
						<g transform="translate(178, 224)" font-family="Helvetica,sans-Serif" font-size="10pt" font-weight="bold" font-style="normal" data-name="ext_acl">
							<g transform="translate(8, 8)" fill="#33322E" text-align="center" data-name="ext_acl">
								<text x="61.0" y="13.0" stroke="none" text-anchor="middle" data-name="ext_acl">ext_acl</text>
								
							</g>
						</g>
						<g transform="translate(178, 256)" font-family="Helvetica,sans-Serif" font-size="10pt" font-weight="normal" font-style="normal" data-name="ext_acl">
							<g transform="translate(8, 8)" fill="#33322E" text-align="left" data-name="ext_acl">
								<text x="0.0" y="13.0" stroke="none" data-name="ext_acl">+ name : text</text>
								<text x="0.0" y="29.0" stroke="none" data-name="ext_acl">+ age : number</text>
								<text x="0.0" y="45.0" stroke="none" data-name="ext_acl">+ createdAt : date</text>
								<text x="0.0" y="61.0" stroke="none" data-name="ext_acl">+ updatedAt : date</text>
								<text x="0.0" y="77.0" stroke="none" data-name="ext_acl">+ id : serial</text>
								
							</g>
						</g>
					</g>
					<g data-name="ext_acl1">
						<g fill="white" stroke="#33322E" data-name="ext_acl1">
							<rect x="356.0" y="224.0" height="128.0" width="138.0" data-name="ext_acl1"></rect>
							<path d="M356.0 256.0 L494.0 256.0" fill="none" data-name="ext_acl1"></path>
						</g>
						<g transform="translate(356, 224)" font-family="Helvetica,sans-Serif" font-size="10pt" font-weight="bold" font-style="normal" data-name="ext_acl1">
							<g transform="translate(8, 8)" fill="#33322E" text-align="center" data-name="ext_acl1">
								<text x="61.0" y="13.0" stroke="none" text-anchor="middle" data-name="ext_acl1">ext_acl1</text>
								
							</g>
						</g>
						<g transform="translate(356, 256)" font-family="Helvetica,sans-Serif" font-size="10pt" font-weight="normal" font-style="normal" data-name="ext_acl1">
							<g transform="translate(8, 8)" fill="#33322E" text-align="left" data-name="ext_acl1">
								<text x="0.0" y="13.0" stroke="none" data-name="ext_acl1">+ name : text</text>
								<text x="0.0" y="29.0" stroke="none" data-name="ext_acl1">+ age : number</text>
								<text x="0.0" y="45.0" stroke="none" data-name="ext_acl1">+ createdAt : date</text>
								<text x="0.0" y="61.0" stroke="none" data-name="ext_acl1">+ updatedAt : date</text>
								<text x="0.0" y="77.0" stroke="none" data-name="ext_acl1">+ id : serial</text>
								
							</g>
						</g>
					</g>
					<g data-name="test_acl">
						<g fill="white" stroke="#33322E" data-name="test_acl">
							<rect x="222.0" y="16.0" height="144.0" width="138.0" data-name="test_acl"></rect>
							<path d="M222.0 48.0 L360.0 48.0" fill="none" data-name="test_acl"></path>
						</g>
						<g transform="translate(222, 16)" font-family="Helvetica,sans-Serif" font-size="10pt" font-weight="bold" font-style="normal" data-name="test_acl">
							<g transform="translate(8, 8)" fill="#33322E" text-align="center" data-name="test_acl">
								<text x="61.0" y="13.0" stroke="none" text-anchor="middle" data-name="test_acl">test_acl</text>
								
							</g>
						</g>
						<g transform="translate(222, 48)" font-family="Helvetica,sans-Serif" font-size="10pt" font-weight="normal" font-style="normal" data-name="test_acl">
							<g transform="translate(8, 8)" fill="#33322E" text-align="left" data-name="test_acl">
								<text x="0.0" y="13.0" stroke="none" data-name="test_acl">+ name : text</text>
								<text x="0.0" y="29.0" stroke="none" data-name="test_acl">+ age : number</text>
								<text x="0.0" y="45.0" stroke="none" data-name="test_acl">+ sex : text</text>
								<text x="0.0" y="61.0" stroke="none" data-name="test_acl">+ createdAt : date</text>
								<text x="0.0" y="77.0" stroke="none" data-name="test_acl">+ updatedAt : date</text>
								<text x="0.0" y="93.0" stroke="none" data-name="test_acl">+ id : serial</text>
								
							</g>
						</g>
					</g>
					<g data-name="city">
						<g fill="white" stroke="#33322E" data-name="city">
							<rect x="534.0" y="224.0" height="128.0" width="138.0" data-name="city"></rect>
							<path d="M534.0 256.0 L672.0 256.0" fill="none" data-name="city"></path>
						</g>
						<g transform="translate(534, 224)" font-family="Helvetica,sans-Serif" font-size="10pt" font-weight="bold" font-style="normal" data-name="city">
							<g transform="translate(8, 8)" fill="#33322E" text-align="center" data-name="city">
								<text x="61.0" y="13.0" stroke="none" text-anchor="middle" data-name="city">city</text>
								
							</g>
						</g>
						<g transform="translate(534, 256)" font-family="Helvetica,sans-Serif" font-size="10pt" font-weight="normal" font-style="normal" data-name="city">
							<g transform="translate(8, 8)" fill="#33322E" text-align="left" data-name="city">
								<text x="0.0" y="13.0" stroke="none" data-name="city">+ code : text</text>
								<text x="0.0" y="29.0" stroke="none" data-name="city">+ name : text</text>
								<text x="0.0" y="45.0" stroke="none" data-name="city">+ createdAt : date</text>
								<text x="0.0" y="61.0" stroke="none" data-name="city">+ updatedAt : date</text>
								<text x="0.0" y="77.0" stroke="none" data-name="city">+ id : serial</text>
								
							</g>
						</g>
					</g>
					<g data-name="people">
						<g fill="white" stroke="#33322E" data-name="people">
							<rect x="534.0" y="16.0" height="144.0" width="138.0" data-name="people"></rect>
							<path d="M534.0 48.0 L672.0 48.0" fill="none" data-name="people"></path>
						</g>
						<g transform="translate(534, 16)" font-family="Helvetica,sans-Serif" font-size="10pt" font-weight="bold" font-style="normal" data-name="people">
							<g transform="translate(8, 8)" fill="#33322E" text-align="center" data-name="people">
								<text x="61.0" y="13.0" stroke="none" text-anchor="middle" data-name="people">people</text>
								
							</g>
						</g>
						<g transform="translate(534, 48)" font-family="Helvetica,sans-Serif" font-size="10pt" font-weight="normal" font-style="normal" data-name="people">
							<g transform="translate(8, 8)" fill="#33322E" text-align="left" data-name="people">
								<text x="0.0" y="13.0" stroke="none" data-name="people">+ name : text</text>
								<text x="0.0" y="29.0" stroke="none" data-name="people">+ sex : enum</text>
								<text x="0.0" y="45.0" stroke="none" data-name="people">+ age : number</text>
								<text x="0.0" y="61.0" stroke="none" data-name="people">+ createdAt : date</text>
								<text x="0.0" y="77.0" stroke="none" data-name="people">+ updatedAt : date</text>
								<text x="0.0" y="93.0" stroke="none" data-name="people">+ id : serial</text>
								
							</g>
						</g>
					</g>
					<g data-name="level">
						<g fill="white" stroke="#33322E" data-name="level">
							<rect x="1038.0" y="24.0" height="128.0" width="138.0" data-name="level"></rect>
							<path d="M1038.0 56.0 L1176.0 56.0" fill="none" data-name="level"></path>
						</g>
						<g transform="translate(1038, 24)" font-family="Helvetica,sans-Serif" font-size="10pt" font-weight="bold" font-style="normal" data-name="level">
							<g transform="translate(8, 8)" fill="#33322E" text-align="center" data-name="level">
								<text x="61.0" y="13.0" stroke="none" text-anchor="middle" data-name="level">level</text>
								
							</g>
						</g>
						<g transform="translate(1038, 56)" font-family="Helvetica,sans-Serif" font-size="10pt" font-weight="normal" font-style="normal" data-name="level">
							<g transform="translate(8, 8)" fill="#33322E" text-align="left" data-name="level">
								<text x="0.0" y="13.0" stroke="none" data-name="level">+ name : text</text>
								<text x="0.0" y="29.0" stroke="none" data-name="level">+ level_f : text</text>
								<text x="0.0" y="45.0" stroke="none" data-name="level">+ createdAt : date</text>
								<text x="0.0" y="61.0" stroke="none" data-name="level">+ updatedAt : date</text>
								<text x="0.0" y="77.0" stroke="none" data-name="level">+ id : serial</text>
								
							</g>
						</g>
					</g>
					<g data-name="sub_level">
						<g fill="white" stroke="#33322E" data-name="sub_level">
							<rect x="979.0" y="224.0" height="128.0" width="138.0" data-name="sub_level"></rect>
							<path d="M979.0 256.0 L1117.0 256.0" fill="none" data-name="sub_level"></path>
						</g>
						<g transform="translate(979, 224)" font-family="Helvetica,sans-Serif" font-size="10pt" font-weight="bold" font-style="normal" data-name="sub_level">
							<g transform="translate(8, 8)" fill="#33322E" text-align="center" data-name="sub_level">
								<text x="61.0" y="13.0" stroke="none" text-anchor="middle" data-name="sub_level">sub_level</text>
								
							</g>
						</g>
						<g transform="translate(979, 256)" font-family="Helvetica,sans-Serif" font-size="10pt" font-weight="normal" font-style="normal" data-name="sub_level">
							<g transform="translate(8, 8)" fill="#33322E" text-align="left" data-name="sub_level">
								<text x="0.0" y="13.0" stroke="none" data-name="sub_level">+ name : text</text>
								<text x="0.0" y="29.0" stroke="none" data-name="sub_level">+ sublevel_f : text</text>
								<text x="0.0" y="45.0" stroke="none" data-name="sub_level">+ createdAt : date</text>
								<text x="0.0" y="61.0" stroke="none" data-name="sub_level">+ updatedAt : date</text>
								<text x="0.0" y="77.0" stroke="none" data-name="sub_level">+ id : serial</text>
								
							</g>
						</g>
					</g>
					<g data-name="descendant_level">
						<g fill="white" stroke="#33322E" data-name="descendant_level">
							<rect x="951.0" y="400.0" height="128.0" width="194.0" data-name="descendant_level"></rect>
							<path d="M951.0 432.0 L1145.0 432.0" fill="none" data-name="descendant_level"></path>
						</g>
						<g transform="translate(951, 400)" font-family="Helvetica,sans-Serif" font-size="10pt" font-weight="bold" font-style="normal" data-name="descendant_level">
							<g transform="translate(8, 8)" fill="#33322E" text-align="center" data-name="descendant_level">
								<text x="89.0" y="13.0" stroke="none" text-anchor="middle" data-name="descendant_level">descendant_level</text>
								
							</g>
						</g>
						<g transform="translate(951, 432)" font-family="Helvetica,sans-Serif" font-size="10pt" font-weight="normal" font-style="normal" data-name="descendant_level">
							<g transform="translate(8, 8)" fill="#33322E" text-align="left" data-name="descendant_level">
								<text x="0.0" y="13.0" stroke="none" data-name="descendant_level">+ name : text</text>
								<text x="0.0" y="29.0" stroke="none" data-name="descendant_level">+ descendant_level_f : text</text>
								<text x="0.0" y="45.0" stroke="none" data-name="descendant_level">+ createdAt : date</text>
								<text x="0.0" y="61.0" stroke="none" data-name="descendant_level">+ updatedAt : date</text>
								<text x="0.0" y="77.0" stroke="none" data-name="descendant_level">+ id : serial</text>
								
							</g>
						</g>
					</g>
					<g data-name="level_lproperty">
						<g fill="white" stroke="#33322E" data-name="level_lproperty">
							<rect x="1207.0" y="216.0" height="144.0" width="138.0" data-name="level_lproperty"></rect>
							<path d="M1207.0 248.0 L1345.0 248.0" fill="none" data-name="level_lproperty"></path>
						</g>
						<g transform="translate(1207, 216)" font-family="Helvetica,sans-Serif" font-size="10pt" font-weight="bold" font-style="normal" data-name="level_lproperty">
							<g transform="translate(8, 8)" fill="#33322E" text-align="center" data-name="level_lproperty">
								<text x="61.0" y="13.0" stroke="none" text-anchor="middle" data-name="level_lproperty">level_lproperty</text>
								
							</g>
						</g>
						<g transform="translate(1207, 248)" font-family="Helvetica,sans-Serif" font-size="10pt" font-weight="normal" font-style="normal" data-name="level_lproperty">
							<g transform="translate(8, 8)" fill="#33322E" text-align="left" data-name="level_lproperty">
								<text x="0.0" y="13.0" stroke="none" data-name="level_lproperty">+ name : text</text>
								<text x="0.0" y="29.0" stroke="none" data-name="level_lproperty">+ weight : integer</text>
								<text x="0.0" y="45.0" stroke="none" data-name="level_lproperty">+ level_id : serial</text>
								<text x="0.0" y="61.0" stroke="none" data-name="level_lproperty">+ createdAt : date</text>
								<text x="0.0" y="77.0" stroke="none" data-name="level_lproperty">+ updatedAt : date</text>
								<text x="0.0" y="93.0" stroke="none" data-name="level_lproperty">+ id : text</text>
								
							</g>
						</g>
					</g>
					<g data-name="pet">
						<g fill="white" stroke="#33322E" data-name="pet">
							<rect x="0.0" y="32.0" height="112.0" width="138.0" data-name="pet"></rect>
							<path d="M0.0 64.0 L138.0 64.0" fill="none" data-name="pet"></path>
						</g>
						<g transform="translate(0, 32)" font-family="Helvetica,sans-Serif" font-size="10pt" font-weight="bold" font-style="normal" data-name="pet">
							<g transform="translate(8, 8)" fill="#33322E" text-align="center" data-name="pet">
								<text x="61.0" y="13.0" stroke="none" text-anchor="middle" data-name="pet">pet</text>
								
							</g>
						</g>
						<g transform="translate(0, 64)" font-family="Helvetica,sans-Serif" font-size="10pt" font-weight="normal" font-style="normal" data-name="pet">
							<g transform="translate(8, 8)" fill="#33322E" text-align="left" data-name="pet">
								<text x="0.0" y="13.0" stroke="none" data-name="pet">+ name : text</text>
								<text x="0.0" y="29.0" stroke="none" data-name="pet">+ createdAt : date</text>
								<text x="0.0" y="45.0" stroke="none" data-name="pet">+ updatedAt : date</text>
								<text x="0.0" y="61.0" stroke="none" data-name="pet">+ id : text</text>
								
							</g>
						</g>
					</g>
					<g data-name="chatroom">
						<g fill="white" stroke="#33322E" data-name="chatroom">
							<rect x="712.0" y="232.0" height="112.0" width="138.0" data-name="chatroom"></rect>
							<path d="M712.0 264.0 L850.0 264.0" fill="none" data-name="chatroom"></path>
						</g>
						<g transform="translate(712, 232)" font-family="Helvetica,sans-Serif" font-size="10pt" font-weight="bold" font-style="normal" data-name="chatroom">
							<g transform="translate(8, 8)" fill="#33322E" text-align="center" data-name="chatroom">
								<text x="61.0" y="13.0" stroke="none" text-anchor="middle" data-name="chatroom">chatroom</text>
								
							</g>
						</g>
						<g transform="translate(712, 264)" font-family="Helvetica,sans-Serif" font-size="10pt" font-weight="normal" font-style="normal" data-name="chatroom">
							<g transform="translate(8, 8)" fill="#33322E" text-align="left" data-name="chatroom">
								<text x="0.0" y="13.0" stroke="none" data-name="chatroom">+ name : text</text>
								<text x="0.0" y="29.0" stroke="none" data-name="chatroom">+ createdAt : date</text>
								<text x="0.0" y="45.0" stroke="none" data-name="chatroom">+ updatedAt : date</text>
								<text x="0.0" y="61.0" stroke="none" data-name="chatroom">+ id : text</text>
								
							</g>
						</g>
					</g>
					<g data-name="chatmessage">
						<g fill="white" stroke="#33322E" data-name="chatmessage">
							<rect x="767.0" y="408.0" height="112.0" width="138.0" data-name="chatmessage"></rect>
							<path d="M767.0 440.0 L905.0 440.0" fill="none" data-name="chatmessage"></path>
						</g>
						<g transform="translate(767, 408)" font-family="Helvetica,sans-Serif" font-size="10pt" font-weight="bold" font-style="normal" data-name="chatmessage">
							<g transform="translate(8, 8)" fill="#33322E" text-align="center" data-name="chatmessage">
								<text x="61.0" y="13.0" stroke="none" text-anchor="middle" data-name="chatmessage">chatmessage</text>
								
							</g>
						</g>
						<g transform="translate(767, 440)" font-family="Helvetica,sans-Serif" font-size="10pt" font-weight="normal" font-style="normal" data-name="chatmessage">
							<g transform="translate(8, 8)" fill="#33322E" text-align="left" data-name="chatmessage">
								<text x="0.0" y="13.0" stroke="none" data-name="chatmessage">+ msg : text</text>
								<text x="0.0" y="29.0" stroke="none" data-name="chatmessage">+ createdAt : date</text>
								<text x="0.0" y="45.0" stroke="none" data-name="chatmessage">+ updatedAt : date</text>
								<text x="0.0" y="61.0" stroke="none" data-name="chatmessage">+ id : text</text>
								
							</g>
						</g>
					</g>
					<g data-name="test_fields_type">
						<g fill="white" stroke="#33322E" data-name="test_fields_type">
							<rect x="1266.0" y="0.0" height="176.0" width="138.0" data-name="test_fields_type"></rect>
							<path d="M1266.0 32.0 L1404.0 32.0" fill="none" data-name="test_fields_type"></path>
						</g>
						<g transform="translate(1266, 0)" font-family="Helvetica,sans-Serif" font-size="10pt" font-weight="bold" font-style="normal" data-name="test_fields_type">
							<g transform="translate(8, 8)" fill="#33322E" text-align="center" data-name="test_fields_type">
								<text x="61.0" y="13.0" stroke="none" text-anchor="middle" data-name="test_fields_type">test_fields_type</text>
								
							</g>
						</g>
						<g transform="translate(1266, 32)" font-family="Helvetica,sans-Serif" font-size="10pt" font-weight="normal" font-style="normal" data-name="test_fields_type">
							<g transform="translate(8, 8)" fill="#33322E" text-align="left" data-name="test_fields_type">
								<text x="0.0" y="13.0" stroke="none" data-name="test_fields_type">+ name1 : text</text>
								<text x="0.0" y="29.0" stroke="none" data-name="test_fields_type">+ name2 : text</text>
								<text x="0.0" y="45.0" stroke="none" data-name="test_fields_type">+ profile : object</text>
								<text x="0.0" y="61.0" stroke="none" data-name="test_fields_type">+ binary1 : binary</text>
								<text x="0.0" y="77.0" stroke="none" data-name="test_fields_type">+ binary2 : binary</text>
								<text x="0.0" y="93.0" stroke="none" data-name="test_fields_type">+ createdAt : date</text>
								<text x="0.0" y="109.0" stroke="none" data-name="test_fields_type">+ updatedAt : date</text>
								<text x="0.0" y="125.0" stroke="none" data-name="test_fields_type">+ id : text</text>
								
							</g>
						</g>
					</g>
					<g data-name="json">
						<g fill="white" stroke="#33322E" data-name="json">
							<rect x="1444.0" y="24.0" height="128.0" width="138.0" data-name="json"></rect>
							<path d="M1444.0 56.0 L1582.0 56.0" fill="none" data-name="json"></path>
						</g>
						<g transform="translate(1444, 24)" font-family="Helvetica,sans-Serif" font-size="10pt" font-weight="bold" font-style="normal" data-name="json">
							<g transform="translate(8, 8)" fill="#33322E" text-align="center" data-name="json">
								<text x="61.0" y="13.0" stroke="none" text-anchor="middle" data-name="json">json</text>
								
							</g>
						</g>
						<g transform="translate(1444, 56)" font-family="Helvetica,sans-Serif" font-size="10pt" font-weight="normal" font-style="normal" data-name="json">
							<g transform="translate(8, 8)" fill="#33322E" text-align="left" data-name="json">
								<text x="0.0" y="13.0" stroke="none" data-name="json">+ name : text</text>
								<text x="0.0" y="29.0" stroke="none" data-name="json">+ profile : object</text>
								<text x="0.0" y="45.0" stroke="none" data-name="json">+ createdAt : date</text>
								<text x="0.0" y="61.0" stroke="none" data-name="json">+ updatedAt : date</text>
								<text x="0.0" y="77.0" stroke="none" data-name="json">+ id : text</text>
								
							</g>
						</g>
					</g>
					<g data-name="nographql">
						<g fill="lightgray" stroke="#33322E" data-name="nographql">
							<rect x="1622.0" y="24.0" height="128.0" width="138.0" data-name="nographql"></rect>
							<path d="M1622.0 56.0 L1760.0 56.0" fill="none" data-name="nographql"></path>
						</g>
						<g transform="translate(1622, 24)" font-family="Helvetica,sans-Serif" font-size="10pt" font-weight="normal" font-style="normal" data-name="nographql">
							<g transform="translate(8, 8)" fill="#33322E" text-align="center" data-name="nographql">
								<text x="61.0" y="13.0" stroke="none" text-anchor="middle" data-name="nographql">nographql</text>
								
							</g>
						</g>
						<g transform="translate(1622, 56)" font-family="Helvetica,sans-Serif" font-size="10pt" font-weight="normal" font-style="normal" data-name="nographql">
							<g transform="translate(8, 8)" fill="#33322E" text-align="left" data-name="nographql">
								<text x="0.0" y="13.0" stroke="none" data-name="nographql">+ foo : text</text>
								<text x="0.0" y="29.0" stroke="none" data-name="nographql">+ bin : binary</text>
								<text x="0.0" y="45.0" stroke="none" data-name="nographql">+ createdAt : date</text>
								<text x="0.0" y="61.0" stroke="none" data-name="nographql">+ updatedAt : date</text>
								<text x="0.0" y="77.0" stroke="none" data-name="nographql">+ id : text</text>
								
							</g>
						</g>
					</g>
					<g data-name="hook_test">
						<g fill="white" stroke="#33322E" data-name="hook_test">
							<rect x="1800.0" y="32.0" height="112.0" width="138.0" data-name="hook_test"></rect>
							<path d="M1800.0 64.0 L1938.0 64.0" fill="none" data-name="hook_test"></path>
						</g>
						<g transform="translate(1800, 32)" font-family="Helvetica,sans-Serif" font-size="10pt" font-weight="bold" font-style="normal" data-name="hook_test">
							<g transform="translate(8, 8)" fill="#33322E" text-align="center" data-name="hook_test">
								<text x="61.0" y="13.0" stroke="none" text-anchor="middle" data-name="hook_test">hook_test</text>
								
							</g>
						</g>
						<g transform="translate(1800, 64)" font-family="Helvetica,sans-Serif" font-size="10pt" font-weight="normal" font-style="normal" data-name="hook_test">
							<g transform="translate(8, 8)" fill="#33322E" text-align="left" data-name="hook_test">
								<text x="0.0" y="13.0" stroke="none" data-name="hook_test">+ name : text</text>
								<text x="0.0" y="29.0" stroke="none" data-name="hook_test">+ createdAt : date</text>
								<text x="0.0" y="45.0" stroke="none" data-name="hook_test">+ updatedAt : date</text>
								<text x="0.0" y="61.0" stroke="none" data-name="hook_test">+ id : text</text>
								
							</g>
						</g>
					</g>
				</g>
			</g>
		</g>
	</g>
</svg>