<?xml version="1.0" encoding="UTF-8" standalone="no"?>
<!DOCTYPE svg PUBLIC "-//W3C//DTD SVG 1.1//EN"
 "http://www.w3.org/Graphics/SVG/1.1/DTD/svg11.dtd">
<!-- Generated by graphviz version 2.40.1 (20161225.0304)
 -->
<!-- Title: %0 Pages: 1 -->
<svg width="1968pt" height="419pt"
 viewBox="0.00 0.00 1967.99 419.00" xmlns="http://www.w3.org/2000/svg" xmlns:xlink="http://www.w3.org/1999/xlink">
<g id="graph0" class="graph" transform="scale(1 1) rotate(0) translate(4 415)">
<title>%0</title>
<polygon fill="#ffffff" stroke="transparent" points="-4,4 -4,-415 1963.992,-415 1963.992,4 -4,4"/>
<!-- user -->
<g id="node1" class="node">
<title>user</title>
<g id="a_node1"><a xlink:title="user">
<polygon fill="#ffffff" stroke="#000000" points="29.2915,-286.5 29.2915,-410.5 146.7005,-410.5 146.7005,-286.5 29.2915,-286.5"/>
<text text-anchor="middle" x="87.996" y="-397.5" font-family="Helvetica,sans-Serif" font-size="10.00" fill="#000000">user</text>
<polyline fill="none" stroke="#000000" points="29.2915,-390.5 146.7005,-390.5 "/>
<text text-anchor="start" x="37.2915" y="-377.5" font-family="Helvetica,sans-Serif" font-size="10.00" fill="#000000">+ name(用户名) : text</text>
<text text-anchor="start" x="37.2915" y="-365.5" font-family="Helvetica,sans-Serif" font-size="10.00" fill="#000000">+ sex : enum</text>
<text text-anchor="start" x="37.2915" y="-353.5" font-family="Helvetica,sans-Serif" font-size="10.00" fill="#000000">+ age : number</text>
<text text-anchor="start" x="37.2915" y="-341.5" font-family="Helvetica,sans-Serif" font-size="10.00" fill="#000000">+ password(密码) : text</text>
<text text-anchor="start" x="37.2915" y="-329.5" font-family="Helvetica,sans-Serif" font-size="10.00" fill="#000000">+ salt : text</text>
<text text-anchor="start" x="37.2915" y="-317.5" font-family="Helvetica,sans-Serif" font-size="10.00" fill="#000000">+ createdAt : date</text>
<text text-anchor="start" x="37.2915" y="-305.5" font-family="Helvetica,sans-Serif" font-size="10.00" fill="#000000">+ updatedAt : date</text>
<text text-anchor="start" x="37.2915" y="-293.5" font-family="Helvetica,sans-Serif" font-size="10.00" fill="#000000">+ id : text</text>
</a>
</g>
</g>
<!-- chatroom -->
<g id="node15" class="node">
<title>chatroom</title>
<g id="a_node15"><a xlink:title="chatroom">
<polygon fill="#ffffff" stroke="#000000" points="0,-149.5 0,-225.5 97.992,-225.5 97.992,-149.5 0,-149.5"/>
<text text-anchor="middle" x="48.996" y="-212.5" font-family="Helvetica,sans-Serif" font-size="10.00" fill="#000000">chatroom</text>
<polyline fill="none" stroke="#000000" points="0,-205.5 97.992,-205.5 "/>
<text text-anchor="start" x="8" y="-192.5" font-family="Helvetica,sans-Serif" font-size="10.00" fill="#000000">+ name : text</text>
<text text-anchor="start" x="8" y="-180.5" font-family="Helvetica,sans-Serif" font-size="10.00" fill="#000000">+ createdAt : date</text>
<text text-anchor="start" x="8" y="-168.5" font-family="Helvetica,sans-Serif" font-size="10.00" fill="#000000">+ updatedAt : date</text>
<text text-anchor="start" x="8" y="-156.5" font-family="Helvetica,sans-Serif" font-size="10.00" fill="#000000">+ id : text</text>
</a>
</g>
</g>
<!-- user&#45;&gt;chatroom -->
<g id="edge1" class="edge">
<title>user&#45;&gt;chatroom</title>
<path fill="none" stroke="#000000" d="M42.5229,-280.3689C40.8546,-276.2787 39.397,-272.1416 38.22,-268 35.1182,-257.0858 35.0311,-245.0792 36.37,-233.7454"/>
<ellipse fill="none" stroke="#000000" cx="43.8347" cy="-283.3881" rx="3.2" ry="3.2"/>
<polygon fill="none" stroke="#000000" points="40.3438,-226.0481 36.3989,-233.5499 34.8045,-225.2254 40.3438,-226.0481"/>
<text text-anchor="middle" x="52.884" y="-259" font-family="Helvetica,sans-Serif" font-size="10.00" fill="#000000">rooms</text>
</g>
<!-- person -->
<g id="node2" class="node">
<title>person</title>
<g id="a_node2"><a xlink:title="person">
<polygon fill="#ffffff" stroke="#000000" points="208,-137.5 208,-237.5 305.992,-237.5 305.992,-137.5 208,-137.5"/>
<text text-anchor="middle" x="256.996" y="-224.5" font-family="Helvetica,sans-Serif" font-size="10.00" fill="#000000">person</text>
<polyline fill="none" stroke="#000000" points="208,-217.5 305.992,-217.5 "/>
<text text-anchor="start" x="216" y="-204.5" font-family="Helvetica,sans-Serif" font-size="10.00" fill="#000000">+ name : text</text>
<text text-anchor="start" x="216" y="-192.5" font-family="Helvetica,sans-Serif" font-size="10.00" fill="#000000">+ sex : enum</text>
<text text-anchor="start" x="216" y="-180.5" font-family="Helvetica,sans-Serif" font-size="10.00" fill="#000000">+ age : number</text>
<text text-anchor="start" x="216" y="-168.5" font-family="Helvetica,sans-Serif" font-size="10.00" fill="#000000">+ createdAt : date</text>
<text text-anchor="start" x="216" y="-156.5" font-family="Helvetica,sans-Serif" font-size="10.00" fill="#000000">+ updatedAt : date</text>
<text text-anchor="start" x="216" y="-144.5" font-family="Helvetica,sans-Serif" font-size="10.00" fill="#000000">+ id : text</text>
</a>
</g>
</g>
<!-- person_query -->
<g id="node3" class="node">
<title>person_query</title>
<g id="a_node3"><a xlink:title="person_query">
<polygon fill="#ffffff" stroke="#000000" points="334,-137.5 334,-237.5 431.992,-237.5 431.992,-137.5 334,-137.5"/>
<text text-anchor="middle" x="382.996" y="-224.5" font-family="Helvetica,sans-Serif" font-size="10.00" fill="#000000">person_query</text>
<polyline fill="none" stroke="#000000" points="334,-217.5 431.992,-217.5 "/>
<text text-anchor="start" x="342" y="-204.5" font-family="Helvetica,sans-Serif" font-size="10.00" fill="#000000">+ name : text</text>
<text text-anchor="start" x="342" y="-192.5" font-family="Helvetica,sans-Serif" font-size="10.00" fill="#000000">+ sex : enum</text>
<text text-anchor="start" x="342" y="-180.5" font-family="Helvetica,sans-Serif" font-size="10.00" fill="#000000">+ age : number</text>
<text text-anchor="start" x="342" y="-168.5" font-family="Helvetica,sans-Serif" font-size="10.00" fill="#000000">+ createdAt : date</text>
<text text-anchor="start" x="342" y="-156.5" font-family="Helvetica,sans-Serif" font-size="10.00" fill="#000000">+ updatedAt : date</text>
<text text-anchor="start" x="342" y="-144.5" font-family="Helvetica,sans-Serif" font-size="10.00" fill="#000000">+ id : text</text>
</a>
</g>
</g>
<!-- pet_query -->
<g id="node4" class="node">
<title>pet_query</title>
<g id="a_node4"><a xlink:title="pet_query">
<polygon fill="#ffffff" stroke="#000000" points="349,-310.5 349,-386.5 446.992,-386.5 446.992,-310.5 349,-310.5"/>
<text text-anchor="middle" x="397.996" y="-373.5" font-family="Helvetica,sans-Serif" font-size="10.00" fill="#000000">pet_query</text>
<polyline fill="none" stroke="#000000" points="349,-366.5 446.992,-366.5 "/>
<text text-anchor="start" x="357" y="-353.5" font-family="Helvetica,sans-Serif" font-size="10.00" fill="#000000">+ name : text</text>
<text text-anchor="start" x="357" y="-341.5" font-family="Helvetica,sans-Serif" font-size="10.00" fill="#000000">+ createdAt : date</text>
<text text-anchor="start" x="357" y="-329.5" font-family="Helvetica,sans-Serif" font-size="10.00" fill="#000000">+ updatedAt : date</text>
<text text-anchor="start" x="357" y="-317.5" font-family="Helvetica,sans-Serif" font-size="10.00" fill="#000000">+ id : text</text>
</a>
</g>
</g>
<!-- pet_query&#45;&gt;person_query -->
<g id="edge2" class="edge">
<title>pet_query&#45;&gt;person_query</title>
<path fill="none" stroke="#000000" d="M356.9084,-304.7575C348.7462,-293.5685 341.3526,-280.9992 336.983,-268 334.4593,-260.4923 334.6055,-252.8968 336.4885,-245.5246"/>
<ellipse fill="none" stroke="#000000" cx="359.0395" cy="-307.5811" rx="3.2" ry="3.2"/>
<polygon fill="none" stroke="#000000" points="339.249,-246.1029 339.1692,-237.6274 333.9462,-244.3028 339.249,-246.1029"/>
<text text-anchor="middle" x="359.5025" y="-259" font-family="Helvetica,sans-Serif" font-size="10.00" fill="#000000">createdBy</text>
</g>
<!-- pet_query&#45;&gt;person_query -->
<g id="edge3" class="edge">
<title>pet_query&#45;&gt;person_query</title>
<path fill="none" stroke="#000000" d="M393.8328,-303.8145C392.1561,-285.8186 390.2,-264.8234 388.4148,-245.6618"/>
<ellipse fill="none" stroke="#000000" cx="394.1443" cy="-307.159" rx="3.2" ry="3.2"/>
<polygon fill="none" stroke="#000000" points="391.1916,-245.2818 387.6615,-237.5761 385.6158,-245.8013 391.1916,-245.2818"/>
<text text-anchor="middle" x="416.282" y="-259" font-family="Helvetica,sans-Serif" font-size="10.00" fill="#000000">createdBy2</text>
</g>
<!-- ext_acl -->
<g id="node5" class="node">
<title>ext_acl</title>
<g id="a_node5"><a xlink:title="ext_acl">
<polygon fill="#ffffff" stroke="#000000" points="455,-143.5 455,-231.5 552.992,-231.5 552.992,-143.5 455,-143.5"/>
<text text-anchor="middle" x="503.996" y="-218.5" font-family="Helvetica,sans-Serif" font-size="10.00" fill="#000000">ext_acl</text>
<polyline fill="none" stroke="#000000" points="455,-211.5 552.992,-211.5 "/>
<text text-anchor="start" x="463" y="-198.5" font-family="Helvetica,sans-Serif" font-size="10.00" fill="#000000">+ name : text</text>
<text text-anchor="start" x="463" y="-186.5" font-family="Helvetica,sans-Serif" font-size="10.00" fill="#000000">+ age : number</text>
<text text-anchor="start" x="463" y="-174.5" font-family="Helvetica,sans-Serif" font-size="10.00" fill="#000000">+ createdAt : date</text>
<text text-anchor="start" x="463" y="-162.5" font-family="Helvetica,sans-Serif" font-size="10.00" fill="#000000">+ updatedAt : date</text>
<text text-anchor="start" x="463" y="-150.5" font-family="Helvetica,sans-Serif" font-size="10.00" fill="#000000">+ id : text</text>
</a>
</g>
</g>
<!-- ext_acl1 -->
<g id="node6" class="node">
<title>ext_acl1</title>
<g id="a_node6"><a xlink:title="ext_acl1">
<polygon fill="#ffffff" stroke="#000000" points="571,-143.5 571,-231.5 668.992,-231.5 668.992,-143.5 571,-143.5"/>
<text text-anchor="middle" x="619.996" y="-218.5" font-family="Helvetica,sans-Serif" font-size="10.00" fill="#000000">ext_acl1</text>
<polyline fill="none" stroke="#000000" points="571,-211.5 668.992,-211.5 "/>
<text text-anchor="start" x="579" y="-198.5" font-family="Helvetica,sans-Serif" font-size="10.00" fill="#000000">+ name : text</text>
<text text-anchor="start" x="579" y="-186.5" font-family="Helvetica,sans-Serif" font-size="10.00" fill="#000000">+ age : number</text>
<text text-anchor="start" x="579" y="-174.5" font-family="Helvetica,sans-Serif" font-size="10.00" fill="#000000">+ createdAt : date</text>
<text text-anchor="start" x="579" y="-162.5" font-family="Helvetica,sans-Serif" font-size="10.00" fill="#000000">+ updatedAt : date</text>
<text text-anchor="start" x="579" y="-150.5" font-family="Helvetica,sans-Serif" font-size="10.00" fill="#000000">+ id : text</text>
</a>
</g>
</g>
<!-- test_acl -->
<g id="node7" class="node">
<title>test_acl</title>
<g id="a_node7"><a xlink:title="test_acl">
<polygon fill="#ffffff" stroke="#000000" points="465,-298.5 465,-398.5 562.992,-398.5 562.992,-298.5 465,-298.5"/>
<text text-anchor="middle" x="513.996" y="-385.5" font-family="Helvetica,sans-Serif" font-size="10.00" fill="#000000">test_acl</text>
<polyline fill="none" stroke="#000000" points="465,-378.5 562.992,-378.5 "/>
<text text-anchor="start" x="473" y="-365.5" font-family="Helvetica,sans-Serif" font-size="10.00" fill="#000000">+ name : text</text>
<text text-anchor="start" x="473" y="-353.5" font-family="Helvetica,sans-Serif" font-size="10.00" fill="#000000">+ age : number</text>
<text text-anchor="start" x="473" y="-341.5" font-family="Helvetica,sans-Serif" font-size="10.00" fill="#000000">+ sex : text</text>
<text text-anchor="start" x="473" y="-329.5" font-family="Helvetica,sans-Serif" font-size="10.00" fill="#000000">+ createdAt : date</text>
<text text-anchor="start" x="473" y="-317.5" font-family="Helvetica,sans-Serif" font-size="10.00" fill="#000000">+ updatedAt : date</text>
<text text-anchor="start" x="473" y="-305.5" font-family="Helvetica,sans-Serif" font-size="10.00" fill="#000000">+ id : text</text>
</a>
</g>
</g>
<!-- test_acl&#45;&gt;ext_acl -->
<g id="edge4" class="edge">
<title>test_acl&#45;&gt;ext_acl</title>
<path fill="none" stroke="#000000" d="M510.4755,-291.8196C509.4193,-274.8154 508.2664,-256.253 507.2297,-239.5622"/>
<ellipse fill="none" stroke="#000000" cx="510.6883" cy="-295.2473" rx="3.2" ry="3.2"/>
<polygon fill="none" stroke="#000000" points="509.5256,-231.3603 507.2271,-239.5185 503.9364,-231.7075 509.5256,-231.3603"/>
<text text-anchor="middle" x="515.665" y="-259" font-family="Helvetica,sans-Serif" font-size="10.00" fill="#000000">ext</text>
</g>
<!-- test_acl&#45;&gt;ext_acl1 -->
<g id="edge5" class="edge">
<title>test_acl&#45;&gt;ext_acl1</title>
<path fill="none" stroke="#000000" d="M550.6351,-292.85C562.2914,-275.1457 575.1182,-255.6634 586.5376,-238.3188"/>
<ellipse fill="none" stroke="#000000" cx="548.7137" cy="-295.7684" rx="3.2" ry="3.2"/>
<polygon fill="none" stroke="#000000" points="588.9441,-239.7555 591.0048,-231.5339 584.2669,-236.676 588.9441,-239.7555"/>
<text text-anchor="middle" x="583.4445" y="-259" font-family="Helvetica,sans-Serif" font-size="10.00" fill="#000000">ext1</text>
</g>
<!-- city -->
<g id="node8" class="node">
<title>city</title>
<g id="a_node8"><a xlink:title="city">
<polygon fill="#ffffff" stroke="#000000" points="687,-143.5 687,-231.5 784.992,-231.5 784.992,-143.5 687,-143.5"/>
<text text-anchor="middle" x="735.996" y="-218.5" font-family="Helvetica,sans-Serif" font-size="10.00" fill="#000000">city</text>
<polyline fill="none" stroke="#000000" points="687,-211.5 784.992,-211.5 "/>
<text text-anchor="start" x="695" y="-198.5" font-family="Helvetica,sans-Serif" font-size="10.00" fill="#000000">+ code : text</text>
<text text-anchor="start" x="695" y="-186.5" font-family="Helvetica,sans-Serif" font-size="10.00" fill="#000000">+ name : text</text>
<text text-anchor="start" x="695" y="-174.5" font-family="Helvetica,sans-Serif" font-size="10.00" fill="#000000">+ createdAt : date</text>
<text text-anchor="start" x="695" y="-162.5" font-family="Helvetica,sans-Serif" font-size="10.00" fill="#000000">+ updatedAt : date</text>
<text text-anchor="start" x="695" y="-150.5" font-family="Helvetica,sans-Serif" font-size="10.00" fill="#000000">+ id : text</text>
</a>
</g>
</g>
<!-- people -->
<g id="node9" class="node">
<title>people</title>
<g id="a_node9"><a xlink:title="people">
<polygon fill="#ffffff" stroke="#000000" points="687,-298.5 687,-398.5 784.992,-398.5 784.992,-298.5 687,-298.5"/>
<text text-anchor="middle" x="735.996" y="-385.5" font-family="Helvetica,sans-Serif" font-size="10.00" fill="#000000">people</text>
<polyline fill="none" stroke="#000000" points="687,-378.5 784.992,-378.5 "/>
<text text-anchor="start" x="695" y="-365.5" font-family="Helvetica,sans-Serif" font-size="10.00" fill="#000000">+ name : text</text>
<text text-anchor="start" x="695" y="-353.5" font-family="Helvetica,sans-Serif" font-size="10.00" fill="#000000">+ sex : enum</text>
<text text-anchor="start" x="695" y="-341.5" font-family="Helvetica,sans-Serif" font-size="10.00" fill="#000000">+ age : number</text>
<text text-anchor="start" x="695" y="-329.5" font-family="Helvetica,sans-Serif" font-size="10.00" fill="#000000">+ createdAt : date</text>
<text text-anchor="start" x="695" y="-317.5" font-family="Helvetica,sans-Serif" font-size="10.00" fill="#000000">+ updatedAt : date</text>
<text text-anchor="start" x="695" y="-305.5" font-family="Helvetica,sans-Serif" font-size="10.00" fill="#000000">+ id : text</text>
</a>
</g>
</g>
<!-- people&#45;&gt;city -->
<g id="edge14" class="edge">
<title>people&#45;&gt;city</title>
<path fill="none" stroke="#000000" d="M735.996,-291.8196C735.996,-274.8154 735.996,-256.253 735.996,-239.5622"/>
<ellipse fill="none" stroke="#000000" cx="735.996" cy="-295.2411" rx="3.2" ry="3.2"/>
<polygon fill="none" stroke="#000000" points="738.7961,-239.5338 735.996,-231.5339 733.1961,-239.5339 738.7961,-239.5338"/>
<text text-anchor="middle" x="743.495" y="-259" font-family="Helvetica,sans-Serif" font-size="10.00" fill="#000000">city</text>
</g>
<!-- people&#45;&gt;people -->
<g id="edge6" class="edge">
<title>people&#45;&gt;people</title>
<path fill="none" stroke="#000000" d="M791.8534,-349.8894C798.5876,-349.6383 802.992,-349.1752 802.992,-348.5 802.992,-347.88 799.2773,-347.4387 793.4549,-347.1763"/>
<ellipse fill="none" stroke="#000000" cx="788.2725" cy="-349.9797" rx="3.2" ry="3.2"/>
<polygon fill="none" stroke="#000000" points="793.1494,-344.3667 785.0735,-346.9396 792.9912,-349.9644 793.1494,-344.3667"/>
<text text-anchor="middle" x="818.549" y="-345.5" font-family="Helvetica,sans-Serif" font-size="10.00" fill="#000000">mother</text>
</g>
<!-- people&#45;&gt;people -->
<g id="edge7" class="edge">
<title>people&#45;&gt;people</title>
<path fill="none" stroke="#000000" d="M791.6047,-351.7118C814.3562,-351.8582 834.106,-350.7877 834.106,-348.5 834.106,-346.271 815.356,-345.1975 793.3486,-345.2794"/>
<ellipse fill="none" stroke="#000000" cx="788.3217" cy="-351.6746" rx="3.2" ry="3.2"/>
<polygon fill="none" stroke="#000000" points="793.0934,-342.4817 785.1219,-345.3618 793.1496,-348.0814 793.0934,-342.4817"/>
<text text-anchor="middle" x="846.888" y="-345.5" font-family="Helvetica,sans-Serif" font-size="10.00" fill="#000000">father</text>
</g>
<!-- people&#45;&gt;people -->
<g id="edge8" class="edge">
<title>people&#45;&gt;people</title>
<path fill="none" stroke="#000000" d="M791.8345,-353.0806C825.8529,-353.9951 859.67,-352.4683 859.67,-348.5 859.67,-344.5813 826.693,-343.0434 793.11,-343.8863"/>
<ellipse fill="none" stroke="#000000" cx="788.2365" cy="-352.9665" rx="3.2" ry="3.2"/>
<polygon fill="none" stroke="#000000" points="792.948,-341.0899 785.0381,-344.1349 793.1205,-346.6872 792.948,-341.0899"/>
<text text-anchor="middle" x="878.847" y="-345.5" font-family="Helvetica,sans-Serif" font-size="10.00" fill="#000000">husband</text>
</g>
<!-- people&#45;&gt;people -->
<g id="edge9" class="edge">
<title>people&#45;&gt;people</title>
<path fill="none" stroke="#000000" d="M791.7693,-354.0575C840.7548,-356.2521 898.024,-354.3996 898.024,-348.5 898.024,-342.6606 841.9176,-340.7862 793.2714,-342.8766"/>
<ellipse fill="none" stroke="#000000" cx="788.4235" cy="-353.8938" rx="3.2" ry="3.2"/>
<polygon fill="none" stroke="#000000" points="785.0931,-340.4658 793.2181,-342.8791 785.3615,-346.0594 785.0931,-340.4658"/>
<text text-anchor="middle" x="919.701" y="-345.5" font-family="Helvetica,sans-Serif" font-size="10.00" fill="#000000">husbands</text>
</g>
<!-- people&#45;&gt;people -->
<g id="edge10" class="edge">
<title>people&#45;&gt;people</title>
<path fill="none" stroke="#000000" d="M791.6396,-354.7885C855.563,-358.4925 941.378,-356.3963 941.378,-348.5 941.378,-340.6675 856.9443,-338.5418 793.1935,-342.1229"/>
<ellipse fill="none" stroke="#000000" cx="788.3293" cy="-354.5838" rx="3.2" ry="3.2"/>
<polygon fill="none" stroke="#000000" points="792.9504,-339.3324 785.1354,-342.6137 793.2909,-344.922 792.9504,-339.3324"/>
<text text-anchor="middle" x="950.266" y="-345.5" font-family="Helvetica,sans-Serif" font-size="10.00" fill="#000000">wife</text>
</g>
<!-- people&#45;&gt;people -->
<g id="edge11" class="edge">
<title>people&#45;&gt;people</title>
<path fill="none" stroke="#000000" d="M791.8569,-355.6783C862.1339,-360.6193 959.378,-358.2266 959.378,-348.5 959.378,-338.8323 863.3067,-336.4099 793.135,-341.2329"/>
<ellipse fill="none" stroke="#000000" cx="788.3354" cy="-355.4155" rx="3.2" ry="3.2"/>
<polygon fill="none" stroke="#000000" points="784.9381,-339.0304 793.1225,-341.2337 785.3504,-344.6152 784.9381,-339.0304"/>
<text text-anchor="middle" x="972.156" y="-345.5" font-family="Helvetica,sans-Serif" font-size="10.00" fill="#000000">childs</text>
</g>
<!-- people&#45;&gt;people -->
<g id="edge12" class="edge">
<title>people&#45;&gt;people</title>
<path fill="none" stroke="#000000" d="M791.7554,-356.3709C870.426,-362.7887 984.934,-360.165 984.934,-348.5 984.934,-336.9052 871.8015,-334.2433 793.181,-340.5141"/>
<ellipse fill="none" stroke="#000000" cx="788.3971" cy="-356.0823" rx="3.2" ry="3.2"/>
<polygon fill="none" stroke="#000000" points="784.9716,-338.4018 793.1801,-340.5141 785.446,-343.9817 784.9716,-338.4018"/>
<text text-anchor="middle" x="1002.4405" y="-345.5" font-family="Helvetica,sans-Serif" font-size="10.00" fill="#000000">patients</text>
</g>
<!-- people&#45;&gt;people -->
<g id="edge13" class="edge">
<title>people&#45;&gt;people</title>
<path fill="none" stroke="#000000" d="M791.7325,-356.8936C880.9601,-364.9808 1019.947,-362.183 1019.947,-348.5 1019.947,-334.8992 882.6246,-332.0532 793.3456,-339.9618"/>
<ellipse fill="none" stroke="#000000" cx="788.3158" cy="-356.5689" rx="3.2" ry="3.2"/>
<polygon fill="none" stroke="#000000" points="792.833,-337.1976 785.1302,-340.734 793.3571,-342.773 792.833,-337.1976"/>
<text text-anchor="middle" x="1033.8395" y="-345.5" font-family="Helvetica,sans-Serif" font-size="10.00" fill="#000000">doctor</text>
</g>
<!-- people&#45;&gt;people -->
<g id="edge15" class="edge">
<title>people&#45;&gt;people</title>
<path fill="none" stroke="#000000" d="M791.955,-357.451C889.5327,-367.148 1047.732,-364.1643 1047.732,-348.5 1047.732,-332.9139 891.1092,-329.8822 793.4217,-339.4046"/>
<ellipse fill="none" stroke="#000000" cx="788.5104" cy="-357.0932" rx="3.2" ry="3.2"/>
<polygon fill="none" stroke="#000000" points="785.0409,-337.4522 793.2856,-339.4186 785.6142,-343.0228 785.0409,-337.4522"/>
<text text-anchor="middle" x="1072.178" y="-345.5" font-family="Helvetica,sans-Serif" font-size="10.00" fill="#000000">my_friends</text>
</g>
<!-- people&#45;&gt;people -->
<g id="edge16" class="edge">
<title>people&#45;&gt;people</title>
<path fill="none" stroke="#000000" d="M791.6276,-357.7167C902.0585,-369.3585 1096.624,-366.2863 1096.624,-348.5 1096.624,-330.8023 903.9916,-327.6724 793.2837,-339.1105"/>
<ellipse fill="none" stroke="#000000" cx="788.3114" cy="-357.3527" rx="3.2" ry="3.2"/>
<polygon fill="none" stroke="#000000" points="784.828,-337.213 793.0837,-339.1321 785.4331,-342.7802 784.828,-337.213"/>
<text text-anchor="middle" x="1111.626" y="-345.5" font-family="Helvetica,sans-Serif" font-size="10.00" fill="#000000">friends</text>
</g>
<!-- level -->
<g id="node10" class="node">
<title>level</title>
<g id="a_node10"><a xlink:title="level">
<polygon fill="#ffffff" stroke="#000000" points="1302,-304.5 1302,-392.5 1399.992,-392.5 1399.992,-304.5 1302,-304.5"/>
<text text-anchor="middle" x="1350.996" y="-379.5" font-family="Helvetica,sans-Serif" font-size="10.00" fill="#000000">level</text>
<polyline fill="none" stroke="#000000" points="1302,-372.5 1399.992,-372.5 "/>
<text text-anchor="start" x="1310" y="-359.5" font-family="Helvetica,sans-Serif" font-size="10.00" fill="#000000">+ name : text</text>
<text text-anchor="start" x="1310" y="-347.5" font-family="Helvetica,sans-Serif" font-size="10.00" fill="#000000">+ level_f : text</text>
<text text-anchor="start" x="1310" y="-335.5" font-family="Helvetica,sans-Serif" font-size="10.00" fill="#000000">+ createdAt : date</text>
<text text-anchor="start" x="1310" y="-323.5" font-family="Helvetica,sans-Serif" font-size="10.00" fill="#000000">+ updatedAt : date</text>
<text text-anchor="start" x="1310" y="-311.5" font-family="Helvetica,sans-Serif" font-size="10.00" fill="#000000">+ id : text</text>
</a>
</g>
</g>
<!-- level&#45;&gt;level -->
<g id="edge17" class="edge">
<title>level&#45;&gt;level</title>
<path fill="none" stroke="#000000" d="M1406.4382,-355.5226C1413.406,-354.2856 1417.992,-351.9447 1417.992,-348.5 1417.992,-345.3309 1414.1104,-343.0961 1408.0636,-341.7955"/>
<ellipse fill="none" stroke="#000000" cx="1403.2498" cy="-355.9131" rx="3.2" ry="3.2"/>
<polygon fill="none" stroke="#000000" points="1408.3802,-339.0127 1400.0735,-340.6978 1407.618,-344.5606 1408.3802,-339.0127"/>
<text text-anchor="middle" x="1432.999" y="-345.5" font-family="Helvetica,sans-Serif" font-size="10.00" fill="#000000">one_l2</text>
</g>
<!-- level&#45;&gt;level -->
<g id="edge18" class="edge">
<title>level&#45;&gt;level</title>
<path fill="none" stroke="#000000" d="M1406.8445,-364.5808C1428.9911,-365.1732 1448.006,-359.813 1448.006,-348.5 1448.006,-337.4298 1429.7985,-332.0596 1408.2658,-332.3893"/>
<ellipse fill="none" stroke="#000000" cx="1403.4054" cy="-364.3997" rx="3.2" ry="3.2"/>
<polygon fill="none" stroke="#000000" points="1408.0692,-329.5954 1400.2098,-332.7687 1408.3327,-335.1892 1408.0692,-329.5954"/>
<text text-anchor="middle" x="1463.013" y="-345.5" font-family="Helvetica,sans-Serif" font-size="10.00" fill="#000000">one_l3</text>
</g>
<!-- sub_level -->
<g id="node11" class="node">
<title>sub_level</title>
<g id="a_node11"><a xlink:title="sub_level">
<polygon fill="#ffffff" stroke="#000000" points="1207,-143.5 1207,-231.5 1304.992,-231.5 1304.992,-143.5 1207,-143.5"/>
<text text-anchor="middle" x="1255.996" y="-218.5" font-family="Helvetica,sans-Serif" font-size="10.00" fill="#000000">sub_level</text>
<polyline fill="none" stroke="#000000" points="1207,-211.5 1304.992,-211.5 "/>
<text text-anchor="start" x="1215" y="-198.5" font-family="Helvetica,sans-Serif" font-size="10.00" fill="#000000">+ name : text</text>
<text text-anchor="start" x="1215" y="-186.5" font-family="Helvetica,sans-Serif" font-size="10.00" fill="#000000">+ sublevel_f : text</text>
<text text-anchor="start" x="1215" y="-174.5" font-family="Helvetica,sans-Serif" font-size="10.00" fill="#000000">+ createdAt : date</text>
<text text-anchor="start" x="1215" y="-162.5" font-family="Helvetica,sans-Serif" font-size="10.00" fill="#000000">+ updatedAt : date</text>
<text text-anchor="start" x="1215" y="-150.5" font-family="Helvetica,sans-Serif" font-size="10.00" fill="#000000">+ id : text</text>
</a>
</g>
</g>
<!-- level&#45;&gt;sub_level -->
<g id="edge19" class="edge">
<title>level&#45;&gt;sub_level</title>
<path fill="none" stroke="#000000" d="M1309.6541,-299.7336C1304.3326,-294.7649 1298.7305,-290.061 1292.996,-286 1276.6038,-274.3916 1262.5585,-284.7951 1251.541,-268 1246.1428,-259.7709 1244.0459,-249.9895 1243.8442,-240.1293"/>
<ellipse fill="none" stroke="#000000" cx="1312.1533" cy="-302.1405" rx="3.2" ry="3.2"/>
<polygon fill="none" stroke="#000000" points="1246.651,-239.9401 1244.0897,-231.8605 1241.0535,-239.7739 1246.651,-239.9401"/>
<text text-anchor="middle" x="1266.7235" y="-259" font-family="Helvetica,sans-Serif" font-size="10.00" fill="#000000">one_sl</text>
</g>
<!-- level&#45;&gt;sub_level -->
<g id="edge20" class="edge">
<title>level&#45;&gt;sub_level</title>
<path fill="none" stroke="#000000" d="M1321.4611,-298.4461C1310.2498,-279.4459 1297.4725,-257.7917 1286.2003,-238.6883"/>
<ellipse fill="none" stroke="#000000" cx="1323.1591" cy="-301.3239" rx="3.2" ry="3.2"/>
<polygon fill="none" stroke="#000000" points="1284.5326,-230.3522 1286.1867,-238.6652 1279.7096,-233.1981 1284.5326,-230.3522"/>
<text text-anchor="middle" x="1339.836" y="-259" font-family="Helvetica,sans-Serif" font-size="10.00" fill="#000000">many_sublevels</text>
</g>
<!-- level_lproperty -->
<g id="node13" class="node">
<title>level_lproperty</title>
<g id="a_node13"><a xlink:title="level_lproperty">
<polygon fill="#ffffff" stroke="#000000" points="1408,-137.5 1408,-237.5 1505.992,-237.5 1505.992,-137.5 1408,-137.5"/>
<text text-anchor="middle" x="1456.996" y="-224.5" font-family="Helvetica,sans-Serif" font-size="10.00" fill="#000000">level_lproperty</text>
<polyline fill="none" stroke="#000000" points="1408,-217.5 1505.992,-217.5 "/>
<text text-anchor="start" x="1416" y="-204.5" font-family="Helvetica,sans-Serif" font-size="10.00" fill="#000000">+ name : text</text>
<text text-anchor="start" x="1416" y="-192.5" font-family="Helvetica,sans-Serif" font-size="10.00" fill="#000000">+ weight : integer</text>
<text text-anchor="start" x="1416" y="-180.5" font-family="Helvetica,sans-Serif" font-size="10.00" fill="#000000">+ level_id : text</text>
<text text-anchor="start" x="1416" y="-168.5" font-family="Helvetica,sans-Serif" font-size="10.00" fill="#000000">+ createdAt : date</text>
<text text-anchor="start" x="1416" y="-156.5" font-family="Helvetica,sans-Serif" font-size="10.00" fill="#000000">+ updatedAt : date</text>
<text text-anchor="start" x="1416" y="-144.5" font-family="Helvetica,sans-Serif" font-size="10.00" fill="#000000">+ id : text</text>
</a>
</g>
</g>
<!-- level&#45;&gt;level_lproperty -->
<g id="edge21" class="edge">
<title>level&#45;&gt;level_lproperty</title>
<path fill="none" stroke="#000000" d="M1374.6218,-298.1297C1381.8729,-284.124 1390.2839,-269.1553 1399.104,-256 1401.4601,-252.4859 1403.9682,-248.9461 1406.5695,-245.4256"/>
<ellipse fill="none" stroke="#000000" cx="1373.0441" cy="-301.2158" rx="3.2" ry="3.2"/>
<polygon fill="#000000" stroke="#000000" points="1406.5814,-245.4099 1406.9383,-239.6521 1412.3905,-237.7669 1412.0336,-243.5248 1406.5814,-245.4099"/>
<text text-anchor="middle" x="1418.442" y="-259" font-family="Helvetica,sans-Serif" font-size="10.00" fill="#000000">lproperty</text>
</g>
<!-- sub_level&#45;&gt;sub_level -->
<g id="edge22" class="edge">
<title>sub_level&#45;&gt;sub_level</title>
<path fill="none" stroke="#000000" d="M1311.4382,-199.5855C1318.406,-197.4565 1322.992,-193.428 1322.992,-187.5 1322.992,-182.0462 1319.1104,-178.2002 1313.0636,-175.9619"/>
<ellipse fill="none" stroke="#000000" cx="1308.2047" cy="-200.267" rx="3.2" ry="3.2"/>
<polygon fill="none" stroke="#000000" points="1313.5031,-173.1887 1305.0735,-174.073 1312.2147,-178.6385 1313.5031,-173.1887"/>
<text text-anchor="middle" x="1355.2265" y="-184.5" font-family="Helvetica,sans-Serif" font-size="10.00" fill="#000000">subl_one_subl</text>
</g>
<!-- descendant_level -->
<g id="node12" class="node">
<title>descendant_level</title>
<g id="a_node12"><a xlink:title="descendant_level">
<polygon fill="#ffffff" stroke="#000000" points="1188.3875,-.5 1188.3875,-88.5 1323.6045,-88.5 1323.6045,-.5 1188.3875,-.5"/>
<text text-anchor="middle" x="1255.996" y="-75.5" font-family="Helvetica,sans-Serif" font-size="10.00" fill="#000000">descendant_level</text>
<polyline fill="none" stroke="#000000" points="1188.3875,-68.5 1323.6045,-68.5 "/>
<text text-anchor="start" x="1196.3875" y="-55.5" font-family="Helvetica,sans-Serif" font-size="10.00" fill="#000000">+ name : text</text>
<text text-anchor="start" x="1196.3875" y="-43.5" font-family="Helvetica,sans-Serif" font-size="10.00" fill="#000000">+ descendant_level_f : text</text>
<text text-anchor="start" x="1196.3875" y="-31.5" font-family="Helvetica,sans-Serif" font-size="10.00" fill="#000000">+ createdAt : date</text>
<text text-anchor="start" x="1196.3875" y="-19.5" font-family="Helvetica,sans-Serif" font-size="10.00" fill="#000000">+ updatedAt : date</text>
<text text-anchor="start" x="1196.3875" y="-7.5" font-family="Helvetica,sans-Serif" font-size="10.00" fill="#000000">+ id : text</text>
</a>
</g>
</g>
<!-- sub_level&#45;&gt;descendant_level -->
<g id="edge23" class="edge">
<title>sub_level&#45;&gt;descendant_level</title>
<path fill="none" stroke="#000000" d="M1255.996,-136.7946C1255.996,-123.7833 1255.996,-109.7657 1255.996,-96.6812"/>
<ellipse fill="none" stroke="#000000" cx="1255.996" cy="-140.2285" rx="3.2" ry="3.2"/>
<polygon fill="none" stroke="#000000" points="1258.7961,-96.6722 1255.996,-88.6722 1253.1961,-96.6722 1258.7961,-96.6722"/>
<text text-anchor="middle" x="1317.9655" y="-110" font-family="Helvetica,sans-Serif" font-size="10.00" fill="#000000">subl_one_descendant_level</text>
</g>
<!-- level_lproperty&#45;&gt;level -->
<g id="edge24" class="edge">
<title>level_lproperty&#45;&gt;level</title>
<path fill="none" stroke="#000000" d="M1448.137,-244.155C1445.5708,-252.4692 1442.262,-260.6854 1437.996,-268 1429.7104,-282.2068 1418.1188,-295.389 1406.0929,-306.8016"/>
<ellipse fill="none" stroke="#000000" cx="1449.0778" cy="-240.8678" rx="3.2" ry="3.2"/>
<polygon fill="none" stroke="#000000" points="1404.155,-304.7798 1400.167,-312.2588 1407.9486,-308.8992 1404.155,-304.7798"/>
<text text-anchor="middle" x="1453.274" y="-259" font-family="Helvetica,sans-Serif" font-size="10.00" fill="#000000">level</text>
</g>
<!-- pet -->
<g id="node14" class="node">
<title>pet</title>
<g id="a_node14"><a xlink:title="pet">
<polygon fill="#ffffff" stroke="#000000" points="208,-310.5 208,-386.5 305.992,-386.5 305.992,-310.5 208,-310.5"/>
<text text-anchor="middle" x="256.996" y="-373.5" font-family="Helvetica,sans-Serif" font-size="10.00" fill="#000000">pet</text>
<polyline fill="none" stroke="#000000" points="208,-366.5 305.992,-366.5 "/>
<text text-anchor="start" x="216" y="-353.5" font-family="Helvetica,sans-Serif" font-size="10.00" fill="#000000">+ name : text</text>
<text text-anchor="start" x="216" y="-341.5" font-family="Helvetica,sans-Serif" font-size="10.00" fill="#000000">+ createdAt : date</text>
<text text-anchor="start" x="216" y="-329.5" font-family="Helvetica,sans-Serif" font-size="10.00" fill="#000000">+ updatedAt : date</text>
<text text-anchor="start" x="216" y="-317.5" font-family="Helvetica,sans-Serif" font-size="10.00" fill="#000000">+ id : text</text>
</a>
</g>
</g>
<!-- pet&#45;&gt;person -->
<g id="edge25" class="edge">
<title>pet&#45;&gt;person</title>
<path fill="none" stroke="#000000" d="M256.996,-303.8145C256.996,-285.8186 256.996,-264.8234 256.996,-245.6618"/>
<ellipse fill="none" stroke="#000000" cx="256.996" cy="-307.1452" rx="3.2" ry="3.2"/>
<polygon fill="none" stroke="#000000" points="259.7961,-245.576 256.996,-237.5761 254.1961,-245.5761 259.7961,-245.576"/>
<text text-anchor="middle" x="279.5025" y="-259" font-family="Helvetica,sans-Serif" font-size="10.00" fill="#000000">createdBy</text>
</g>
<!-- chatroom&#45;&gt;user -->
<g id="edge27" class="edge">
<title>chatroom&#45;&gt;user</title>
<path fill="none" stroke="#000000" d="M60.1382,-232.1273C62.1035,-240.075 64.1199,-248.2793 65.996,-256 67.7421,-263.1855 69.5507,-270.6887 71.3466,-278.1783"/>
<ellipse fill="none" stroke="#000000" cx="59.273" cy="-228.6341" rx="3.2" ry="3.2"/>
<polygon fill="none" stroke="#000000" points="70.5636,-286.9362 71.4245,-278.5041 76.0098,-285.6326 70.5636,-286.9362"/>
<text text-anchor="middle" x="89.828" y="-259" font-family="Helvetica,sans-Serif" font-size="10.00" fill="#000000">mambers</text>
</g>
<!-- chatmessage -->
<g id="node16" class="node">
<title>chatmessage</title>
<g id="a_node16"><a xlink:title="chatmessage">
<polygon fill="#ffffff" stroke="#000000" points="58,-6.5 58,-82.5 155.992,-82.5 155.992,-6.5 58,-6.5"/>
<text text-anchor="middle" x="106.996" y="-69.5" font-family="Helvetica,sans-Serif" font-size="10.00" fill="#000000">chatmessage</text>
<polyline fill="none" stroke="#000000" points="58,-62.5 155.992,-62.5 "/>
<text text-anchor="start" x="66" y="-49.5" font-family="Helvetica,sans-Serif" font-size="10.00" fill="#000000">+ msg : text</text>
<text text-anchor="start" x="66" y="-37.5" font-family="Helvetica,sans-Serif" font-size="10.00" fill="#000000">+ createdAt : date</text>
<text text-anchor="start" x="66" y="-25.5" font-family="Helvetica,sans-Serif" font-size="10.00" fill="#000000">+ updatedAt : date</text>
<text text-anchor="start" x="66" y="-13.5" font-family="Helvetica,sans-Serif" font-size="10.00" fill="#000000">+ id : text</text>
</a>
</g>
</g>
<!-- chatroom&#45;&gt;chatmessage -->
<g id="edge26" class="edge">
<title>chatroom&#45;&gt;chatmessage</title>
<path fill="none" stroke="#000000" d="M35.5329,-142.8481C34.0702,-130.8322 34.5789,-118.0981 39.431,-107 42.6475,-99.6429 47.2046,-92.766 52.4519,-86.4641"/>
<ellipse fill="none" stroke="#000000" cx="36.0527" cy="-146.2709" rx="3.2" ry="3.2"/>
<polygon fill="none" stroke="#000000" points="59.9937,-82.2226 52.5766,-86.3246 55.8168,-78.4925 59.9937,-82.2226"/>
<text text-anchor="middle" x="62.7785" y="-110" font-family="Helvetica,sans-Serif" font-size="10.00" fill="#000000">messages</text>
</g>
<!-- chatmessage&#45;&gt;user -->
<g id="edge28" class="edge">
<title>chatmessage&#45;&gt;user</title>
<path fill="none" stroke="#000000" d="M115.0228,-89.1632C115.8387,-95.1423 116.5356,-101.208 116.996,-107 122.6668,-178.336 126.9983,-197.4526 114.996,-268 114.4258,-271.3515 113.7392,-274.7524 112.9619,-278.1667"/>
<ellipse fill="none" stroke="#000000" cx="114.5522" cy="-85.8934" rx="3.2" ry="3.2"/>
<polygon fill="none" stroke="#000000" points="110.1924,-277.7028 110.9953,-286.1406 115.6295,-279.0438 110.1924,-277.7028"/>
<text text-anchor="middle" x="145.5025" y="-184.5" font-family="Helvetica,sans-Serif" font-size="10.00" fill="#000000">createdBy</text>
</g>
<!-- chatmessage&#45;&gt;chatroom -->
<g id="edge29" class="edge">
<title>chatmessage&#45;&gt;chatroom</title>
<path fill="none" stroke="#000000" d="M95.4988,-88.7154C92.4484,-98.7997 88.9016,-109.3758 84.996,-119 81.927,-126.5626 78.2873,-134.3934 74.5206,-141.9392"/>
<ellipse fill="none" stroke="#000000" cx="96.4254" cy="-85.5816" rx="3.2" ry="3.2"/>
<polygon fill="none" stroke="#000000" points="71.8711,-140.9711 70.7279,-149.3695 76.8589,-143.517 71.8711,-140.9711"/>
<text text-anchor="middle" x="101.384" y="-110" font-family="Helvetica,sans-Serif" font-size="10.00" fill="#000000">room</text>
</g>
<!-- test_fields_type -->
<g id="node17" class="node">
<title>test_fields_type</title>
<g id="a_node17"><a xlink:title="test_fields_type">
<polygon fill="#ffffff" stroke="#000000" points="1514,-286.5 1514,-410.5 1611.992,-410.5 1611.992,-286.5 1514,-286.5"/>
<text text-anchor="middle" x="1562.996" y="-397.5" font-family="Helvetica,sans-Serif" font-size="10.00" fill="#000000">test_fields_type</text>
<polyline fill="none" stroke="#000000" points="1514,-390.5 1611.992,-390.5 "/>
<text text-anchor="start" x="1522" y="-377.5" font-family="Helvetica,sans-Serif" font-size="10.00" fill="#000000">+ name1 : text</text>
<text text-anchor="start" x="1522" y="-365.5" font-family="Helvetica,sans-Serif" font-size="10.00" fill="#000000">+ name2 : text</text>
<text text-anchor="start" x="1522" y="-353.5" font-family="Helvetica,sans-Serif" font-size="10.00" fill="#000000">+ profile : object</text>
<text text-anchor="start" x="1522" y="-341.5" font-family="Helvetica,sans-Serif" font-size="10.00" fill="#000000">+ binary1 : binary</text>
<text text-anchor="start" x="1522" y="-329.5" font-family="Helvetica,sans-Serif" font-size="10.00" fill="#000000">+ binary2 : binary</text>
<text text-anchor="start" x="1522" y="-317.5" font-family="Helvetica,sans-Serif" font-size="10.00" fill="#000000">+ createdAt : date</text>
<text text-anchor="start" x="1522" y="-305.5" font-family="Helvetica,sans-Serif" font-size="10.00" fill="#000000">+ updatedAt : date</text>
<text text-anchor="start" x="1522" y="-293.5" font-family="Helvetica,sans-Serif" font-size="10.00" fill="#000000">+ id : text</text>
</a>
</g>
</g>
<!-- json -->
<g id="node18" class="node">
<title>json</title>
<g id="a_node18"><a xlink:title="json">
<polygon fill="#ffffff" stroke="#000000" points="1630,-304.5 1630,-392.5 1727.992,-392.5 1727.992,-304.5 1630,-304.5"/>
<text text-anchor="middle" x="1678.996" y="-379.5" font-family="Helvetica,sans-Serif" font-size="10.00" fill="#000000">json</text>
<polyline fill="none" stroke="#000000" points="1630,-372.5 1727.992,-372.5 "/>
<text text-anchor="start" x="1638" y="-359.5" font-family="Helvetica,sans-Serif" font-size="10.00" fill="#000000">+ name : text</text>
<text text-anchor="start" x="1638" y="-347.5" font-family="Helvetica,sans-Serif" font-size="10.00" fill="#000000">+ profile : object</text>
<text text-anchor="start" x="1638" y="-335.5" font-family="Helvetica,sans-Serif" font-size="10.00" fill="#000000">+ createdAt : date</text>
<text text-anchor="start" x="1638" y="-323.5" font-family="Helvetica,sans-Serif" font-size="10.00" fill="#000000">+ updatedAt : date</text>
<text text-anchor="start" x="1638" y="-311.5" font-family="Helvetica,sans-Serif" font-size="10.00" fill="#000000">+ id : text</text>
</a>
</g>
</g>
<!-- nographql -->
<g id="node19" class="node">
<title>nographql</title>
<g id="a_node19"><a xlink:title="nographql">
<polygon fill="#d3d3d3" stroke="#000000" points="1746,-304.5 1746,-392.5 1843.992,-392.5 1843.992,-304.5 1746,-304.5"/>
<text text-anchor="middle" x="1794.996" y="-379.5" font-family="Helvetica,sans-Serif" font-size="10.00" fill="#000000">nographql</text>
<polyline fill="none" stroke="#000000" points="1746,-372.5 1843.992,-372.5 "/>
<text text-anchor="start" x="1754" y="-359.5" font-family="Helvetica,sans-Serif" font-size="10.00" fill="#000000">+ foo : text</text>
<text text-anchor="start" x="1754" y="-347.5" font-family="Helvetica,sans-Serif" font-size="10.00" fill="#000000">+ bin : binary</text>
<text text-anchor="start" x="1754" y="-335.5" font-family="Helvetica,sans-Serif" font-size="10.00" fill="#000000">+ createdAt : date</text>
<text text-anchor="start" x="1754" y="-323.5" font-family="Helvetica,sans-Serif" font-size="10.00" fill="#000000">+ updatedAt : date</text>
<text text-anchor="start" x="1754" y="-311.5" font-family="Helvetica,sans-Serif" font-size="10.00" fill="#000000">+ id : text</text>
</a>
</g>
</g>
<!-- hook_test -->
<g id="node20" class="node">
<title>hook_test</title>
<g id="a_node20"><a xlink:title="hook_test">
<polygon fill="#ffffff" stroke="#000000" points="1862,-310.5 1862,-386.5 1959.992,-386.5 1959.992,-310.5 1862,-310.5"/>
<text text-anchor="middle" x="1910.996" y="-373.5" font-family="Helvetica,sans-Serif" font-size="10.00" fill="#000000">hook_test</text>
<polyline fill="none" stroke="#000000" points="1862,-366.5 1959.992,-366.5 "/>
<text text-anchor="start" x="1870" y="-353.5" font-family="Helvetica,sans-Serif" font-size="10.00" fill="#000000">+ name : text</text>
<text text-anchor="start" x="1870" y="-341.5" font-family="Helvetica,sans-Serif" font-size="10.00" fill="#000000">+ createdAt : date</text>
<text text-anchor="start" x="1870" y="-329.5" font-family="Helvetica,sans-Serif" font-size="10.00" fill="#000000">+ updatedAt : date</text>
<text text-anchor="start" x="1870" y="-317.5" font-family="Helvetica,sans-Serif" font-size="10.00" fill="#000000">+ id : text</text>
</a>
</g>
</g>
</g>
</svg>
