<?xml version="1.0" encoding="UTF-8" standalone="no"?>
<!DOCTYPE svg PUBLIC "-//W3C//DTD SVG 1.1//EN"
 "http://www.w3.org/Graphics/SVG/1.1/DTD/svg11.dtd">
<!-- Generated by graphviz version 2.40.1 (20161225.0304)
 -->
<!-- Title: %3 Pages: 1 -->
<svg width="374pt" height="491pt"
 viewBox="0.00 0.00 373.66 490.75" xmlns="http://www.w3.org/2000/svg" xmlns:xlink="http://www.w3.org/1999/xlink">
<g id="graph0" class="graph" transform="scale(1 1) rotate(0) translate(4 486.7479)">
<title>%3</title>
<polygon fill="#ffffff" stroke="transparent" points="-4,4 -4,-486.7479 369.6608,-486.7479 369.6608,4 -4,4"/>
<!-- empty -->
<g id="node1" class="node">
<title>empty</title>
<ellipse fill="#666666" stroke="#000000" cx="111" cy="-464.7479" rx="27" ry="18"/>
<text text-anchor="middle" x="111" y="-463.7479" font-family="Helvetica,sans-Serif" font-size="10.00" fill="#ffffff">闲置</text>
</g>
<!-- standby -->
<g id="node2" class="node">
<title>standby</title>
<ellipse fill="#99ff99" stroke="#000000" cx="27" cy="-378.7478" rx="27" ry="18"/>
<text text-anchor="middle" x="27" y="-377.7479" font-family="Helvetica,sans-Serif" font-size="10.00" fill="#000000">待机</text>
</g>
<!-- empty&#45;&gt;standby -->
<g id="edge1" class="edge">
<title>empty&#45;&gt;standby</title>
<path fill="none" stroke="#000000" d="M95.9825,-449.3728C82.9624,-436.0427 63.9429,-416.5704 49.1709,-401.4466"/>
<polygon fill="#000000" stroke="#000000" points="51.3788,-398.698 41.8875,-393.9898 46.3711,-403.5892 51.3788,-398.698"/>
<text text-anchor="middle" x="85" y="-420.7479" font-family="Helvetica,sans-Serif" font-size="10.00" fill="#000000">连接</text>
</g>
<!-- standby&#45;&gt;standby -->
<g id="edge2" class="edge">
<title>standby&#45;&gt;standby</title>
<path fill="none" stroke="#000000" d="M51.5325,-386.4998C62.5078,-387.2381 72,-384.6541 72,-378.7478 72,-374.7796 67.7151,-372.311 61.5743,-371.3422"/>
<polygon fill="#000000" stroke="#000000" points="61.6472,-367.8428 51.5325,-370.9959 61.4059,-374.8386 61.6472,-367.8428"/>
<text text-anchor="middle" x="82" y="-377.7479" font-family="Helvetica,sans-Serif" font-size="10.00" fill="#000000">连接</text>
</g>
<!-- idle -->
<g id="node3" class="node">
<title>idle</title>
<ellipse fill="#bbbbbb" stroke="#000000" cx="90" cy="-292.7478" rx="27" ry="18"/>
<text text-anchor="middle" x="90" y="-291.7478" font-family="Helvetica,sans-Serif" font-size="10.00" fill="#000000">休眠</text>
</g>
<!-- standby&#45;&gt;idle -->
<g id="edge3" class="edge">
<title>standby&#45;&gt;idle</title>
<path fill="none" stroke="#000000" d="M23.2161,-360.4539C22.1183,-350.4333 22.4473,-338.1736 28,-328.7478 34.367,-317.9397 45.3298,-310.0621 56.2831,-304.4826"/>
<polygon fill="#000000" stroke="#000000" points="57.7417,-307.6643 65.3805,-300.3226 54.8307,-301.2983 57.7417,-307.6643"/>
<text text-anchor="middle" x="48" y="-334.7478" font-family="Helvetica,sans-Serif" font-size="10.00" fill="#000000">连接为零</text>
</g>
<!-- idle&#45;&gt;empty -->
<g id="edge5" class="edge">
<title>idle&#45;&gt;empty</title>
<path fill="none" stroke="#000000" d="M95.664,-310.5388C97.3018,-316.296 98.9334,-322.7444 100,-328.7478 106.5479,-365.6036 109.2034,-408.7794 110.2769,-436.4294"/>
<polygon fill="#000000" stroke="#000000" points="106.7839,-436.6951 110.6262,-446.5687 113.7797,-436.4541 106.7839,-436.6951"/>
<text text-anchor="middle" x="119" y="-377.7479" font-family="Helvetica,sans-Serif" font-size="10.00" fill="#000000">超时</text>
</g>
<!-- idle&#45;&gt;standby -->
<g id="edge4" class="edge">
<title>idle&#45;&gt;standby</title>
<path fill="none" stroke="#000000" d="M84.3812,-310.404C80.675,-320.4561 75.175,-332.9561 68,-342.7478 63.7869,-348.4976 58.508,-353.9776 53.154,-358.8497"/>
<polygon fill="#000000" stroke="#000000" points="50.691,-356.3509 45.3714,-365.5136 55.2438,-361.6681 50.691,-356.3509"/>
<text text-anchor="middle" x="86" y="-334.7478" font-family="Helvetica,sans-Serif" font-size="10.00" fill="#000000">连接</text>
</g>
<!-- accept -->
<g id="node4" class="node">
<title>accept</title>
<ellipse fill="none" stroke="#000000" cx="266" cy="-464.7479" rx="35.2482" ry="18"/>
<text text-anchor="middle" x="266" y="-463.7479" font-family="Helvetica,sans-Serif" font-size="10.00" fill="#000000">接收注册</text>
</g>
<!-- is_in_window -->
<g id="node8" class="node">
<title>is_in_window</title>
<polygon fill="none" stroke="#000000" points="266,-396.7478 166.1782,-378.7478 266,-360.7478 365.8218,-378.7478 266,-396.7478"/>
<text text-anchor="middle" x="266" y="-377.7479" font-family="Helvetica,sans-Serif" font-size="10.00" fill="#000000">上行时间戳在窗口内?</text>
</g>
<!-- accept&#45;&gt;is_in_window -->
<g id="edge6" class="edge">
<title>accept&#45;&gt;is_in_window</title>
<path fill="none" stroke="#000000" d="M266,-446.5095C266,-435.1075 266,-420.182 266,-407.2418"/>
<polygon fill="#000000" stroke="#000000" points="269.5001,-406.9599 266,-396.9599 262.5001,-406.96 269.5001,-406.9599"/>
</g>
<!-- connected -->
<g id="node5" class="node">
<title>connected</title>
<ellipse fill="none" stroke="#000000" cx="249" cy="-39.3739" rx="35.261" ry="35.261"/>
<ellipse fill="none" stroke="#000000" cx="249" cy="-39.3739" rx="39.2482" ry="39.2482"/>
<text text-anchor="middle" x="249" y="-38.3739" font-family="Helvetica,sans-Serif" font-size="10.00" fill="#000000">保持连接</text>
</g>
<!-- send_time -->
<g id="node6" class="node">
<title>send_time</title>
<polygon fill="none" stroke="#000000" points="254,-310.7478 178,-310.7478 178,-274.7478 254,-274.7478 254,-310.7478"/>
<text text-anchor="middle" x="216" y="-291.7478" font-family="Helvetica,sans-Serif" font-size="10.00" fill="#000000">发送窗口时间</text>
</g>
<!-- has_message -->
<g id="node9" class="node">
<title>has_message</title>
<polygon fill="none" stroke="#000000" points="253,-237.7478 198.011,-219.7478 253,-201.7478 307.989,-219.7478 253,-237.7478"/>
<text text-anchor="middle" x="253" y="-218.7478" font-family="Helvetica,sans-Serif" font-size="10.00" fill="#000000">有效消息?</text>
</g>
<!-- send_time&#45;&gt;has_message -->
<g id="edge9" class="edge">
<title>send_time&#45;&gt;has_message</title>
<path fill="none" stroke="#000000" d="M225.1461,-274.7029C229.7517,-265.616 235.407,-254.4583 240.4157,-244.5762"/>
<polygon fill="#000000" stroke="#000000" points="243.5653,-246.1038 244.9644,-235.6018 237.3215,-242.9391 243.5653,-246.1038"/>
</g>
<!-- send_message -->
<g id="node7" class="node">
<title>send_message</title>
<polygon fill="none" stroke="#000000" points="321,-151.7478 265,-151.7478 265,-115.7478 321,-115.7478 321,-151.7478"/>
<text text-anchor="middle" x="293" y="-132.7478" font-family="Helvetica,sans-Serif" font-size="10.00" fill="#000000">发送消息</text>
</g>
<!-- send_message&#45;&gt;connected -->
<g id="edge11" class="edge">
<title>send_message&#45;&gt;connected</title>
<path fill="none" stroke="#000000" d="M284.5164,-115.5515C280.3413,-106.5966 275.1058,-95.3673 269.9477,-84.3038"/>
<polygon fill="#000000" stroke="#000000" points="273.0559,-82.6874 265.658,-75.1031 266.7115,-85.6454 273.0559,-82.6874"/>
</g>
<!-- is_in_window&#45;&gt;send_time -->
<g id="edge7" class="edge">
<title>is_in_window&#45;&gt;send_time</title>
<path fill="none" stroke="#000000" d="M256.3595,-362.1662C249.3293,-350.0743 239.6535,-333.4319 231.5382,-319.4734"/>
<polygon fill="#000000" stroke="#000000" points="234.5261,-317.649 226.474,-310.7631 228.4745,-321.1674 234.5261,-317.649"/>
<text text-anchor="middle" x="248" y="-334.7478" font-family="Helvetica,sans-Serif" font-size="10.00" fill="#000000">否</text>
</g>
<!-- is_in_window&#45;&gt;has_message -->
<g id="edge8" class="edge">
<title>is_in_window&#45;&gt;has_message</title>
<path fill="none" stroke="#000000" d="M266.3036,-360.6563C266.4613,-339.8655 266.1419,-304.7491 263,-274.7478 262.0514,-265.6897 260.4545,-255.8817 258.812,-247.0909"/>
<polygon fill="#000000" stroke="#000000" points="262.1898,-246.1283 256.8265,-236.9912 255.3213,-247.4786 262.1898,-246.1283"/>
<text text-anchor="middle" x="270" y="-291.7478" font-family="Helvetica,sans-Serif" font-size="10.00" fill="#000000">是</text>
</g>
<!-- has_message&#45;&gt;connected -->
<g id="edge12" class="edge">
<title>has_message&#45;&gt;connected</title>
<path fill="none" stroke="#000000" d="M250.7255,-202.4572C249.0402,-188.7362 246.8883,-169.0522 246,-151.7478 244.9483,-131.2613 245.266,-108.6538 246.0058,-89.1205"/>
<polygon fill="#000000" stroke="#000000" points="249.5116,-89.0567 246.4401,-78.9169 242.518,-88.7589 249.5116,-89.0567"/>
<text text-anchor="middle" x="251" y="-132.7478" font-family="Helvetica,sans-Serif" font-size="10.00" fill="#000000">否</text>
</g>
<!-- has_message&#45;&gt;send_message -->
<g id="edge10" class="edge">
<title>has_message&#45;&gt;send_message</title>
<path fill="none" stroke="#000000" d="M260.3366,-203.9741C265.9075,-191.9968 273.7051,-175.2319 280.2845,-161.0861"/>
<polygon fill="#000000" stroke="#000000" points="283.5587,-162.3457 284.6025,-151.8024 277.2116,-159.3936 283.5587,-162.3457"/>
<text text-anchor="middle" x="280" y="-175.7478" font-family="Helvetica,sans-Serif" font-size="10.00" fill="#000000">是</text>
</g>
</g>
</svg>
